<?xml version="1.0" encoding="UTF-8"?>
<svg id="Ebene_1" xmlns="http://www.w3.org/2000/svg" version="1.1" viewBox="0 0 224.9 224.9">
  <!-- Generator: Adobe Illustrator 30.1.0, SVG Export Plug-In . SVG Version: 2.1.1 Build 136)  -->
  <defs>
    <style>
      .st0 {
        fill: #4c7a9c;
      }
    </style>
  </defs>
  <g>
    <path class="st0" d="M76.7,164.8h-32.3c-.9,0-1.6-.7-1.6-1.6v-43.6c0-.8.5-1.4,1.3-1.6,8.5-1.8,17.2-3.8,25.7-6.2h0c2.2-.6,4.4-1.2,6.5-1.8.5-.1,1,0,1.4.3.4.3.6.8.6,1.3v51.7c0,.9-.7,1.6-1.6,1.6ZM46,161.6h29.1v-48c-1.5.4-3,.9-4.5,1.3h0c-8.1,2.2-16.4,4.2-24.6,5.9v40.8Z"/>
    <path class="st0" d="M169.2,164.8h-32.3c-.9,0-1.6-.7-1.6-1.6v-74.4c0-.6.4-1.2.9-1.4,11.9-5.7,22.7-11.8,32.1-18.1.5-.3,1.1-.4,1.6,0,.5.3.8.8.8,1.4v92.6c0,.9-.7,1.6-1.6,1.6ZM138.5,161.6h29.1v-88c-8.7,5.6-18.5,11.1-29.1,16.3v71.8Z"/>
    <path class="st0" d="M123.2,164.8h-32.3c-.9,0-1.6-.7-1.6-1.6v-56c0-.7.4-1.3,1.1-1.5,11.1-3.6,22-7.7,32.2-12.1.5-.2,1.1-.2,1.5.1.4.3.7.8.7,1.3v68.1c0,.9-.7,1.6-1.6,1.6ZM92.4,161.6h29.1v-64.1c-9.3,3.9-19.1,7.6-29.1,10.9v53.3Z"/>
  </g>
  <path class="st0" d="M112.5,224.5C50.8,224.5.6,174.3.6,112.6S50.8.7,112.5.7s111.9,50.2,111.9,111.9-50.2,111.9-111.9,111.9ZM112.5,7.7C54.6,7.7,7.6,54.8,7.6,112.6s47,104.9,104.9,104.9,104.9-47,104.9-104.9S170.3,7.7,112.5,7.7Z"/>
  <g>
    <path class="st0" d="M44.4,101.4c-1.1,0-2.1-.7-2.4-1.8-.4-1.3.4-2.7,1.7-3.1,31-8.6,68.1-20.4,108.7-42.2,1.2-.7,2.7-.2,3.4,1,.7,1.2.2,2.7-1,3.4-41,22.1-78.5,33.9-109.7,42.6-.2,0-.4,0-.7,0Z"/>
    <polygon class="st0" points="156.5 69 169.2 47.6 144.3 47.3 156.5 69"/>
  </g>
</svg>