<?xml version="1.0" encoding="utf-8"?>
<!-- Generator: Adobe Illustrator 30.1.0, SVG Export Plug-In . SVG Version: 9.03 Build 0)  -->
<svg version="1.0" id="Ebene_1" xmlns="http://www.w3.org/2000/svg" xmlns:xlink="http://www.w3.org/1999/xlink" x="0px" y="0px"
	 viewBox="0 0 224.9 224.9" style="enable-background:new 0 0 224.9 224.9;" xml:space="preserve">
<style type="text/css">
	.st0{fill:#4C7A9C;}
</style>
<g>
	<path class="st0" d="M112.5,224.1c-61.7,0-111.9-50.2-111.9-111.9S50.8,0.4,112.5,0.4c61.7,0,111.9,50.2,111.9,111.9
		S174.1,224.1,112.5,224.1z M112.5,7.4C54.6,7.4,7.6,54.4,7.6,112.3c0,57.8,47,104.9,104.9,104.9c57.8,0,104.9-47,104.9-104.9
		C217.3,54.4,170.3,7.4,112.5,7.4z"/>
	<g>
		<path class="st0" d="M34.6,145.1c-0.8,0-1.5-0.2-2.2-0.7c-1.8-1.2-2.3-3.7-1.1-5.5l26-38.8c6.2-9.2,16.5-14.2,27.5-13.2
			c11.1,1,20.3,7.6,24.8,17.8l6.3,14.3c3.6,8.1,11.3,13.1,20.1,13.1c0,0,0.1,0,0.1,0c8.9,0,16.6-5.1,20.1-13.3l24.7-57.5
			c0.9-2,3.2-3,5.3-2.1c2,0.9,3,3.2,2.1,5.3L163.5,122c-4.8,11.1-15.3,18.1-27.4,18.1c0,0-0.1,0-0.1,0c-12.1,0-22.6-6.9-27.4-17.9
			l-6.3-14.3c-3.3-7.5-10.1-12.3-18.2-13.1c-8.1-0.7-15.7,2.9-20.2,9.7l-26,38.8C37.1,144.4,35.9,145.1,34.6,145.1z"/>
		<circle class="st0" cx="131.4" cy="60.8" r="8.5"/>
		<circle class="st0" cx="82.7" cy="155.8" r="8.5"/>
		<circle class="st0" cx="169.3" cy="170.2" r="8.5"/>
		<path class="st0" d="M82.7,157.4c-0.6,0-1.1-0.3-1.4-0.9l-24.7-49.7c-0.4-0.8-0.1-1.7,0.7-2.1c0.8-0.4,1.7-0.1,2.1,0.7l24.7,49.7
			c0.4,0.8,0.1,1.7-0.7,2.1C83.2,157.4,82.9,157.4,82.7,157.4z"/>
		<path class="st0" d="M109.6,116.2c-0.2,0-0.4,0-0.6-0.1c-0.8-0.3-1.2-1.3-0.9-2.1L130,60.2c0.3-0.8,1.3-1.2,2.1-0.9
			c0.8,0.3,1.2,1.3,0.9,2.1l-21.8,53.8C110.8,115.9,110.2,116.2,109.6,116.2z"/>
		<path class="st0" d="M169.3,171.8c-0.7,0-1.3-0.5-1.5-1.1L155,126.5c-0.2-0.8,0.2-1.7,1.1-2c0.8-0.2,1.7,0.2,2,1.1l12.8,44.2
			c0.2,0.8-0.2,1.7-1.1,2C169.6,171.8,169.4,171.8,169.3,171.8z"/>
	</g>
</g>
</svg>
