<?xml version="1.0" encoding="utf-8"?>
<!-- Generator: Adobe Illustrator 30.1.0, SVG Export Plug-In . SVG Version: 9.03 Build 0)  -->
<svg version="1.0" id="Ebene_1" xmlns="http://www.w3.org/2000/svg" xmlns:xlink="http://www.w3.org/1999/xlink" x="0px" y="0px"
	 viewBox="0 0 224.9 224.9" style="enable-background:new 0 0 224.9 224.9;" xml:space="preserve">
<style type="text/css">
	.st0{fill:#4C7A9C;}
</style>
<g>
	<path class="st0" d="M112.5,224.1c-61.7,0-111.9-50.2-111.9-111.9S50.8,0.4,112.5,0.4c61.7,0,111.9,50.2,111.9,111.9
		S174.1,224.1,112.5,224.1z M112.5,7.4C54.6,7.4,7.6,54.4,7.6,112.3c0,57.8,47,104.9,104.9,104.9c57.8,0,104.9-47,104.9-104.9
		C217.3,54.4,170.3,7.4,112.5,7.4z"/>
	<g>
		<path class="st0" d="M119.7,174.2H75.6c-0.9,0-1.6-0.7-1.6-1.6l0-2.5c0-1.6,0-3.2,0-4.7c-0.1-10.2-5.3-15.5-15.7-15.7
			c-2.5-0.1-6.2-0.3-9.4-1.6c-2.3-0.9-5.5-3.5-5.7-6.1c-0.4-5.8-0.3-11.6-0.3-17.2c0-1.7,0-3.3,0-5c-2.3-1.4-4.6-3.2-5-5.7
			c-0.3-2,0.5-4.1,2.6-6.4c1.7-1.9,3.1-4.3,4.4-6.6c0.5-0.8,1-1.7,1.5-2.5c-2.5-16,3.6-29.5,16.8-37c11.9-6.8,24.3-9.6,35.9-7.9
			c10.4,1.5,19.9,6.2,27.5,13.8c14.5,14.5,18.2,35.6,9.1,51.4c-12.8,22.2-14.4,34.6-14.5,35.5v18.2
			C121.3,173.5,120.6,174.2,119.7,174.2z M77.2,171h40.9v-16.7c0,0,0-0.1,0-0.1c0-0.5,1.2-13.2,14.9-36.9
			c8.4-14.5,4.9-34.1-8.6-47.5c-18.5-18.6-42.9-15-59.6-5.4c-12.1,7-17.7,19.5-15.2,34.4c0.1,0.4,0,0.8-0.2,1.1
			c-0.6,0.9-1.1,1.9-1.7,2.9c-1.4,2.4-2.8,4.9-4.8,7.1c-1.4,1.5-2,2.8-1.8,3.7c0.2,1.2,1.5,2.4,4.2,3.9c0.5,0.3,0.8,0.8,0.8,1.4
			c0,1.9,0,3.9,0,5.9c-0.1,5.6-0.1,11.3,0.3,17c0,0.7,1.8,2.6,3.7,3.3c2.8,1.1,6.1,1.3,8.3,1.4c12,0.3,18.7,7,18.8,18.9
			c0,1.5,0,3.1,0,4.7L77.2,171z"/>
		<path class="st0" d="M149.5,174.2h-44.1c-0.9,0-1.6-0.7-1.6-1.6v-18.2c-0.1-0.9-1.6-13.3-14.5-35.5C80.2,103.1,84,82,98.4,67.5
			c7.6-7.6,17.1-12.4,27.5-13.8c11.7-1.6,24.1,1.1,35.9,7.9c13.2,7.6,19.3,21.1,16.8,37c0.5,0.8,1,1.7,1.5,2.5
			c1.3,2.3,2.7,4.6,4.4,6.6c2,2.3,2.9,4.4,2.6,6.4c-0.4,2.5-2.7,4.3-5,5.7c0,1.6,0,3.3,0,5c0.1,5.6,0.1,11.4-0.3,17.2
			c-0.2,2.5-3.4,5.1-5.7,6.1c-3.3,1.3-6.9,1.5-9.4,1.6c-10.3,0.2-15.6,5.5-15.7,15.7c0,1.5,0,3.1,0,4.7l0,2.5
			C151.1,173.5,150.4,174.2,149.5,174.2z M107,171h40.9l0-0.9c0-1.7,0-3.2,0-4.7c0.1-11.9,6.7-18.6,18.8-18.9
			c2.3-0.1,5.6-0.3,8.3-1.4c1.8-0.7,3.6-2.6,3.7-3.3c0.4-5.7,0.3-11.4,0.3-17c0-2,0-4,0-5.9c0-0.6,0.3-1.1,0.8-1.4
			c2.7-1.5,4-2.8,4.2-3.9c0.2-1-0.4-2.2-1.8-3.7c-1.9-2.2-3.4-4.7-4.8-7.1c-0.6-1-1.1-2-1.7-2.9c-0.2-0.3-0.3-0.7-0.2-1.1
			c2.5-14.9-3.1-27.4-15.2-34.4c-16.7-9.6-41.1-13.2-59.6,5.4c-13.4,13.5-17,33-8.6,47.5c13.7,23.7,14.9,36.4,14.9,36.9
			c0,0,0,0.1,0,0.1V171z"/>
		<g>
			<path class="st0" d="M126.1,98.4h-24.9c-0.9,0-1.6-0.7-1.6-1.6s0.7-1.6,1.6-1.6h24.9c0.9,0,1.6,0.7,1.6,1.6S127,98.4,126.1,98.4z
				"/>
			<path class="st0" d="M126.1,108.4h-24.9c-0.9,0-1.6-0.7-1.6-1.6s0.7-1.6,1.6-1.6h24.9c0.9,0,1.6,0.7,1.6,1.6
				S127,108.4,126.1,108.4z"/>
			<path class="st0" d="M107.2,114c-0.3,0-0.5-0.1-0.8-0.2c-0.8-0.4-1-1.4-0.6-2.2l12.4-21.5c0.4-0.8,1.4-1,2.2-0.6
				c0.8,0.4,1,1.4,0.6,2.2l-12.4,21.5C108.3,113.7,107.8,114,107.2,114z"/>
		</g>
	</g>
</g>
</svg>
