<?xml version="1.0" encoding="utf-8"?>
<!-- Generator: Adobe Illustrator 30.1.0, SVG Export Plug-In . SVG Version: 9.03 Build 0)  -->
<svg version="1.0" id="Ebene_1" xmlns="http://www.w3.org/2000/svg" xmlns:xlink="http://www.w3.org/1999/xlink" x="0px" y="0px"
	 viewBox="0 0 224.9 224.9" style="enable-background:new 0 0 224.9 224.9;" xml:space="preserve">
<style type="text/css">
	.st0{fill:#4C7A9C;}
</style>
<g>
	<path class="st0" d="M112.5,224.1c-61.7,0-111.9-50.2-111.9-111.9S50.8,0.4,112.5,0.4c61.7,0,111.9,50.2,111.9,111.9
		S174.1,224.1,112.5,224.1z M112.5,7.4C54.6,7.4,7.6,54.4,7.6,112.3c0,57.8,47,104.9,104.9,104.9c57.8,0,104.9-47,104.9-104.9
		C217.3,54.4,170.3,7.4,112.5,7.4z"/>
	<g>
		<path class="st0" d="M109.6,147.2c-26.8,0-48.7-21.8-48.7-48.7s21.8-48.7,48.7-48.7s48.7,21.8,48.7,48.7S136.4,147.2,109.6,147.2z
			 M109.6,52.7c-25.3,0-45.8,20.6-45.8,45.8s20.6,45.8,45.8,45.8c25.3,0,45.8-20.6,45.8-45.8S134.8,52.7,109.6,52.7z"/>
		<path class="st0" d="M150,183.7h-81c-4.5,0-8.2-3.7-8.2-8.2v-2.4c0-4.5,3.7-8.2,8.2-8.2h81c4.5,0,8.2,3.7,8.2,8.2v2.4
			C158.2,180,154.6,183.7,150,183.7z M69.1,167.8c-2.9,0-5.3,2.4-5.3,5.3v2.4c0,2.9,2.4,5.3,5.3,5.3h81c2.9,0,5.3-2.4,5.3-5.3v-2.4
			c0-2.9-2.4-5.3-5.3-5.3H69.1z"/>
		<path class="st0" d="M71.6,166.9c-0.3,0-0.5-0.1-0.7-0.2c-0.7-0.4-0.9-1.3-0.5-2l14.7-24.2c0.4-0.7,1.3-0.9,2-0.5
			c0.7,0.4,0.9,1.3,0.5,2l-14.7,24.2C72.5,166.6,72,166.9,71.6,166.9z"/>
		<path class="st0" d="M148.2,166.9c-0.5,0-1-0.2-1.2-0.7l-15.6-25.6c-0.4-0.7-0.2-1.6,0.5-2c0.7-0.4,1.6-0.2,2,0.5l15.6,25.6
			c0.4,0.7,0.2,1.6-0.5,2C148.7,166.8,148.5,166.9,148.2,166.9z"/>
		<path class="st0" d="M70.9,100c-0.8,0-1.4-0.6-1.4-1.4c0-22.1,18-40.1,40.1-40.1c0.8,0,1.4,0.6,1.4,1.4s-0.6,1.4-1.4,1.4
			C89,61.3,72.3,78,72.3,98.6C72.3,99.4,71.7,100,70.9,100z"/>
		<g>
			<path class="st0" d="M114.3,131.1h-9.1c-0.8,0-1.4-0.6-1.4-1.4v-9.1c0-0.8,0.6-1.4,1.4-1.4h9.1c0.8,0,1.4,0.6,1.4,1.4v9.1
				C115.7,130.5,115.1,131.1,114.3,131.1z M106.6,128.2h6.2V122h-6.2V128.2z M113.4,115.4h-8.3c-0.8,0-1.4-0.6-1.4-1.4
				c0-1.2,0-1.9,0-2.2c0-2.9,0.5-5.3,1.5-7.3c1-1.9,2.8-4,5.7-6.3c3.4-2.7,4.3-3.7,4.5-4c0.6-0.8,0.9-1.7,0.9-2.6
				c0-1.4-0.5-2.5-1.6-3.5c-1.2-1-2.7-1.5-4.8-1.5c-2,0-3.6,0.5-4.9,1.6c-1.3,1.1-2.2,2.9-2.7,5.2c-0.2,0.7-0.8,1.2-1.6,1.1l-8.4-1
				c-0.8-0.1-1.3-0.8-1.3-1.5c0.3-4.2,2.1-7.9,5.4-10.9c3.3-2.9,7.7-4.4,13-4.4c5.6,0,10.1,1.5,13.4,4.5c3.4,3,5.1,6.6,5.1,10.6
				c0,2.3-0.6,4.5-1.9,6.5c-1.2,1.9-3.7,4.4-7.6,7.7c-2.3,1.9-3,2.9-3.2,3.4c-0.2,0.4-0.5,1.6-0.5,4.6c0,0.4-0.1,0.8-0.4,1
				C114.2,115.3,113.8,115.4,113.4,115.4z M106.6,112.6h5.4c0.1-2,0.3-3.4,0.8-4.4c0.6-1.2,1.9-2.6,4-4.3c3.6-3,5.9-5.3,7-7
				c1-1.6,1.5-3.2,1.5-4.9c0-3.2-1.4-6-4.2-8.5c-2.8-2.5-6.7-3.7-11.5-3.7c-4.6,0-8.3,1.2-11.1,3.7c-2.4,2.1-3.8,4.6-4.3,7.5
				l5.7,0.7c0.7-2.4,1.8-4.2,3.4-5.5c1.8-1.5,4.1-2.3,6.7-2.3c2.8,0,5,0.8,6.7,2.3c1.7,1.5,2.6,3.4,2.6,5.6c0,1.6-0.5,3.1-1.5,4.4
				c-0.4,0.5-1.3,1.5-5,4.5c-2.5,2-4.2,3.8-4.9,5.4c-0.8,1.5-1.2,3.5-1.2,6C106.6,112,106.6,112.2,106.6,112.6z"/>
		</g>
		<path class="st0" d="M186.2,125.2c-0.2,0-0.4,0-0.6-0.1l-9.2-4.2l-9.2,4.2c-0.5,0.3-1.2,0.1-1.6-0.3c-0.4-0.4-0.5-1.1-0.3-1.6
			l4.2-9.2l-4.2-9.2c-0.3-0.5-0.1-1.2,0.3-1.6c0.4-0.4,1.1-0.5,1.6-0.3l9.2,4.2l9.2-4.2c0.5-0.3,1.2-0.1,1.6,0.3
			c0.4,0.4,0.5,1.1,0.3,1.6l-4.2,9.2l4.2,9.2c0.3,0.5,0.1,1.2-0.3,1.6C186.9,125.1,186.5,125.2,186.2,125.2z M176.4,117.8
			c0.2,0,0.4,0,0.6,0.1l6.2,2.9l-2.9-6.2c-0.2-0.4-0.2-0.8,0-1.2l2.9-6.2L177,110c-0.4,0.2-0.8,0.2-1.2,0l-6.2-2.9l2.9,6.2
			c0.2,0.4,0.2,0.8,0,1.2l-2.9,6.2l6.2-2.9C176,117.9,176.2,117.8,176.4,117.8z"/>
		<path class="st0" d="M47.6,102.4c-0.2,0-0.4,0-0.6-0.1l-6.9-3.2l-6.9,3.2c-0.5,0.3-1.2,0.1-1.6-0.3c-0.4-0.4-0.5-1.1-0.3-1.6
			l3.2-6.9l-3.2-6.9c-0.3-0.5-0.1-1.2,0.3-1.6c0.4-0.4,1.1-0.5,1.6-0.3l6.9,3.2l6.9-3.2c0.5-0.3,1.2-0.1,1.6,0.3
			c0.4,0.4,0.5,1.1,0.3,1.6l-3.2,6.9l3.2,6.9c0.3,0.5,0.1,1.2-0.3,1.6C48.4,102.3,48,102.4,47.6,102.4z M40.2,96.1
			c0.2,0,0.4,0,0.6,0.1l3.9,1.8l-1.8-3.9c-0.2-0.4-0.2-0.8,0-1.2l1.8-3.9l-3.9,1.8c-0.4,0.2-0.8,0.2-1.2,0L35.7,89l1.8,3.9
			c0.2,0.4,0.2,0.8,0,1.2l-1.8,3.9l3.9-1.8C39.8,96.2,40,96.1,40.2,96.1z"/>
		<path class="st0" d="M147.9,45.3c-0.2,0-0.4,0-0.6-0.1l-6.9-3.2l-6.9,3.2c-0.5,0.2-1.2,0.1-1.6-0.3c-0.4-0.4-0.5-1.1-0.3-1.6
			l3.2-6.9l-3.2-6.9c-0.3-0.5-0.1-1.2,0.3-1.6c0.4-0.4,1.1-0.5,1.6-0.3l6.9,3.2l6.9-3.2c0.5-0.3,1.2-0.1,1.6,0.3
			c0.4,0.4,0.5,1.1,0.3,1.6l-3.2,6.9l3.2,6.9c0.3,0.5,0.1,1.2-0.3,1.6C148.6,45.1,148.3,45.3,147.9,45.3z M140.4,39
			c0.2,0,0.4,0,0.6,0.1l3.9,1.8l-1.8-3.9c-0.2-0.4-0.2-0.8,0-1.2l1.8-3.9l-3.9,1.8c-0.4,0.2-0.8,0.2-1.2,0l-3.9-1.8l1.8,3.9
			c0.2,0.4,0.2,0.8,0,1.2l-1.8,3.9l3.9-1.8C140,39,140.2,39,140.4,39z"/>
	</g>
</g>
</svg>
