<?xml version="1.0" encoding="utf-8"?>
<!-- Generator: Adobe Illustrator 30.1.0, SVG Export Plug-In . SVG Version: 9.03 Build 0)  -->
<svg version="1.0" id="Ebene_1" xmlns="http://www.w3.org/2000/svg" xmlns:xlink="http://www.w3.org/1999/xlink" x="0px" y="0px"
	 viewBox="0 0 224.9 224.9" style="enable-background:new 0 0 224.9 224.9;" xml:space="preserve">
<style type="text/css">
	.st0{fill:none;stroke:#4C7A9C;stroke-width:7;stroke-linecap:round;stroke-linejoin:round;stroke-miterlimit:10;}
	.st1{fill:none;stroke:#4C7A9C;stroke-width:3.1813;stroke-linecap:round;stroke-linejoin:round;stroke-miterlimit:10;}
</style>
<g>
	<circle class="st0" cx="112.5" cy="112.3" r="108.4"/>
	<g>
		<circle class="st1" cx="111.5" cy="73.6" r="37.2"/>
		<g>
			<path class="st1" d="M83.7,136.3c0-7.6,6.1-13.7,13.7-13.7c6.4,0,12.6,4.6,14.1,10.5"/>
			<path class="st1" d="M111.5,133c1.4-6,6.9-10.5,13.4-10.5c7.6,0,13.7,6.1,13.7,13.7"/>
			<path class="st1" d="M83.7,136.3c0,13.7,27.5,36.9,27.5,36.9"/>
			<path class="st1" d="M138.6,136.3c0,13.7-27.5,36.9-27.5,36.9"/>
		</g>
		<path class="st1" d="M106.5,181.5l-36.6,0c-6.9,0-12.5-5.6-12.5-12.5v-30.3c0-8.9,7.2-16.2,16.2-16.2H81
			C65.5,133.9,77,158.3,106.5,181.5z"/>
		<path class="st1" d="M116.4,181.5l36.6,0c6.9,0,12.5-5.6,12.5-12.5v-30.3c0-8.9-7.2-16.2-16.2-16.2h-7.4
			C157.4,133.9,145.9,158.3,116.4,181.5z"/>
	</g>
</g>
</svg>
