<?xml version="1.0" encoding="UTF-8"?>
<svg id="Ebene_1" xmlns="http://www.w3.org/2000/svg" version="1.1" viewBox="0 0 327 84.7">
  <!-- Generator: Adobe Illustrator 30.1.0, SVG Export Plug-In . SVG Version: 2.1.1 Build 136)  -->
  <defs>
    <style>
      .st0 {
        fill: #4d7b9b;
      }

      .st1 {
        fill: #97a868;
      }

      .st2 {
        fill: #868686;
      }
    </style>
  </defs>
  <path class="st1" d="M44.3,52.8l18.6-23.5C75.1,14.5,53.3,1.3,38.4.2,24.5-.9,12.2,2.6,12.2,15.2c0,20,41.4,6,32.1,37.6Z"/>
  <path class="st0" d="M22.7,31.7L3.7,54.9c-12.4,14.5,9.1,28.2,24.1,29.6,13.8,1.3,26.2-1.9,26.5-14.5.4-20-41.3-6.7-31.5-38.2Z"/>
  <g>
    <path class="st2" d="M146.6,20.7v2.9c0,1.1-.9,2-2,2h-12v5.7h9.6v4.5h-9.6v6.5h12.3c1.1,0,2,.9,2,2v2.9h-17.8c-1.3,0-2.3-1-2.3-2.3v-21.8c0-1.3,1-2.3,2.3-2.3h17.5Z"/>
    <path class="st2" d="M276.5,20.7v2.9c0,1.1-.9,2-2,2h-12v5.7h9.6v4.5h-9.6v6.5h12.3c1.1,0,2,.9,2,2v2.9h-17.8c-1.3,0-2.3-1-2.3-2.3v-21.8c0-1.3,1-2.3,2.3-2.3h17.5Z"/>
    <path class="st2" d="M164.2,20.7l11,17.7h0v-17.7h3.3c1.2,0,2.1.9,2.1,2.1v22.3c0,1.1-.9,2.1-2.1,2.1h-3.8l-11-17.7h0v17.7h-5.4v-24.4c0-1.1.9-2.1,2.1-2.1h3.7Z"/>
    <path class="st2" d="M212.7,45.1c-2,1.7-4.8,2.6-8.3,2.6s-6.4-.9-8.3-2.6c-2-1.7-2.9-4.4-2.9-8v-16.5h3.3c1.4,0,2.5,1.1,2.5,2.5v13.9c0,.7,0,1.4.2,2.1.1.7.4,1.3.8,1.8.4.5.9,1,1.6,1.3.7.3,1.6.5,2.8.5,2.1,0,3.5-.5,4.3-1.4.8-.9,1.2-2.4,1.2-4.4v-16.5h3.3c1.4,0,2.5,1.1,2.5,2.5v13.9c0,3.6-1,6.2-3,8Z"/>
    <path class="st2" d="M233.9,23.2v19h10.4c1.4,0,2.5,1.1,2.5,2.5v2.4h-18.7v-26.5h3.3c1.4,0,2.5,1.1,2.5,2.5Z"/>
    <path class="st2" d="M292.8,40.6c.3.6.7,1.1,1.3,1.5.5.4,1.2.7,1.9.9.7.2,1.5.3,2.2.3s1.1,0,1.7-.1c.6,0,1.1-.3,1.7-.5.5-.2,1-.6,1.3-1,.3-.4.5-1,.5-1.6s-.2-1.3-.7-1.7c-.5-.4-1.1-.8-1.8-1.1-.7-.3-1.6-.6-2.5-.8s-1.9-.5-2.9-.7c-1-.2-2-.5-2.9-.9-.9-.4-1.8-.8-2.5-1.4-.7-.6-1.3-1.3-1.8-2.1-.5-.9-.7-1.9-.7-3.1s.3-2.5.9-3.5c.6-1,1.3-1.8,2.3-2.5.9-.7,2-1.2,3.2-1.5,1.2-.3,2.4-.5,3.6-.5s2.7.2,4,.5,2.4.8,3.4,1.5c1,.7,1.8,1.6,2.4,2.6.3.5.5,1,.6,1.5.3,1.2-.7,2.4-1.9,2.4h-3.5c0-.8-.2-1.4-.5-2s-.7-.9-1.1-1.2c-.5-.3-1-.5-1.6-.6-.6-.1-1.3-.2-2-.2s-.9,0-1.4.1c-.5,0-.9.3-1.3.5-.4.2-.7.6-.9.9-.2.4-.4.8-.4,1.4s0,.9.3,1.3c.2.3.6.6,1.2.9.6.3,1.4.5,2.4.8,1,.3,2.4.6,4,1,.5,0,1.2.3,2.1.5.9.3,1.7.7,2.6,1.2.9.6,1.6,1.3,2.2,2.3.6,1,.9,2.2.9,3.6s-.2,2.3-.7,3.4c-.5,1-1.2,1.9-2.1,2.7-.9.8-2.1,1.3-3.4,1.8s-3,.6-4.8.6-2.9-.2-4.2-.5c-1.4-.4-2.6-.9-3.6-1.7-1-.8-1.9-1.7-2.5-2.9-.2-.3-.3-.7-.4-1-.5-1.6.6-3.2,2.3-3.2h2.9c0,.9.2,1.6.5,2.3Z"/>
    <path class="st2" d="M109.3,25.5h-13.1v-4.9h19.7c1.6,0,2.6,1.8,1.7,3.2l-12.3,18.4h12.3v4.9h-20.1c-1.2,0-2-1.4-1.3-2.4l13-19.1Z"/>
    <g>
      <path class="st2" d="M79.7,72.9v-13.4h8.5v1.3h-6.9v4.6h6.5v1.3h-6.5v4.8h6.9v1.3h-8.5Z"/>
      <path class="st2" d="M89.8,72.9v-9.2h1.5v2h-.2c.3-.7.7-1.3,1.3-1.7.6-.4,1.3-.6,2.1-.6s1.3.1,1.8.4.9.7,1.1,1.2c.2.5.4,1.2.4,2v5.7h-1.5v-5.7c0-.6,0-1-.2-1.4-.1-.4-.4-.6-.7-.8-.3-.2-.7-.3-1.2-.3s-1,.1-1.5.4c-.4.2-.7.6-1,1-.2.4-.3.9-.3,1.5v5.3h-1.5Z"/>
      <path class="st2" d="M104.2,73.1c-1,0-1.8-.2-2.5-.6s-1.2-.9-1.6-1.6c-.4-.7-.6-1.6-.6-2.5s.2-1.8.6-2.5c.4-.7.9-1.3,1.6-1.7.7-.4,1.4-.6,2.3-.6s1.6.2,2.1.5c.6.4,1.1.9,1.4,1.6.3.7.5,1.5.5,2.4v.6h-7.3v-1h6.2l-.3.2c0-1-.2-1.8-.7-2.4-.4-.6-1.1-.8-2-.8s-1.2.1-1.6.4c-.4.3-.8.7-1,1.2-.2.5-.3,1.1-.3,1.8h0c0,.9.1,1.5.4,2.1s.6.9,1.1,1.2c.5.3,1.1.4,1.8.4s1.1,0,1.6-.3c.5-.2,1-.5,1.5-.8l.5,1.1c-.4.4-.9.7-1.6.9-.6.2-1.3.3-2,.3Z"/>
      <path class="st2" d="M109.6,72.9v-9.2h1.5v2.2h-.2c.2-.7.6-1.3,1.1-1.7.5-.4,1.2-.6,2.1-.7h.6c0,0,.1,1.3.1,1.3h-1c-.9.2-1.5.5-2,.9-.5.5-.7,1.1-.7,1.9v5.3h-1.6Z"/>
      <path class="st2" d="M119.9,76.5c-.8,0-1.5-.1-2.3-.3s-1.3-.5-1.9-.9l.5-1.1c.4.3.8.5,1.1.7s.8.3,1.2.4c.4,0,.8.1,1.2.1.9,0,1.6-.2,2-.7.5-.5.7-1.2.7-2.1v-2.1h.2c-.2.7-.6,1.3-1.2,1.7s-1.3.6-2.2.6-1.6-.2-2.2-.6c-.6-.4-1.1-.9-1.4-1.6s-.5-1.5-.5-2.4.2-1.7.5-2.4.8-1.2,1.4-1.6c.6-.4,1.4-.6,2.2-.6s1.6.2,2.2.6,1,1,1.2,1.7h-.2v-2.2h1.5v8.6c0,.9-.2,1.7-.5,2.4-.3.6-.8,1.1-1.4,1.4-.6.3-1.4.5-2.3.5ZM119.7,71.4c.9,0,1.6-.3,2.1-.9.5-.6.8-1.4.8-2.4s-.3-1.8-.8-2.4c-.5-.6-1.2-.9-2.1-.9s-1.6.3-2.1.9c-.5.6-.8,1.4-.8,2.4s.3,1.8.8,2.4c.5.6,1.2.9,2.1.9Z"/>
      <path class="st2" d="M126.1,61.4v-1.7h1.9v1.7h-1.9ZM126.3,72.9v-9.2h1.5v9.2h-1.5Z"/>
      <path class="st2" d="M134.2,73.1c-1,0-1.8-.2-2.5-.6s-1.2-.9-1.6-1.6c-.4-.7-.6-1.6-.6-2.5s.2-1.8.6-2.5c.4-.7.9-1.3,1.6-1.7.7-.4,1.4-.6,2.3-.6s1.6.2,2.1.5c.6.4,1.1.9,1.4,1.6.3.7.5,1.5.5,2.4v.6h-7.3v-1h6.2l-.3.2c0-1-.2-1.8-.7-2.4-.4-.6-1.1-.8-2-.8s-1.2.1-1.6.4c-.4.3-.8.7-1,1.2-.2.5-.3,1.1-.3,1.8h0c0,.9.1,1.5.4,2.1s.6.9,1.1,1.2c.5.3,1.1.4,1.8.4s1.1,0,1.6-.3c.5-.2,1-.5,1.5-.8l.5,1.1c-.4.4-.9.7-1.6.9-.6.2-1.3.3-2,.3Z"/>
      <path class="st2" d="M142.7,73.1c-.5,0-.9,0-1.4-.1-.4,0-.9-.2-1.3-.4s-.7-.4-1-.6l.5-1.1c.3.2.6.4,1,.6s.7.3,1.1.4c.4,0,.7.1,1.1.1.7,0,1.3-.1,1.6-.4.4-.3.6-.6.6-1.1s-.1-.6-.4-.8c-.2-.2-.6-.4-1.1-.5l-1.7-.4c-.8-.2-1.4-.4-1.8-.9-.4-.4-.6-.9-.6-1.6s.1-1.1.4-1.5c.3-.4.7-.7,1.3-1,.5-.2,1.2-.3,1.9-.3s.8,0,1.2.1c.4,0,.8.2,1.1.4.3.2.6.4.9.6l-.5,1.1c-.2-.2-.5-.4-.8-.6-.3-.2-.6-.3-.9-.4-.3,0-.6-.1-1-.1-.7,0-1.2.1-1.6.4-.4.3-.6.6-.6,1.1s.1.6.3.9.6.4,1.1.5l1.7.4c.8.2,1.4.5,1.9.8.4.4.6.9.6,1.6s-.2,1-.5,1.5c-.3.4-.7.7-1.3.9-.6.2-1.2.3-1.9.3Z"/>
      <path class="st2" d="M149.4,76.3l1.7-3.9v.7l-4-9.4h1.7l3.3,8.1h-.5l3.3-8.1h1.6l-5.5,12.6h-1.6Z"/>
      <path class="st2" d="M160.5,73.1c-.5,0-.9,0-1.4-.1-.4,0-.9-.2-1.3-.4s-.7-.4-1-.6l.5-1.1c.3.2.6.4,1,.6s.7.3,1.1.4c.4,0,.7.1,1.1.1.7,0,1.3-.1,1.6-.4.4-.3.6-.6.6-1.1s-.1-.6-.4-.8c-.2-.2-.6-.4-1.1-.5l-1.7-.4c-.8-.2-1.4-.4-1.8-.9-.4-.4-.6-.9-.6-1.6s.1-1.1.4-1.5c.3-.4.7-.7,1.3-1,.5-.2,1.2-.3,1.9-.3s.8,0,1.2.1c.4,0,.8.2,1.1.4.3.2.6.4.9.6l-.5,1.1c-.2-.2-.5-.4-.8-.6-.3-.2-.6-.3-.9-.4-.3,0-.6-.1-1-.1-.7,0-1.2.1-1.6.4-.4.3-.6.6-.6,1.1s.1.6.3.9.6.4,1.1.5l1.7.4c.8.2,1.4.5,1.9.8.4.4.6.9.6,1.6s-.2,1-.5,1.5c-.3.4-.7.7-1.3.9-.6.2-1.2.3-1.9.3Z"/>
      <path class="st2" d="M170,73.1c-1.1,0-1.9-.3-2.5-.9-.5-.6-.8-1.4-.8-2.5v-4.8h-1.8v-1.2h1.8v-2.8h1.5v2.8h2.9v1.2h-2.9v4.7c0,.7.2,1.3.5,1.6.3.4.8.6,1.5.6s.4,0,.6,0c.2,0,.4-.1.6-.2l.3,1.2c-.2,0-.4.2-.7.2s-.6.1-.9.1Z"/>
      <path class="st2" d="M176.6,73.1c-1,0-1.8-.2-2.5-.6-.7-.4-1.2-.9-1.6-1.6-.4-.7-.6-1.6-.6-2.5s.2-1.8.6-2.5c.4-.7.9-1.3,1.6-1.7.7-.4,1.4-.6,2.3-.6s1.6.2,2.1.5c.6.4,1.1.9,1.4,1.6.3.7.5,1.5.5,2.4v.6h-7.3v-1h6.2l-.3.2c0-1-.2-1.8-.7-2.4-.5-.6-1.1-.8-2-.8s-1.2.1-1.6.4-.8.7-1,1.2c-.2.5-.3,1.1-.3,1.8h0c0,.9.1,1.5.4,2.1s.6.9,1.1,1.2c.5.3,1.1.4,1.8.4s1.1,0,1.6-.3c.5-.2,1-.5,1.5-.8l.5,1.1c-.4.4-1,.7-1.6.9s-1.3.3-2,.3Z"/>
      <path class="st2" d="M182,72.9v-9.2h1.5v2h-.2c.2-.5.4-.9.7-1.2.3-.3.7-.6,1.1-.8s.9-.3,1.4-.3c.8,0,1.4.2,1.9.6s.8,1,1,1.7h-.3c.2-.7.6-1.3,1.2-1.7.6-.4,1.3-.6,2.1-.6s1.3.1,1.7.4.8.7,1,1.2c.2.5.3,1.2.3,2v5.7h-1.5v-5.7c0-.8-.1-1.5-.4-1.9s-.8-.6-1.5-.6-.9.1-1.3.4c-.4.2-.7.6-.9,1-.2.4-.3,1-.3,1.5v5.2h-1.5v-5.7c0-.8-.1-1.5-.4-1.9-.3-.4-.8-.6-1.5-.6s-.9.1-1.3.4-.6.6-.8,1-.3,1-.3,1.5v5.2h-1.5Z"/>
      <path class="st2" d="M201.7,73.1c-1,0-1.8-.2-2.5-.6-.7-.4-1.2-.9-1.6-1.6s-.6-1.6-.6-2.5.2-1.8.6-2.5c.4-.7.9-1.3,1.6-1.7.7-.4,1.4-.6,2.3-.6s1.6.2,2.1.5c.6.4,1.1.9,1.4,1.6s.5,1.5.5,2.4v.6h-7.3v-1h6.2l-.3.2c0-1-.2-1.8-.7-2.4s-1.1-.8-2-.8-1.2.1-1.6.4c-.5.3-.8.7-1,1.2-.2.5-.3,1.1-.3,1.8h0c0,.9.1,1.5.4,2.1s.6.9,1.1,1.2c.5.3,1.1.4,1.8.4s1.1,0,1.6-.3,1-.5,1.5-.8l.5,1.1c-.4.4-.9.7-1.6.9-.6.2-1.3.3-2,.3Z"/>
      <path class="st2" d="M215.6,73.1c-.9,0-1.7-.1-2.3-.4-.6-.3-1.1-.7-1.5-1.2-.3-.5-.5-1.1-.5-1.8s.1-1.1.3-1.5c.2-.5.5-.9.9-1.3.4-.4.9-.8,1.6-1.2l.6-.4-.2.3c-.6-.7-1-1.2-1.3-1.7-.2-.5-.4-1-.4-1.5s.1-1.1.4-1.5c.3-.4.6-.8,1.1-1,.5-.2,1.1-.4,1.7-.4s1.1.1,1.6.3c.4.2.8.5,1.1.9s.4.9.4,1.4,0,.9-.3,1.3c-.2.4-.5.8-.9,1.2-.4.4-1,.8-1.7,1.3v-.4s3.6,4,3.6,4h-.3c.3-.5.5-1.2.7-1.9.2-.8.3-1.6.3-2.4h1.3c0,1-.2,2-.4,2.9-.3.9-.6,1.7-1.1,2.4v-.5s2.7,3,2.7,3h-1.9l-1.7-1.9h.4c-.5.7-1.2,1.2-1.9,1.5-.7.4-1.6.6-2.4.6ZM215.7,71.8c.7,0,1.4-.2,1.9-.5s1.1-.7,1.5-1.3v.5s-4-4.4-4-4.4h.6c0,0-.6.4-.6.4-.5.4-1,.7-1.3,1s-.6.6-.7,1c-.1.3-.2.7-.2,1.1,0,.7.2,1.2.7,1.6.5.4,1.2.6,2.1.6ZM216.2,60.5c-.5,0-1,.2-1.3.5s-.5.7-.5,1.3,0,.5.1.8c0,.2.2.5.4.8.2.3.5.6.9,1.1h-.4c.6-.4,1.1-.7,1.4-1,.4-.3.6-.6.8-.9.2-.3.2-.6.2-.9,0-.5-.2-.9-.5-1.2-.3-.3-.7-.4-1.2-.4Z"/>
      <path class="st2" d="M234.5,73.1c-.9,0-1.8-.2-2.5-.5s-1.4-.8-1.9-1.4c-.5-.6-.9-1.3-1.2-2.2-.3-.8-.4-1.8-.4-2.8s.1-2,.4-2.9.7-1.6,1.2-2.1c.5-.6,1.2-1,1.9-1.4.8-.3,1.6-.5,2.5-.5s1.8.2,2.6.5c.8.3,1.4.8,1.9,1.4.5.6.9,1.3,1.2,2.2s.4,1.8.4,2.8-.1,2-.4,2.9c-.3.8-.7,1.6-1.2,2.2-.5.6-1.2,1.1-1.9,1.4-.8.3-1.6.5-2.6.5ZM234.5,71.7c1,0,1.8-.2,2.4-.6.7-.4,1.2-1.1,1.5-1.9.4-.8.5-1.8.5-3s-.2-2.1-.5-3c-.4-.8-.9-1.4-1.5-1.9s-1.5-.6-2.4-.6-1.7.2-2.4.6c-.7.4-1.2,1.1-1.5,1.9s-.5,1.8-.5,2.9.2,2.1.5,2.9.9,1.4,1.5,1.9c.7.4,1.5.7,2.4.7Z"/>
      <path class="st2" d="M242.8,76.3v-12.6h1.5v2.2h-.2c.2-.7.6-1.3,1.2-1.7s1.3-.6,2.2-.6,1.5.2,2.2.6c.6.4,1.1.9,1.4,1.7.3.7.5,1.6.5,2.6s-.2,1.8-.5,2.5c-.3.7-.8,1.3-1.4,1.7-.6.4-1.3.6-2.2.6s-1.6-.2-2.1-.6c-.6-.4-1-1-1.2-1.7h.2v5.6h-1.5ZM247.1,71.8c.9,0,1.6-.3,2.1-.9s.8-1.5.8-2.6-.3-2-.8-2.6c-.5-.6-1.2-.9-2.1-.9s-1.6.3-2.1.9c-.5.6-.8,1.5-.8,2.6s.3,2,.8,2.6c.5.6,1.2.9,2.1.9Z"/>
      <path class="st2" d="M257,73.1c-1.1,0-1.9-.3-2.5-.9-.5-.6-.8-1.4-.8-2.5v-4.8h-1.8v-1.2h1.8v-2.8h1.5v2.8h2.9v1.2h-2.9v4.7c0,.7.2,1.3.5,1.6.3.4.8.6,1.5.6s.4,0,.6,0c.2,0,.4-.1.6-.2l.3,1.2c-.2,0-.4.2-.7.2s-.6.1-.9.1Z"/>
      <path class="st2" d="M259.4,61.4v-1.7h1.9v1.7h-1.9ZM259.6,72.9v-9.2h1.5v9.2h-1.5Z"/>
      <path class="st2" d="M263.4,72.9v-9.2h1.5v2h-.2c.2-.5.4-.9.7-1.2.3-.3.7-.6,1.1-.8s.9-.3,1.4-.3c.8,0,1.4.2,1.9.6s.8,1,1,1.7h-.3c.2-.7.6-1.3,1.2-1.7.6-.4,1.3-.6,2.1-.6s1.3.1,1.7.4.8.7,1,1.2c.2.5.3,1.2.3,2v5.7h-1.5v-5.7c0-.8-.1-1.5-.4-1.9s-.8-.6-1.5-.6-.9.1-1.3.4c-.4.2-.7.6-.9,1-.2.4-.3,1-.3,1.5v5.2h-1.5v-5.7c0-.8-.1-1.5-.4-1.9-.3-.4-.8-.6-1.5-.6s-.9.1-1.3.4-.6.6-.8,1-.3,1-.3,1.5v5.2h-1.5Z"/>
      <path class="st2" d="M278.7,61.4v-1.7h1.9v1.7h-1.9ZM278.9,72.9v-9.2h1.5v9.2h-1.5Z"/>
      <path class="st2" d="M286.8,73.1c-1,0-1.8-.2-2.5-.6-.7-.4-1.2-.9-1.6-1.6s-.6-1.6-.6-2.5.2-1.8.6-2.5c.4-.7.9-1.3,1.6-1.7.7-.4,1.4-.6,2.3-.6s1.6.2,2.1.5c.6.4,1.1.9,1.4,1.6s.5,1.5.5,2.4v.6h-7.3v-1h6.2l-.3.2c0-1-.2-1.8-.7-2.4s-1.1-.8-2-.8-1.2.1-1.6.4c-.5.3-.8.7-1,1.2-.2.5-.3,1.1-.3,1.8h0c0,.9.1,1.5.4,2.1s.6.9,1.1,1.2c.5.3,1.1.4,1.8.4s1.1,0,1.6-.3,1-.5,1.5-.8l.5,1.1c-.4.4-.9.7-1.6.9-.6.2-1.3.3-2,.3Z"/>
      <path class="st2" d="M292.2,72.9v-9.2h1.5v2.2h-.2c.2-.7.6-1.3,1.1-1.7.5-.4,1.2-.6,2.1-.7h.6c0,0,.1,1.3.1,1.3h-1c-.9.2-1.5.5-2,.9-.5.5-.7,1.1-.7,1.9v5.3h-1.6Z"/>
      <path class="st2" d="M301.9,73.1c-.7,0-1.4-.1-1.9-.4s-.9-.7-1.1-1.2c-.2-.5-.4-1.2-.4-2v-5.7h1.5v5.7c0,.5,0,1,.2,1.4s.4.6.7.8.7.3,1.2.3,1-.1,1.4-.4.7-.6.9-1c.2-.4.3-.9.3-1.5v-5.2h1.5v9.2h-1.5v-2.1h.2c-.3.7-.7,1.3-1.2,1.7-.6.4-1.2.6-2,.6Z"/>
      <path class="st2" d="M308.6,72.9v-9.2h1.5v2h-.2c.3-.7.7-1.3,1.3-1.7s1.3-.6,2.1-.6,1.3.1,1.8.4.9.7,1.1,1.2c.2.5.4,1.2.4,2v5.7h-1.5v-5.7c0-.6,0-1-.2-1.4-.1-.4-.4-.6-.7-.8-.3-.2-.7-.3-1.2-.3s-1,.1-1.5.4c-.4.2-.7.6-1,1-.2.4-.3.9-.3,1.5v5.3h-1.5Z"/>
      <path class="st2" d="M322.9,76.5c-.8,0-1.5-.1-2.3-.3-.7-.2-1.3-.5-1.9-.9l.5-1.1c.4.3.8.5,1.1.7.4.2.8.3,1.2.4.4,0,.8.1,1.2.1.9,0,1.6-.2,2-.7.5-.5.7-1.2.7-2.1v-2.1h.2c-.2.7-.6,1.3-1.2,1.7s-1.3.6-2.2.6-1.6-.2-2.2-.6-1.1-.9-1.4-1.6c-.3-.7-.5-1.5-.5-2.4s.2-1.7.5-2.4c.3-.7.8-1.2,1.4-1.6.6-.4,1.4-.6,2.2-.6s1.6.2,2.2.6c.6.4,1,1,1.2,1.7h-.2v-2.2h1.5v8.6c0,.9-.2,1.7-.5,2.4-.3.6-.8,1.1-1.4,1.4-.6.3-1.4.5-2.3.5ZM322.6,71.4c.9,0,1.6-.3,2.1-.9.5-.6.8-1.4.8-2.4s-.3-1.8-.8-2.4-1.2-.9-2.1-.9-1.6.3-2.1.9c-.5.6-.8,1.4-.8,2.4s.3,1.8.8,2.4c.5.6,1.2.9,2.1.9Z"/>
    </g>
  </g>
</svg>