<?xml version="1.0" encoding="UTF-8"?>
<svg id="Ebene_1" xmlns="http://www.w3.org/2000/svg" version="1.1" viewBox="0 0 327 84.7">
  <!-- Generator: Adobe Illustrator 30.1.0, SVG Export Plug-In . SVG Version: 2.1.1 Build 136)  -->
  <defs>
    <style>
      .st0 {
        fill: #4d7b9b;
      }

      .st1 {
        fill: #97a868;
      }

      .st2 {
        fill: #868686;
      }
    </style>
  </defs>
  <path class="st1" d="M44.3,52.8l18.6-23.5C75.1,14.5,53.3,1.3,38.4.2,24.5-.9,12.2,2.6,12.2,15.2c0,20,41.4,6,32.1,37.6Z"/>
  <path class="st0" d="M22.7,31.7L3.7,54.9c-12.4,14.5,9.1,28.2,24.1,29.6,13.8,1.3,26.2-1.9,26.5-14.5.4-20-41.3-6.7-31.5-38.2Z"/>
  <g>
    <path class="st2" d="M146.6,29.7v2.9c0,1.1-.9,2-2,2h-12v5.7h9.6v4.5h-9.6v6.5h12.3c1.1,0,2,.9,2,2v2.9h-17.8c-1.3,0-2.3-1-2.3-2.3v-21.8c0-1.3,1-2.3,2.3-2.3h17.5Z"/>
    <path class="st2" d="M276.5,29.7v2.9c0,1.1-.9,2-2,2h-12v5.7h9.6v4.5h-9.6v6.5h12.3c1.1,0,2,.9,2,2v2.9h-17.8c-1.3,0-2.3-1-2.3-2.3v-21.8c0-1.3,1-2.3,2.3-2.3h17.5Z"/>
    <path class="st2" d="M164.2,29.7l11,17.7h0v-17.7h3.3c1.2,0,2.1.9,2.1,2.1v22.3c0,1.1-.9,2.1-2.1,2.1h-3.8l-11-17.7h0v17.7h-5.4v-24.4c0-1.1.9-2.1,2.1-2.1h3.7Z"/>
    <path class="st2" d="M212.7,54.1c-2,1.7-4.8,2.6-8.3,2.6s-6.4-.9-8.3-2.6c-2-1.7-2.9-4.4-2.9-8v-16.5h3.3c1.4,0,2.5,1.1,2.5,2.5v13.9c0,.7,0,1.4.2,2.1.1.7.4,1.3.8,1.8.4.5.9,1,1.6,1.3.7.3,1.6.5,2.8.5,2.1,0,3.5-.5,4.3-1.4.8-.9,1.2-2.4,1.2-4.4v-16.5h3.3c1.4,0,2.5,1.1,2.5,2.5v13.9c0,3.6-1,6.2-3,8Z"/>
    <path class="st2" d="M233.9,32.2v19h10.4c1.4,0,2.5,1.1,2.5,2.5v2.4h-18.7v-26.5h3.3c1.4,0,2.5,1.1,2.5,2.5Z"/>
    <path class="st2" d="M292.8,49.6c.3.6.7,1.1,1.3,1.5.5.4,1.2.7,1.9.9.7.2,1.5.3,2.2.3s1.1,0,1.7-.1c.6,0,1.1-.3,1.7-.5.5-.2,1-.6,1.3-1,.3-.4.5-1,.5-1.6s-.2-1.3-.7-1.7c-.5-.4-1.1-.8-1.8-1.1-.7-.3-1.6-.6-2.5-.8-.9-.2-1.9-.5-2.9-.7-1-.2-2-.5-2.9-.9-.9-.4-1.8-.8-2.5-1.4-.7-.6-1.3-1.3-1.8-2.1-.5-.9-.7-1.9-.7-3.1s.3-2.5.9-3.5c.6-1,1.3-1.8,2.3-2.5.9-.7,2-1.2,3.2-1.5,1.2-.3,2.4-.5,3.6-.5s2.7.2,4,.5,2.4.8,3.4,1.5c1,.7,1.8,1.6,2.4,2.6.3.5.5,1,.6,1.5.3,1.2-.7,2.4-1.9,2.4h-3.5c0-.8-.2-1.4-.5-2s-.7-.9-1.1-1.2c-.5-.3-1-.5-1.6-.6-.6-.1-1.3-.2-2-.2s-.9,0-1.4.1c-.5,0-.9.3-1.3.5-.4.2-.7.6-.9.9-.2.4-.4.8-.4,1.4s0,.9.3,1.3c.2.3.6.6,1.2.9.6.3,1.4.5,2.4.8,1,.3,2.4.6,4,1,.5,0,1.2.3,2.1.5.9.3,1.7.7,2.6,1.2.9.6,1.6,1.3,2.2,2.3.6,1,.9,2.2.9,3.6s-.2,2.3-.7,3.4c-.5,1-1.2,1.9-2.1,2.7-.9.8-2.1,1.3-3.4,1.8s-3,.6-4.8.6-2.9-.2-4.2-.5c-1.4-.4-2.6-.9-3.6-1.7-1-.8-1.9-1.7-2.5-2.9-.2-.3-.3-.7-.4-1-.5-1.6.6-3.2,2.3-3.2h2.9c0,.9.2,1.6.5,2.3Z"/>
    <path class="st2" d="M109.3,34.5h-13.1v-4.9h19.7c1.6,0,2.6,1.8,1.7,3.2l-12.3,18.4h12.3v4.9h-20.1c-1.2,0-2-1.4-1.3-2.4l13-19.1Z"/>
  </g>
</svg>