<?xml version="1.0" encoding="UTF-8"?>
<svg id="Ebene_1" xmlns="http://www.w3.org/2000/svg" version="1.1" viewBox="0 0 214.7 59.9">
  <!-- Generator: Adobe Illustrator 30.1.0, SVG Export Plug-In . SVG Version: 2.1.1 Build 136)  -->
  <defs>
    <style>
      .st0 {
        fill: #fff;
      }
    </style>
  </defs>
  <path class="st0" d="M31.8,37.4l12.7-16.1C52.9,11.2,38,2.1,27.8,1.4S9.9,3,9.9,11.6c0,13.7,28.3,4.1,22,25.7Z"/>
  <path class="st0" d="M17.1,23l-13,15.9c-8.5,10,6.2,19.3,16.5,20.2,9.5.9,17.9-1.3,18.1-9.9.2-13.7-28.2-4.6-21.5-26.1Z"/>
  <g>
    <path class="st0" d="M101.8,23.4v2c0,.8-.6,1.4-1.4,1.4h-8.2v3.9h6.6v3.1h-6.6v4.4h8.4c.8,0,1.4.6,1.4,1.4v2h-12.2c-.9,0-1.6-.7-1.6-1.6v-14.9c0-.9.7-1.6,1.6-1.6h12Z"/>
    <path class="st0" d="M190.7,23.4v2c0,.8-.6,1.4-1.4,1.4h-8.2v3.9h6.6v3.1h-6.6v4.4h8.4c.8,0,1.4.6,1.4,1.4v2h-12.2c-.9,0-1.6-.7-1.6-1.6v-14.9c0-.9.7-1.6,1.6-1.6h12Z"/>
    <path class="st0" d="M113.8,23.4l7.6,12.1h0v-12.1h2.3c.8,0,1.4.6,1.4,1.4v15.3c0,.8-.6,1.4-1.4,1.4h-2.6l-7.5-12.1h0v12.1h-3.7v-16.7c0-.8.6-1.4,1.4-1.4h2.5Z"/>
    <path class="st0" d="M147,40.1c-1.4,1.2-3.3,1.8-5.7,1.8s-4.3-.6-5.7-1.8c-1.3-1.2-2-3-2-5.5v-11.3h2.2c1,0,1.7.8,1.7,1.7v9.5c0,.5,0,1,.1,1.4,0,.5.3.9.5,1.3.3.4.6.7,1.1.9.5.2,1.1.3,1.9.3,1.4,0,2.4-.3,2.9-1s.8-1.6.8-3v-11.3h2.3c.9,0,1.7.8,1.7,1.7v9.5c0,2.5-.7,4.3-2.1,5.5Z"/>
    <path class="st0" d="M161.5,25.1v13h7.1c.9,0,1.7.8,1.7,1.7v1.6h-12.8v-18.1h2.2c1,0,1.7.8,1.7,1.7Z"/>
    <path class="st0" d="M201.8,37c.2.4.5.8.9,1,.4.3.8.5,1.3.6.5.1,1,.2,1.5.2s.7,0,1.1,0c.4,0,.8-.2,1.1-.3.4-.2.7-.4.9-.7.2-.3.4-.7.4-1.1s-.2-.9-.5-1.2c-.3-.3-.7-.6-1.2-.8-.5-.2-1.1-.4-1.7-.5s-1.3-.3-2-.5c-.7-.2-1.3-.4-2-.6-.6-.2-1.2-.6-1.7-1-.5-.4-.9-.9-1.2-1.5-.3-.6-.5-1.3-.5-2.1s.2-1.7.6-2.4.9-1.3,1.6-1.7c.6-.5,1.4-.8,2.2-1,.8-.2,1.6-.3,2.4-.3s1.9.1,2.7.3,1.6.6,2.3,1c.7.5,1.2,1.1,1.6,1.8.2.3.3.7.4,1.1.2.8-.4,1.6-1.3,1.6h-2.4c0-.5-.1-1-.3-1.3s-.5-.6-.8-.8c-.3-.2-.7-.3-1.1-.4-.4,0-.9-.1-1.4-.1s-.6,0-1,.1c-.3,0-.6.2-.9.4-.3.2-.5.4-.6.6-.2.3-.3.6-.3,1s0,.6.2.9c.1.2.4.4.8.6.4.2.9.4,1.6.6.7.2,1.6.4,2.8.7.3,0,.8.2,1.4.4.6.2,1.2.5,1.8.8.6.4,1.1.9,1.5,1.6.4.7.6,1.5.6,2.5s-.2,1.6-.5,2.3c-.3.7-.8,1.3-1.4,1.8-.6.5-1.4.9-2.4,1.2s-2,.4-3.3.4-2-.1-2.9-.4c-.9-.2-1.8-.6-2.5-1.2-.7-.5-1.3-1.2-1.7-2-.1-.2-.2-.5-.3-.7-.4-1.1.4-2.2,1.6-2.2h2c0,.6.1,1.1.3,1.5Z"/>
    <path class="st0" d="M76.3,26.7h-9v-3.3h13.5c1.1,0,1.8,1.2,1.2,2.2l-8.4,12.6h8.4v3.3h-13.8c-.9,0-1.4-1-.9-1.7l8.9-13.1Z"/>
  </g>
</svg>