<?xml version="1.0" encoding="utf-8"?>
<!-- Generator: Adobe Illustrator 30.1.0, SVG Export Plug-In . SVG Version: 9.03 Build 0)  -->
<svg version="1.0" id="Ebene_1" xmlns="http://www.w3.org/2000/svg" xmlns:xlink="http://www.w3.org/1999/xlink" x="0px" y="0px"
	 viewBox="0 0 129.2 117.3" style="enable-background:new 0 0 129.2 117.3;" xml:space="preserve">
<style type="text/css">
	.st0{fill:#2B4D9C;}
	.st1{fill:#FAEA27;}
	.st2{enable-background:new    ;}
</style>
<g>
	<path class="st0" d="M9,76.3h109.2V3.5H9V76.3z"/>
	<path class="st1" d="M61.3,19.4l2.3-1.7l2.3,1.7L65,16.6l2.3-1.7h-2.9l-0.9-2.8L62.7,15h-2.9l2.3,1.7L61.3,19.4 M49.3,22.6l2.3-1.7
		l2.3,1.7L53,19.9l2.3-1.7h-2.9l-0.9-2.8l-0.9,2.8h-2.9l2.3,1.7L49.3,22.6 M42.9,24.2L42,26.9h-2.9l2.3,1.7l-0.9,2.7l2.3-1.7
		l2.3,1.7l-0.9-2.7l2.3-1.7h-2.9L42.9,24.2 M39.7,41.6l2.3,1.7l-0.9-2.7l2.3-1.7h-2.9l-0.9-2.8l-0.9,2.8h-2.9l2.3,1.7l-0.9,2.7
		L39.7,41.6 M43.8,50.8L42.9,48L42,50.8h-2.9l2.3,1.7l-0.9,2.7l2.3-1.7l2.3,1.7l-0.9-2.7l2.3-1.7H43.8 M52.5,59.5l-0.9-2.8l-0.9,2.8
		h-2.9l2.3,1.7l-0.9,2.7l2.3-1.7l2.3,1.7l-0.9-2.7l2.3-1.7H52.5 M64.4,62.7l-0.9-2.8l-0.9,2.8h-2.9l2.3,1.7l-0.9,2.7l2.3-1.7
		l2.3,1.7L65,64.4l2.3-1.7H64.4 M76.4,59.5l-0.9-2.8l-0.9,2.8h-2.9l2.3,1.7l-0.9,2.7l2.3-1.7l2.3,1.7l-0.9-2.7l2.3-1.7H76.4
		 M85.1,50.8L84.2,48l-0.9,2.8h-2.9l2.3,1.7l-0.9,2.7l2.3-1.7l2.3,1.7l-0.9-2.7l2.3-1.7H85.1 M91.2,38.8h-2.9L87.4,36l-0.9,2.8h-2.9
		l2.3,1.7L85,43.2l2.3-1.7l2.3,1.7l-0.9-2.7L91.2,38.8 M81.9,31.3l2.3-1.7l2.3,1.7l-0.9-2.7l2.3-1.7H85l-0.9-2.8l-0.9,2.8h-2.9
		l2.3,1.7L81.9,31.3 M75.5,15.4l-0.9,2.8h-2.9l2.3,1.7l-0.9,2.7l2.3-1.7l2.3,1.7l-0.9-2.7l2.3-1.7h-2.9L75.5,15.4"/>
	<g class="st2">
		<path class="st0" d="M4.2,96.5v-8.9H6v4l3.6-4h2.4l-3.4,3.5l3.5,5.5H9.9l-2.5-4.2L6,93.8v2.7H4.2z"/>
		<path class="st0" d="M12.8,93.2c0-0.6,0.1-1.1,0.4-1.6c0.3-0.5,0.7-0.9,1.2-1.2c0.5-0.3,1.1-0.4,1.7-0.4c1,0,1.8,0.3,2.4,1
			c0.6,0.6,0.9,1.4,0.9,2.4c0,1-0.3,1.8-0.9,2.4c-0.6,0.6-1.4,1-2.4,1c-0.6,0-1.2-0.1-1.7-0.4c-0.5-0.3-0.9-0.7-1.2-1.2
			S12.8,94,12.8,93.2z M14.5,93.3c0,0.6,0.2,1.1,0.5,1.5c0.3,0.3,0.7,0.5,1.1,0.5c0.4,0,0.8-0.2,1.1-0.5c0.3-0.3,0.5-0.8,0.5-1.5
			c0-0.6-0.2-1.1-0.5-1.5c-0.3-0.3-0.7-0.5-1.1-0.5c-0.4,0-0.8,0.2-1.1,0.5C14.7,92.2,14.5,92.7,14.5,93.3z"/>
		<path class="st0" d="M20,90.1h1v-0.5c0-0.5,0.1-1,0.2-1.2s0.3-0.5,0.6-0.7c0.3-0.2,0.7-0.3,1.2-0.3c0.5,0,1,0.1,1.4,0.2l-0.2,1.2
			c-0.3-0.1-0.5-0.1-0.8-0.1c-0.2,0-0.4,0.1-0.5,0.2c-0.1,0.1-0.2,0.3-0.2,0.7v0.5H24v1.3h-1.3v5.1H21v-5.1h-1V90.1z"/>
		<path class="st0" d="M25,89.2v-1.6h1.7v1.6H25z M25,96.5v-6.5h1.7v6.5H25z"/>
		<path class="st0" d="M34.3,96.5h-1.7v-3.3c0-0.7,0-1.1-0.1-1.4c-0.1-0.2-0.2-0.4-0.4-0.5c-0.2-0.1-0.4-0.2-0.6-0.2
			c-0.3,0-0.6,0.1-0.8,0.2c-0.2,0.2-0.4,0.4-0.5,0.6c-0.1,0.3-0.1,0.8-0.1,1.5v2.9h-1.7v-6.5H30v1c0.6-0.7,1.3-1.1,2.1-1.1
			c0.4,0,0.7,0.1,1,0.2c0.3,0.1,0.5,0.3,0.7,0.5c0.2,0.2,0.3,0.5,0.3,0.7c0.1,0.3,0.1,0.7,0.1,1.2V96.5z"/>
		<path class="st0" d="M37.3,92l-1.6-0.3c0.2-0.6,0.5-1.1,0.9-1.4c0.4-0.3,1.1-0.5,1.9-0.5c0.8,0,1.3,0.1,1.7,0.3s0.6,0.4,0.8,0.7
			c0.2,0.3,0.2,0.8,0.2,1.5l0,2c0,0.6,0,1,0.1,1.3c0.1,0.3,0.2,0.6,0.3,0.9H40c0-0.1-0.1-0.3-0.2-0.5c0-0.1,0-0.2-0.1-0.2
			c-0.3,0.3-0.6,0.5-0.9,0.6c-0.3,0.1-0.7,0.2-1.1,0.2c-0.7,0-1.2-0.2-1.6-0.5s-0.6-0.8-0.6-1.4c0-0.4,0.1-0.7,0.3-1
			c0.2-0.3,0.4-0.5,0.7-0.7c0.3-0.2,0.8-0.3,1.4-0.4c0.8-0.2,1.4-0.3,1.7-0.4v-0.2c0-0.3-0.1-0.6-0.2-0.7c-0.2-0.1-0.5-0.2-0.9-0.2
			c-0.3,0-0.5,0.1-0.7,0.2S37.4,91.7,37.3,92z M39.6,93.4c-0.2,0.1-0.6,0.2-1,0.3c-0.5,0.1-0.8,0.2-0.9,0.3
			c-0.2,0.2-0.3,0.4-0.3,0.6c0,0.2,0.1,0.4,0.3,0.6s0.4,0.3,0.7,0.3c0.3,0,0.6-0.1,0.9-0.3c0.2-0.2,0.3-0.3,0.4-0.6
			c0-0.1,0.1-0.4,0.1-0.8V93.4z"/>
		<path class="st0" d="M48.9,96.5h-1.7v-3.3c0-0.7,0-1.1-0.1-1.4c-0.1-0.2-0.2-0.4-0.4-0.5c-0.2-0.1-0.4-0.2-0.6-0.2
			c-0.3,0-0.6,0.1-0.8,0.2c-0.2,0.2-0.4,0.4-0.5,0.6c-0.1,0.3-0.1,0.8-0.1,1.5v2.9H43v-6.5h1.6v1c0.6-0.7,1.3-1.1,2.1-1.1
			c0.4,0,0.7,0.1,1,0.2c0.3,0.1,0.5,0.3,0.7,0.5c0.2,0.2,0.3,0.5,0.3,0.7c0.1,0.3,0.1,0.7,0.1,1.2V96.5z"/>
		<path class="st0" d="M49.9,96.5v-1.3l2.4-2.8c0.4-0.5,0.7-0.8,0.9-1c-0.2,0-0.5,0-0.8,0l-2.3,0v-1.4h5.3v1.2L53,94.1l-0.9,0.9
			c0.5,0,0.8,0,0.9,0h2.6v1.5H49.9z"/>
		<path class="st0" d="M56.8,89.2v-1.6h1.7v1.6H56.8z M56.8,96.5v-6.5h1.7v6.5H56.8z"/>
		<path class="st0" d="M64,94.5l1.7,0.3c-0.2,0.6-0.6,1.1-1,1.4c-0.5,0.3-1.1,0.5-1.8,0.5c-1.1,0-2-0.4-2.5-1.1
			c-0.4-0.6-0.6-1.3-0.6-2.2c0-1.1,0.3-1.9,0.8-2.5c0.6-0.6,1.3-0.9,2.1-0.9c1,0,1.7,0.3,2.3,1c0.6,0.6,0.8,1.6,0.8,2.9h-4.3
			c0,0.5,0.2,0.9,0.4,1.2c0.3,0.3,0.6,0.4,1,0.4c0.3,0,0.5-0.1,0.7-0.2C63.8,95,63.9,94.8,64,94.5z M64.1,92.7
			c0-0.5-0.1-0.9-0.4-1.1c-0.2-0.3-0.5-0.4-0.9-0.4c-0.4,0-0.7,0.1-0.9,0.4c-0.2,0.3-0.4,0.6-0.4,1.1H64.1z"/>
		<path class="st0" d="M68.9,96.5h-1.7v-6.5h1.6V91c0.3-0.4,0.5-0.7,0.7-0.9c0.2-0.1,0.5-0.2,0.7-0.2c0.4,0,0.8,0.1,1.1,0.3
			l-0.5,1.5c-0.3-0.2-0.6-0.3-0.8-0.3c-0.2,0-0.4,0.1-0.6,0.2c-0.2,0.1-0.3,0.4-0.4,0.7c-0.1,0.3-0.1,1.1-0.1,2.2V96.5z"/>
		<path class="st0" d="M75,90.1v1.4h-1.2V94c0,0.5,0,0.8,0,0.9c0,0.1,0.1,0.2,0.2,0.2c0.1,0.1,0.2,0.1,0.3,0.1
			c0.2,0,0.4-0.1,0.7-0.2l0.1,1.3c-0.4,0.2-0.8,0.3-1.4,0.3c-0.3,0-0.6-0.1-0.8-0.2c-0.2-0.1-0.4-0.2-0.5-0.4
			c-0.1-0.2-0.2-0.4-0.2-0.7c0-0.2-0.1-0.6-0.1-1.2v-2.8h-0.8v-1.4h0.8v-1.3l1.7-1v2.3H75z"/>
		<path class="st0" d="M81.5,96.5l-2.6-6.5h1.8l1.2,3.3l0.4,1.1c0.1-0.3,0.2-0.5,0.2-0.6c0.1-0.2,0.1-0.4,0.2-0.5l1.2-3.3h1.8
			L83,96.5H81.5z"/>
		<path class="st0" d="M86.2,93.2c0-0.6,0.1-1.1,0.4-1.6c0.3-0.5,0.7-0.9,1.2-1.2c0.5-0.3,1.1-0.4,1.7-0.4c1,0,1.8,0.3,2.4,1
			c0.6,0.6,0.9,1.4,0.9,2.4c0,1-0.3,1.8-0.9,2.4c-0.6,0.6-1.4,1-2.4,1c-0.6,0-1.2-0.1-1.7-0.4c-0.5-0.3-0.9-0.7-1.2-1.2
			S86.2,94,86.2,93.2z M88,93.3c0,0.6,0.2,1.1,0.5,1.5c0.3,0.3,0.7,0.5,1.1,0.5s0.8-0.2,1.1-0.5c0.3-0.3,0.5-0.8,0.5-1.5
			c0-0.6-0.2-1.1-0.5-1.5c-0.3-0.3-0.7-0.5-1.1-0.5s-0.8,0.2-1.1,0.5C88.1,92.2,88,92.7,88,93.3z"/>
		<path class="st0" d="M100.1,96.5h-1.7v-3.3c0-0.7,0-1.1-0.1-1.4s-0.2-0.4-0.4-0.5c-0.2-0.1-0.4-0.2-0.6-0.2
			c-0.3,0-0.6,0.1-0.8,0.2c-0.2,0.2-0.4,0.4-0.5,0.6c-0.1,0.3-0.1,0.8-0.1,1.5v2.9h-1.7v-6.5h1.6v1c0.6-0.7,1.3-1.1,2.1-1.1
			c0.4,0,0.7,0.1,1,0.2c0.3,0.1,0.5,0.3,0.7,0.5c0.2,0.2,0.3,0.5,0.3,0.7c0.1,0.3,0.1,0.7,0.1,1.2V96.5z"/>
		<path class="st0" d="M111.3,96.5h-1.6v-1c-0.3,0.4-0.6,0.6-0.9,0.8s-0.7,0.3-1.1,0.3c-0.7,0-1.4-0.3-1.9-0.9
			c-0.5-0.6-0.8-1.4-0.8-2.5c0-1.1,0.3-1.9,0.8-2.5c0.5-0.6,1.2-0.9,2-0.9c0.7,0,1.3,0.3,1.9,0.9v-3.2h1.7V96.5z M106.7,93.2
			c0,0.7,0.1,1.2,0.3,1.5c0.3,0.4,0.7,0.7,1.2,0.7c0.4,0,0.7-0.2,1-0.5c0.3-0.3,0.4-0.8,0.4-1.5c0-0.7-0.1-1.3-0.4-1.6
			c-0.3-0.3-0.6-0.5-1-0.5c-0.4,0-0.7,0.2-1,0.5C106.8,92,106.7,92.5,106.7,93.2z"/>
		<path class="st0" d="M116.7,94.5l1.7,0.3c-0.2,0.6-0.6,1.1-1,1.4c-0.5,0.3-1.1,0.5-1.8,0.5c-1.1,0-2-0.4-2.5-1.1
			c-0.4-0.6-0.6-1.3-0.6-2.2c0-1.1,0.3-1.9,0.8-2.5c0.6-0.6,1.3-0.9,2.1-0.9c1,0,1.7,0.3,2.3,1c0.6,0.6,0.8,1.6,0.8,2.9h-4.3
			c0,0.5,0.2,0.9,0.4,1.2c0.3,0.3,0.6,0.4,1,0.4c0.3,0,0.5-0.1,0.7-0.2C116.5,95,116.6,94.8,116.7,94.5z M116.8,92.7
			c0-0.5-0.1-0.9-0.4-1.1c-0.2-0.3-0.5-0.4-0.9-0.4c-0.4,0-0.7,0.1-0.9,0.4c-0.2,0.3-0.4,0.6-0.4,1.1H116.8z"/>
		<path class="st0" d="M121.5,96.5h-1.7v-6.5h1.6V91c0.3-0.4,0.5-0.7,0.7-0.9c0.2-0.1,0.5-0.2,0.7-0.2c0.4,0,0.8,0.1,1.1,0.3
			l-0.5,1.5c-0.3-0.2-0.6-0.3-0.8-0.3c-0.2,0-0.4,0.1-0.6,0.2c-0.2,0.1-0.3,0.4-0.4,0.7c-0.1,0.3-0.1,1.1-0.1,2.2V96.5z"/>
	</g>
	<g class="st2">
		<path class="st0" d="M3.9,111.5v-8.9h6.6v1.5H5.7v2h4.5v1.5H5.7v2.4h5v1.5H3.9z"/>
		<path class="st0" d="M16.4,111.5v-1c-0.2,0.3-0.5,0.6-0.9,0.8c-0.4,0.2-0.8,0.3-1.2,0.3c-0.4,0-0.8-0.1-1.2-0.3
			c-0.3-0.2-0.6-0.5-0.7-0.8c-0.2-0.3-0.2-0.8-0.2-1.4v-4.1h1.7v3c0,0.9,0,1.5,0.1,1.7c0.1,0.2,0.2,0.4,0.3,0.5
			c0.2,0.1,0.4,0.2,0.6,0.2c0.3,0,0.6-0.1,0.8-0.2s0.4-0.4,0.5-0.6s0.1-0.8,0.1-1.7v-2.7H18v6.5H16.4z"/>
		<path class="st0" d="M21.4,111.5h-1.7v-6.5h1.6v0.9c0.3-0.4,0.5-0.7,0.7-0.9c0.2-0.1,0.5-0.2,0.7-0.2c0.4,0,0.8,0.1,1.1,0.3
			l-0.5,1.5c-0.3-0.2-0.6-0.3-0.8-0.3c-0.2,0-0.4,0.1-0.6,0.2s-0.3,0.4-0.4,0.7c-0.1,0.3-0.1,1.1-0.1,2.2V111.5z"/>
		<path class="st0" d="M24.3,108.2c0-0.6,0.1-1.1,0.4-1.6c0.3-0.5,0.7-0.9,1.2-1.2c0.5-0.3,1.1-0.4,1.7-0.4c1,0,1.8,0.3,2.4,1
			c0.6,0.6,0.9,1.4,0.9,2.4c0,1-0.3,1.8-0.9,2.4c-0.6,0.6-1.4,1-2.4,1c-0.6,0-1.2-0.1-1.7-0.4c-0.5-0.3-0.9-0.7-1.2-1.2
			S24.3,109,24.3,108.2z M26,108.3c0,0.6,0.2,1.1,0.5,1.5c0.3,0.3,0.7,0.5,1.1,0.5c0.4,0,0.8-0.2,1.1-0.5c0.3-0.3,0.5-0.8,0.5-1.5
			c0-0.6-0.2-1.1-0.5-1.5c-0.3-0.3-0.7-0.5-1.1-0.5c-0.4,0-0.8,0.2-1.1,0.5C26.2,107.2,26,107.7,26,108.3z"/>
		<path class="st0" d="M32.2,105.1h1.6v1c0.2-0.3,0.5-0.6,0.8-0.8c0.4-0.2,0.7-0.3,1.2-0.3c0.8,0,1.4,0.3,1.9,0.9
			c0.5,0.6,0.8,1.4,0.8,2.5c0,1.1-0.3,1.9-0.8,2.5s-1.2,0.9-1.9,0.9c-0.4,0-0.7-0.1-1-0.2c-0.3-0.1-0.6-0.4-0.9-0.7v3.3h-1.7V105.1z
			 M33.9,108.2c0,0.7,0.1,1.3,0.4,1.6c0.3,0.3,0.6,0.5,1.1,0.5c0.4,0,0.7-0.2,1-0.5c0.3-0.3,0.4-0.8,0.4-1.6c0-0.7-0.1-1.2-0.4-1.5
			c-0.3-0.3-0.6-0.5-1-0.5c-0.4,0-0.8,0.2-1,0.5C34.1,107.1,33.9,107.6,33.9,108.2z"/>
		<path class="st0" d="M41.2,107l-1.6-0.3c0.2-0.6,0.5-1.1,0.9-1.4c0.4-0.3,1.1-0.5,1.9-0.5c0.8,0,1.3,0.1,1.7,0.3s0.6,0.4,0.8,0.7
			c0.2,0.3,0.2,0.8,0.2,1.5l0,2c0,0.6,0,1,0.1,1.3c0.1,0.3,0.2,0.6,0.3,0.9h-1.7c0-0.1-0.1-0.3-0.2-0.5c0-0.1,0-0.2-0.1-0.2
			c-0.3,0.3-0.6,0.5-0.9,0.6c-0.3,0.1-0.7,0.2-1.1,0.2c-0.7,0-1.2-0.2-1.6-0.5s-0.6-0.8-0.6-1.4c0-0.4,0.1-0.7,0.3-1
			c0.2-0.3,0.4-0.5,0.7-0.7c0.3-0.2,0.8-0.3,1.4-0.4c0.8-0.2,1.4-0.3,1.7-0.4v-0.2c0-0.3-0.1-0.6-0.2-0.7c-0.2-0.1-0.5-0.2-0.9-0.2
			c-0.3,0-0.5,0.1-0.7,0.2S41.3,106.7,41.2,107z M40.4,103.9v-1.5h1.5v1.5H40.4z M43.5,108.4c-0.2,0.1-0.6,0.2-1,0.3
			c-0.5,0.1-0.8,0.2-0.9,0.3c-0.2,0.2-0.3,0.4-0.3,0.6c0,0.2,0.1,0.4,0.3,0.6s0.4,0.3,0.7,0.3c0.3,0,0.6-0.1,0.9-0.3
			c0.2-0.2,0.3-0.3,0.4-0.6c0-0.1,0.1-0.4,0.1-0.8V108.4z M43.1,103.9v-1.5h1.5v1.5H43.1z"/>
		<path class="st0" d="M46.8,104.2v-1.6h1.7v1.6H46.8z M46.8,111.5v-6.5h1.7v6.5H46.8z"/>
		<path class="st0" d="M49.7,109.7l1.7-0.3c0.1,0.3,0.2,0.6,0.4,0.8c0.2,0.2,0.5,0.3,0.9,0.3c0.4,0,0.8-0.1,1-0.2
			c0.2-0.1,0.2-0.3,0.2-0.5c0-0.1,0-0.2-0.1-0.3c-0.1-0.1-0.3-0.2-0.6-0.2c-1.4-0.3-2.3-0.6-2.6-0.8c-0.5-0.3-0.8-0.8-0.8-1.5
			c0-0.6,0.2-1,0.7-1.4c0.4-0.4,1.1-0.6,2.1-0.6c0.9,0,1.5,0.1,2,0.4s0.7,0.7,0.9,1.3l-1.6,0.3c-0.1-0.3-0.2-0.4-0.4-0.6
			c-0.2-0.1-0.5-0.2-0.8-0.2c-0.5,0-0.8,0.1-1,0.2c-0.1,0.1-0.2,0.2-0.2,0.3c0,0.1,0.1,0.2,0.2,0.3c0.2,0.1,0.7,0.3,1.6,0.5
			c0.9,0.2,1.5,0.5,1.9,0.8c0.4,0.3,0.5,0.7,0.5,1.3c0,0.6-0.2,1.1-0.7,1.5c-0.5,0.4-1.2,0.6-2.2,0.6c-0.9,0-1.6-0.2-2.1-0.5
			C50.2,110.8,49.9,110.3,49.7,109.7z"/>
		<path class="st0" d="M62.9,107l-1.7,0.3c-0.1-0.3-0.2-0.6-0.4-0.8c-0.2-0.2-0.5-0.3-0.8-0.3c-0.4,0-0.8,0.1-1,0.4
			c-0.3,0.3-0.4,0.8-0.4,1.5c0,0.8,0.1,1.3,0.4,1.6c0.3,0.3,0.6,0.5,1,0.5c0.3,0,0.6-0.1,0.8-0.3s0.4-0.5,0.4-1l1.7,0.3
			c-0.2,0.8-0.5,1.4-1,1.7s-1.2,0.6-2,0.6c-0.9,0-1.7-0.3-2.3-0.9c-0.6-0.6-0.8-1.4-0.8-2.5c0-1.1,0.3-1.9,0.8-2.5
			c0.6-0.6,1.3-0.9,2.3-0.9c0.8,0,1.4,0.2,1.9,0.5S62.7,106.3,62.9,107z"/>
		<path class="st0" d="M65.9,102.6v3.3c0.6-0.6,1.2-1,2-1c0.4,0,0.7,0.1,1.1,0.2c0.3,0.1,0.6,0.3,0.7,0.6c0.2,0.2,0.3,0.5,0.3,0.8
			c0.1,0.3,0.1,0.7,0.1,1.3v3.8h-1.7v-3.4c0-0.7,0-1.1-0.1-1.3c-0.1-0.2-0.2-0.3-0.3-0.4s-0.4-0.2-0.6-0.2c-0.3,0-0.5,0.1-0.8,0.2
			c-0.2,0.1-0.4,0.3-0.5,0.6c-0.1,0.3-0.2,0.7-0.2,1.2v3.2h-1.7v-8.9H65.9z"/>
		<path class="st0" d="M75.5,109.5l1.7,0.3c-0.2,0.6-0.6,1.1-1,1.4c-0.5,0.3-1.1,0.5-1.8,0.5c-1.1,0-2-0.4-2.5-1.1
			c-0.4-0.6-0.6-1.3-0.6-2.2c0-1.1,0.3-1.9,0.8-2.5c0.6-0.6,1.3-0.9,2.1-0.9c1,0,1.7,0.3,2.3,1c0.6,0.6,0.8,1.6,0.8,2.9H73
			c0,0.5,0.2,0.9,0.4,1.2s0.6,0.4,1,0.4c0.3,0,0.5-0.1,0.7-0.2C75.3,110,75.4,109.8,75.5,109.5z M75.6,107.7c0-0.5-0.1-0.9-0.4-1.1
			s-0.5-0.4-0.9-0.4c-0.4,0-0.7,0.1-0.9,0.4c-0.2,0.3-0.4,0.6-0.4,1.1H75.6z"/>
		<path class="st0" d="M84.6,111.5h-1.7v-3.3c0-0.7,0-1.1-0.1-1.4c-0.1-0.2-0.2-0.4-0.4-0.5c-0.2-0.1-0.4-0.2-0.6-0.2
			c-0.3,0-0.6,0.1-0.8,0.2c-0.2,0.2-0.4,0.4-0.5,0.6c-0.1,0.3-0.1,0.8-0.1,1.5v2.9h-1.7v-6.5h1.6v1c0.6-0.7,1.3-1.1,2.1-1.1
			c0.4,0,0.7,0.1,1,0.2c0.3,0.1,0.5,0.3,0.7,0.5c0.2,0.2,0.3,0.5,0.3,0.7c0.1,0.3,0.1,0.7,0.1,1.2V111.5z"/>
		<path class="st0" d="M89.8,102.6h1.8v4.8c0,0.8,0,1.3,0.1,1.5c0.1,0.4,0.3,0.7,0.6,0.9c0.3,0.2,0.7,0.3,1.2,0.3
			c0.5,0,0.9-0.1,1.2-0.3s0.4-0.5,0.5-0.8c0.1-0.3,0.1-0.8,0.1-1.5v-4.9h1.8v4.7c0,1.1,0,1.8-0.1,2.3c-0.1,0.4-0.3,0.8-0.5,1.1
			c-0.3,0.3-0.6,0.5-1.1,0.7s-1,0.3-1.7,0.3c-0.9,0-1.5-0.1-1.9-0.3c-0.4-0.2-0.8-0.5-1-0.8s-0.4-0.6-0.5-1
			c-0.1-0.5-0.2-1.3-0.2-2.3V102.6z"/>
		<path class="st0" d="M104.7,111.5H103v-3.3c0-0.7,0-1.1-0.1-1.4s-0.2-0.4-0.4-0.5c-0.2-0.1-0.4-0.2-0.6-0.2
			c-0.3,0-0.6,0.1-0.8,0.2c-0.2,0.2-0.4,0.4-0.5,0.6c-0.1,0.3-0.1,0.8-0.1,1.5v2.9h-1.7v-6.5h1.6v1c0.6-0.7,1.3-1.1,2.1-1.1
			c0.4,0,0.7,0.1,1,0.2c0.3,0.1,0.5,0.3,0.7,0.5c0.2,0.2,0.3,0.5,0.3,0.7c0.1,0.3,0.1,0.7,0.1,1.2V111.5z"/>
		<path class="st0" d="M106.4,104.2v-1.6h1.7v1.6H106.4z M106.4,111.5v-6.5h1.7v6.5H106.4z"/>
		<path class="st0" d="M109.5,108.2c0-0.6,0.1-1.1,0.4-1.6c0.3-0.5,0.7-0.9,1.2-1.2c0.5-0.3,1.1-0.4,1.7-0.4c1,0,1.8,0.3,2.4,1
			c0.6,0.6,0.9,1.4,0.9,2.4c0,1-0.3,1.8-0.9,2.4c-0.6,0.6-1.4,1-2.4,1c-0.6,0-1.2-0.1-1.7-0.4c-0.5-0.3-0.9-0.7-1.2-1.2
			S109.5,109,109.5,108.2z M111.3,108.3c0,0.6,0.2,1.1,0.5,1.5c0.3,0.3,0.7,0.5,1.1,0.5s0.8-0.2,1.1-0.5c0.3-0.3,0.5-0.8,0.5-1.5
			c0-0.6-0.2-1.1-0.5-1.5c-0.3-0.3-0.7-0.5-1.1-0.5s-0.8,0.2-1.1,0.5C111.4,107.2,111.3,107.7,111.3,108.3z"/>
		<path class="st0" d="M123.4,111.5h-1.7v-3.3c0-0.7,0-1.1-0.1-1.4s-0.2-0.4-0.4-0.5c-0.2-0.1-0.4-0.2-0.6-0.2
			c-0.3,0-0.6,0.1-0.8,0.2c-0.2,0.2-0.4,0.4-0.5,0.6c-0.1,0.3-0.1,0.8-0.1,1.5v2.9h-1.7v-6.5h1.6v1c0.6-0.7,1.3-1.1,2.1-1.1
			c0.4,0,0.7,0.1,1,0.2c0.3,0.1,0.5,0.3,0.7,0.5c0.2,0.2,0.3,0.5,0.3,0.7c0.1,0.3,0.1,0.7,0.1,1.2V111.5z"/>
	</g>
</g>
</svg>
