<?xml version="1.0" encoding="utf-8"?>
<!-- Generator: Adobe Illustrator 30.1.0, SVG Export Plug-In . SVG Version: 9.03 Build 0)  -->
<svg version="1.0" id="Ebene_1" xmlns="http://www.w3.org/2000/svg" xmlns:xlink="http://www.w3.org/1999/xlink" x="0px" y="0px"
	 viewBox="0 0 221.1 233.1" style="enable-background:new 0 0 221.1 233.1;" xml:space="preserve">
<style type="text/css">
	.st0{fill:#231F20;}
	.st1{fill:#F1CF05;}
	.st2{fill:#E52629;}
</style>
<path class="st0" d="M20.5,12.6c-0.4-0.2-1.1-0.5-2-0.5c-2,0-4,1.3-4,4.8c0,3.3,1.5,5,3.7,5c0.8,0,1.4-0.2,1.9-0.3v-3.3l-1-0.2
	c-0.2,0-0.2-0.1-0.2-0.2c0-0.2,0.1-0.4,0.2-0.5h3.8c0,0,0,0.1,0,0.2c0,0.3-0.2,0.5-0.6,0.6L22,18.1v3.5c-0.4,0.4-1.7,1.3-4.1,1.3
	c-2.9,0-5.2-1.8-5.2-5.9c0-4.3,3.2-6,6-6c1.8,0,2.7,0.5,3.2,0.7c0,0.5,0.1,1.5,0.1,1.7c0,0.5-0.2,0.8-0.6,0.8c-0.1,0-0.3,0-0.4-0.1
	L20.5,12.6 M28.7,17.8c0-0.1,0.1-0.4,0.1-0.7c0-0.9-0.3-1.7-1.3-1.7c-1,0-1.6,0.8-1.7,2.4H28.7z M25.7,18.7c0,2.1,1,3,2.4,3
	c1.1,0,1.7-0.4,2.1-0.8c0.2,0.1,0.2,0.4,0.2,0.6c0,0.4-1.1,1.4-2.9,1.4c-2,0-3.6-1.2-3.6-4.1c0-2.9,1.7-4.4,3.6-4.4
	c1.9,0,2.8,1.2,2.8,2.8c0,0.4-0.1,1-0.2,1.4H25.7 M36.6,15.6h-2v6.2l1.1,0.2c0.2,0,0.2,0.1,0.2,0.2c0,0.2-0.1,0.4-0.2,0.5h-4
	c0,0,0-0.1,0-0.1c0-0.3,0.2-0.4,0.5-0.6l0.6-0.2v-6.2h-1.2c0,0,0-0.1,0-0.1c0-0.3,0.2-0.5,0.5-0.6l0.7-0.2v-0.2c0-2.7,1.6-4,3.1-4
	c0.8,0,1.2,0.4,1.2,0.9c0,0.4-0.2,0.6-0.5,0.8c-0.1-0.2-0.6-0.5-1.1-0.5c-0.7,0-1,0.4-1,1.4c0,0.5,0,1.6,0,1.6h2.2L36.6,15.6
	 M42.7,13.3c-0.5,0-0.9-0.4-0.9-0.9c0-0.6,0.4-0.9,0.9-0.9c0.5,0,0.9,0.4,0.9,0.9C43.6,12.9,43.2,13.3,42.7,13.3z M39.1,18.7
	c0,2.2,0.9,3.2,2.1,3.2c1.2,0,2.1-1,2.1-3.2c0-2.2-0.9-3.3-2.1-3.3C40,15.4,39.1,16.4,39.1,18.7z M39.7,13.3c-0.5,0-0.9-0.4-0.9-0.9
	c0-0.6,0.4-0.9,0.9-0.9c0.5,0,0.9,0.4,0.9,0.9C40.6,12.9,40.2,13.3,39.7,13.3z M45.1,18.6c0,2.9-2,4.3-4,4.3c-2.1,0-3.8-1.3-3.8-4.1
	c0-2.8,2-4.3,4.1-4.3C43.5,14.5,45.1,15.7,45.1,18.6 M49,16L49,16c0.4-0.6,1-1.5,2.1-1.5c0.8,0,1.2,0.4,1.2,0.9
	c0,0.4-0.2,0.7-0.3,0.8c-0.1-0.1-0.5-0.2-1.1-0.2c-0.9,0-1.4,0.4-1.7,0.8v5l1.2,0.2c0.2,0,0.2,0.1,0.2,0.2c0,0.2-0.1,0.4-0.2,0.5h-4
	c0,0,0-0.1,0-0.1c0-0.3,0.2-0.4,0.5-0.6l0.6-0.2v-6.2l-1.2-0.2c0,0,0-0.1,0-0.2c0-0.3,0.2-0.5,0.6-0.5l2.3-0.2L49,16 M58.3,16
	c-0.2-0.2-0.7-0.5-1.4-0.5c-1.4,0-2.4,1-2.4,3.2c0,2.2,0.9,3,2,3c1,0,1.5-0.4,1.7-0.7L58.3,16z M60,21.8l1.2,0.2c0,0,0,0.1,0,0.1
	c0,0.3-0.2,0.5-0.6,0.5l-2.2,0.2v-1.1h0c-0.4,0.5-1.1,1.2-2.4,1.2c-1.6,0-3.2-1-3.2-3.9c0-3.1,2.2-4.5,4.3-4.5
	c0.5,0,0.9,0.1,1.2,0.2v-2.9l-1.2-0.2c0,0,0-0.1,0-0.2c0-0.3,0.2-0.5,0.6-0.5l2.3-0.2V21.8 M66.9,17.8c0-0.1,0.1-0.4,0.1-0.7
	c0-0.9-0.3-1.7-1.3-1.7c-1,0-1.6,0.8-1.7,2.4H66.9z M64,18.7c0,2.1,1,3,2.4,3c1.1,0,1.7-0.4,2.1-0.8c0.2,0.1,0.2,0.4,0.2,0.6
	c0,0.4-1.1,1.4-2.9,1.4c-2,0-3.6-1.2-3.6-4.1c0-2.9,1.8-4.4,3.6-4.4c1.9,0,2.8,1.2,2.8,2.8c0,0.4-0.1,1-0.2,1.4H64 M72.6,16L72.6,16
	c0.4-0.6,1-1.5,2.1-1.5c0.8,0,1.1,0.4,1.1,0.9c0,0.4-0.2,0.7-0.3,0.8c-0.1-0.1-0.6-0.2-1.1-0.2c-0.9,0-1.4,0.4-1.7,0.8v5l1.2,0.2
	c0.2,0,0.2,0.1,0.2,0.2c0,0.2-0.1,0.4-0.2,0.5h-4c0,0,0-0.1,0-0.1c0-0.3,0.2-0.4,0.5-0.6l0.6-0.2v-6.2l-1.2-0.2c0,0,0-0.1,0-0.2
	c0-0.3,0.2-0.5,0.6-0.5l2.3-0.2L72.6,16 M81.5,15.6h-2.3v4.9c0,0.8,0.2,1.4,1.1,1.4c0.6,0,1.2-0.3,1.3-0.4c0.1,0.1,0.2,0.4,0.2,0.6
	c0,0.2-0.6,0.9-2.1,0.9c-1.5,0-2.1-0.9-2.1-2.2v-5.2h-1.2c0,0,0-0.1,0-0.1c0-0.3,0.2-0.5,0.5-0.6l0.8-0.2l0.4-2.2h1.2v2.2h2.5
	L81.5,15.6 M91.5,16c-0.3-0.2-0.7-0.5-1.4-0.5c-1.3,0-2.3,1-2.3,3.2c0,2.2,0.9,3,2,3c1,0,1.5-0.4,1.7-0.7V16z M93.2,21.8l1.2,0.2
	c0,0,0,0.1,0,0.1c0,0.3-0.2,0.5-0.6,0.5l-2.2,0.2v-1.1h0c-0.4,0.5-1.1,1.2-2.4,1.2c-1.6,0-3.2-1-3.2-3.9c0-3.1,2.2-4.5,4.3-4.5
	c0.5,0,0.9,0.1,1.2,0.2v-2.9l-1.2-0.2c0,0,0-0.1,0-0.2c0-0.3,0.2-0.5,0.6-0.5l2.3-0.2V21.8 M102.8,21.8l1.2,0.2c0,0,0,0.1,0,0.1
	c0,0.3-0.2,0.5-0.6,0.5l-2.2,0.2v-1.1h0c-0.3,0.3-1,1.2-2.5,1.2c-1.8,0-2.6-1-2.6-3v-4.2l-1.2-0.2c0,0,0-0.1,0-0.2
	c0-0.3,0.2-0.5,0.6-0.5l2.3-0.2v5.2c0,1.5,0.8,1.9,1.5,1.9c0.8,0,1.4-0.4,1.8-0.8v-5.2l-1.2-0.2c0,0,0-0.1,0-0.2
	c0-0.3,0.2-0.5,0.6-0.5l2.3-0.2L102.8,21.8 M107.5,16L107.5,16c0.4-0.6,1-1.5,2.1-1.5c0.8,0,1.1,0.4,1.1,0.9c0,0.4-0.2,0.7-0.3,0.8
	c-0.1-0.1-0.5-0.2-1.1-0.2c-0.9,0-1.4,0.4-1.7,0.8v5l1.2,0.2c0.2,0,0.2,0.1,0.2,0.2c0,0.2-0.1,0.4-0.2,0.5h-4c0,0,0-0.1,0-0.1
	c0-0.3,0.2-0.4,0.5-0.6l0.6-0.2v-6.2l-1.2-0.2c0,0,0-0.1,0-0.2c0-0.3,0.2-0.5,0.6-0.5l2.3-0.2L107.5,16 M115.3,15.5
	c-1.1,0-2.1,0.8-2.1,3c0,2.1,0.8,3.3,2.4,3.3c1,0,1.6-0.5,1.9-0.8c0.2,0.1,0.3,0.4,0.3,0.6c0,0.4-0.9,1.4-2.7,1.4
	c-2.2,0-3.6-1.4-3.6-4.1c0-2.8,1.9-4.3,4.1-4.3c1.8,0,2.3,0.9,2.3,1.4c0,0.5-0.2,0.9-0.8,1C116.7,16.3,116.4,15.5,115.3,15.5
	 M121.4,15.7L121.4,15.7c0.4-0.4,1.2-1.2,2.6-1.2c1.7,0,2.6,1,2.6,2.9v4.4l1,0.2c0.2,0,0.2,0.1,0.2,0.2c0,0.2-0.1,0.4-0.2,0.5h-3.8
	c0,0,0-0.1,0-0.1c0-0.3,0.2-0.5,0.5-0.6l0.5-0.2v-4.2c0-1.4-0.8-1.8-1.6-1.8c-1,0-1.6,0.4-1.9,0.8v5.3l0.9,0.2
	c0.2,0,0.2,0.1,0.2,0.2c0,0.2-0.1,0.4-0.2,0.5h-3.8c0,0,0-0.1,0-0.1c0-0.3,0.2-0.5,0.5-0.6l0.6-0.2V11.7l-1.2-0.2c0,0,0-0.1,0-0.2
	c0-0.3,0.2-0.5,0.6-0.5l2.3-0.2V15.7 M130,22.9c-0.6,0-1-0.4-1-1c0-0.6,0.4-1,1-1c0.6,0,1.1,0.4,1.1,1
	C131.1,22.5,130.6,22.9,130,22.9z M130,16.5c-0.6,0-1-0.4-1-1c0-0.6,0.4-1,1-1c0.6,0,1.1,0.4,1.1,1C131.1,16.1,130.6,16.5,130,16.5
	 M16.5,197.1c-1.3,0.1-2.1,0.5-2.1,1.4c0,0.7,0.4,1.2,1.1,1.2c0.7,0,1.2-0.4,1.4-0.7v-1.9L16.5,197.1z M18.5,198.9
	c0,0.7,0.2,0.9,0.5,0.9c0.4,0,0.6-0.2,0.6-0.3c0.1,0.1,0.2,0.4,0.2,0.5c0,0.2-0.4,0.9-1.5,0.9c-0.8,0-1.3-0.3-1.4-1.2h0
	c-0.2,0.3-0.8,1.2-2.2,1.2c-1.3,0-2.2-0.9-2.2-2.2c0-1.8,1.9-2.4,3.8-2.4h0.4v-0.7c0-1.5-0.4-2.1-1.4-2.1c-0.4,0-0.7,0.1-0.8,0.2
	c-0.2,0.3-0.3,0.9-0.4,1.5c0,0-0.2,0-0.4,0c-0.6,0-0.9-0.3-0.9-0.8c0-1,1.4-1.8,2.9-1.8c1.8,0,2.7,1,2.7,2.9V198.9 M28,199.8
	l1.2,0.2c0,0,0,0.1,0,0.1c0,0.3-0.2,0.5-0.6,0.5l-2.2,0.2v-1.1h0c-0.3,0.4-1,1.2-2.5,1.2c-1.8,0-2.6-1-2.6-3v-4.3l-1.2-0.2
	c0,0,0-0.1,0-0.2c0-0.3,0.2-0.5,0.6-0.5l2.3-0.2v5.2c0,1.5,0.8,1.9,1.5,1.9c0.8,0,1.4-0.4,1.8-0.8v-5.2l-1.2-0.2c0,0,0-0.1,0-0.2
	c0-0.3,0.2-0.5,0.6-0.5l2.3-0.2L28,199.8 M34.9,193.6h-2v6.2L34,200c0.2,0,0.2,0.1,0.2,0.2c0,0.2-0.1,0.4-0.2,0.5h-4
	c0,0,0-0.1,0-0.1c0-0.3,0.2-0.4,0.5-0.6l0.6-0.2v-6.2H30c0,0,0-0.1,0-0.1c0-0.3,0.2-0.5,0.5-0.6l0.7-0.2v-0.2c0-2.7,1.6-4,3.1-4
	c0.8,0,1.2,0.4,1.2,0.9c0,0.4-0.2,0.7-0.5,0.8c-0.1-0.2-0.6-0.5-1.1-0.5c-0.7,0-1,0.4-1,1.4c0,0.5,0,1.6,0,1.6h2.2L34.9,193.6
	 M37.7,195.1c0,1.3,0.7,1.8,1.5,1.8c0.9,0,1.5-0.5,1.5-1.8c0-1.2-0.6-1.8-1.5-1.8C38.4,193.4,37.7,193.9,37.7,195.1z M38.4,200.6
	c-0.2,0-0.4,0-0.6,0c-0.4,0.2-0.7,0.7-0.7,1.2c0,0.9,0.5,1.4,1.7,1.4c1.6,0,2.6-0.8,2.6-1.6c0-0.7-0.4-1-1.2-1H38.4z M43.2,193.6
	h-1.3c0.3,0.4,0.5,0.9,0.5,1.5c0,1.8-1.5,2.8-3.3,2.8c-0.3,0-0.5,0-0.8-0.1c-0.2,0.1-0.5,0.4-0.5,0.8c0,0.4,0.3,0.6,0.8,0.6h1.9
	c1.5,0,2.4,0.7,2.4,1.9c0,1.7-1.6,3.2-4.4,3.2c-2,0-3-0.7-3-1.9c0-1.2,0.9-1.7,1.5-1.9v0c-0.4-0.2-0.7-0.6-0.7-1.2
	c0-1,0.9-1.4,1.2-1.6v0c-0.9-0.4-1.5-1.3-1.5-2.5c0-1.8,1.5-2.7,3.2-2.7c0.4,0,0.9,0.1,1.3,0.2h2.9L43.2,193.6 M46.8,194L46.8,194
	c0.4-0.6,1-1.5,2.1-1.5c0.8,0,1.1,0.4,1.1,0.9c0,0.4-0.2,0.7-0.3,0.8c-0.1-0.1-0.5-0.2-1.1-0.2c-0.9,0-1.4,0.4-1.7,0.8v5l1.2,0.2
	c0.2,0,0.2,0.1,0.2,0.2c0,0.2-0.1,0.4-0.2,0.5h-4c0,0,0-0.1,0-0.1c0-0.3,0.2-0.4,0.5-0.6l0.6-0.2v-6.2l-1.2-0.2c0,0,0-0.1,0-0.2
	c0-0.3,0.2-0.5,0.6-0.5l2.3-0.2L46.8,194 M58.3,199.8l1.2,0.2c0,0,0,0.1,0,0.1c0,0.3-0.2,0.5-0.6,0.5l-2.2,0.2v-1.1h0
	c-0.3,0.4-1,1.2-2.5,1.2c-1.8,0-2.6-1-2.6-3v-4.3l-1.2-0.2c0,0,0-0.1,0-0.2c0-0.3,0.2-0.5,0.6-0.5l2.3-0.2v5.2
	c0,1.5,0.8,1.9,1.5,1.9c0.8,0,1.4-0.4,1.8-0.8v-5.2l-1.2-0.2c0,0,0-0.1,0-0.2c0-0.3,0.2-0.5,0.6-0.5l2.3-0.2L58.3,199.8 M68.3,199.8
	l1,0.2c0.2,0,0.2,0.1,0.2,0.2c0,0.2-0.1,0.4-0.2,0.5h-3.8c0,0,0-0.1,0-0.1c0-0.3,0.2-0.5,0.5-0.6l0.5-0.2v-4.2
	c0-1.4-0.8-1.8-1.6-1.8c-1,0-1.6,0.4-1.9,0.7v5.3L64,200c0.2,0,0.2,0.1,0.2,0.2c0,0.2-0.1,0.4-0.2,0.5h-3.8c0,0,0-0.1,0-0.1
	c0-0.3,0.2-0.4,0.5-0.6l0.6-0.2v-6.2l-1.2-0.2c0,0,0-0.1,0-0.2c0-0.3,0.2-0.5,0.6-0.5l2.3-0.2l-0.1,1.2h0c0.5-0.5,1.2-1.3,2.7-1.3
	c1.6,0,2.5,1,2.5,2.9L68.3,199.8 M75.9,194c-0.2-0.2-0.7-0.5-1.4-0.5c-1.4,0-2.3,1-2.3,3.2c0,2.1,0.9,3,2,3c1,0,1.5-0.4,1.7-0.7
	L75.9,194z M77.5,199.8l1.2,0.2c0,0,0,0.1,0,0.1c0,0.3-0.2,0.5-0.6,0.5l-2.2,0.2v-1.1h0c-0.4,0.5-1.1,1.2-2.4,1.2
	c-1.6,0-3.2-1-3.2-3.9c0-3.1,2.2-4.5,4.3-4.5c0.5,0,0.9,0.1,1.2,0.2v-2.9l-1.2-0.2c0,0,0-0.1,0-0.2c0-0.3,0.2-0.5,0.6-0.5l2.3-0.2
	V199.8 M87.9,195.8c0-0.2,0.1-0.4,0.1-0.7c0-0.9-0.3-1.7-1.3-1.7c-1,0-1.6,0.8-1.7,2.4H87.9z M85,196.7c0,2.1,1,3,2.4,3
	c1.1,0,1.7-0.4,2.1-0.8c0.2,0.1,0.2,0.4,0.2,0.6c0,0.4-1.1,1.4-2.9,1.4c-2,0-3.6-1.2-3.6-4.1c0-2.9,1.7-4.4,3.6-4.4
	c1.9,0,2.8,1.2,2.8,2.8c0,0.4-0.1,1-0.2,1.4H85 M92.9,190.9c-0.6,0-1.1-0.4-1.1-1.1c0-0.6,0.5-1.1,1.1-1.1c0.6,0,1.1,0.4,1.1,1.1
	C94,190.5,93.5,190.9,92.9,190.9z M93.7,199.8l1,0.2c0.2,0,0.2,0.1,0.2,0.2c0,0.2-0.1,0.4-0.2,0.5h-3.8c0,0,0-0.1,0-0.1
	c0-0.3,0.2-0.4,0.5-0.6l0.6-0.2v-6.2l-1.2-0.2c0,0,0-0.1,0-0.2c0-0.3,0.2-0.5,0.6-0.5l2.3-0.2L93.7,199.8 M103.8,199.8l1,0.2
	c0.2,0,0.2,0.1,0.2,0.2c0,0.2-0.1,0.4-0.2,0.5H101c0,0,0-0.1,0-0.1c0-0.3,0.2-0.5,0.5-0.6l0.5-0.2v-4.2c0-1.4-0.8-1.8-1.6-1.8
	c-0.9,0-1.6,0.4-1.9,0.7v5.3l0.9,0.2c0.2,0,0.2,0.1,0.2,0.2c0,0.2-0.1,0.4-0.2,0.5h-3.8c0,0,0-0.1,0-0.1c0-0.3,0.2-0.4,0.5-0.6
	l0.6-0.2v-6.2l-1.2-0.2c0,0,0-0.1,0-0.2c0-0.3,0.2-0.5,0.6-0.5l2.3-0.2l-0.1,1.2h0c0.5-0.5,1.2-1.3,2.7-1.3c1.6,0,2.5,1,2.5,2.9
	L103.8,199.8 M110.5,195.8c0-0.2,0.1-0.4,0.1-0.7c0-0.9-0.3-1.7-1.3-1.7c-1,0-1.6,0.8-1.7,2.4H110.5z M107.6,196.7c0,2.1,1,3,2.4,3
	c1.1,0,1.7-0.4,2.1-0.8c0.2,0.1,0.2,0.4,0.2,0.6c0,0.4-1.1,1.4-2.9,1.4c-2,0-3.6-1.2-3.6-4.1c0-2.9,1.8-4.4,3.6-4.4
	c1.9,0,2.8,1.2,2.8,2.8c0,0.4-0.1,1-0.2,1.4H107.6 M117.5,193.7c-0.2-0.1-0.6-0.3-1.1-0.3c-0.5,0-1.1,0.2-1.1,0.9
	c0,0.7,0.8,1.2,1.6,1.6c1,0.6,2.1,1.2,2.1,2.6c0,1.4-1.1,2.4-3,2.4c-0.9,0-1.8-0.3-2.1-0.5c-0.1-0.4-0.1-0.8-0.1-1.3
	c0-0.7,0.2-0.9,0.7-0.9c0.1,0,0.2,0,0.2,0l0.3,1.4c0.2,0.1,0.7,0.3,1.1,0.3c0.8,0,1.3-0.3,1.3-1c0-0.7-0.8-1.1-1.5-1.6
	c-1-0.7-2-1.3-2-2.7c0-1.3,1.1-2.2,2.7-2.2c1,0,1.7,0.3,1.9,0.6c0,0.2,0.1,0.6,0.1,0.9c0,0.6-0.1,1-0.7,1c-0.1,0-0.2,0-0.2,0
	L117.5,193.7 M127.9,195.4h-1.1v4.3h1c1.9,0,2.8-0.9,2.8-2.2C130.7,196.2,129.7,195.4,127.9,195.4z M127.7,190.2h-0.9v4.2h0.9
	c1.9,0,2.7-0.9,2.7-2.1C130.4,190.9,129.6,190.2,127.7,190.2z M129.9,194.8L129.9,194.8c1.6,0.3,2.7,1.2,2.7,2.7
	c0,1.9-1.5,3.2-4.5,3.2h-4.2c0,0,0-0.1,0-0.2c0-0.3,0.1-0.5,0.6-0.6l0.7-0.2v-9.6l-1-0.2c-0.2,0-0.2-0.1-0.2-0.2
	c0-0.1,0.1-0.3,0.2-0.5h3.9c3,0,4.4,1,4.4,2.9C132.3,193.7,131.3,194.4,129.9,194.8 M138.8,195.8c0-0.2,0.1-0.4,0.1-0.7
	c0-0.9-0.3-1.7-1.3-1.7c-1,0-1.6,0.8-1.7,2.4H138.8z M135.8,196.7c0,2.1,1,3,2.4,3c1.1,0,1.7-0.4,2.1-0.8c0.2,0.1,0.2,0.4,0.2,0.6
	c0,0.4-1.1,1.4-3,1.4c-2,0-3.6-1.2-3.6-4.1c0-2.9,1.7-4.4,3.6-4.4c1.9,0,2.8,1.2,2.8,2.8c0,0.4-0.1,1-0.2,1.4H135.8 M145.8,193.7
	c-0.2-0.1-0.6-0.3-1.1-0.3c-0.5,0-1.1,0.2-1.1,0.9c0,0.7,0.8,1.2,1.6,1.6c1,0.6,2.1,1.2,2.1,2.6c0,1.4-1.1,2.4-3,2.4
	c-0.9,0-1.8-0.3-2.1-0.5c-0.1-0.4-0.1-0.8-0.1-1.3c0-0.7,0.2-0.9,0.7-0.9c0.1,0,0.2,0,0.2,0l0.4,1.4c0.2,0.1,0.6,0.3,1.1,0.3
	c0.8,0,1.3-0.3,1.3-1c0-0.7-0.8-1.1-1.5-1.6c-1-0.7-2-1.3-2-2.7c0-1.3,1.1-2.2,2.7-2.2c1,0,1.6,0.3,2,0.6c0,0.2,0.1,0.6,0.1,0.9
	c0,0.6-0.1,1-0.7,1c-0.1,0-0.2,0-0.2,0L145.8,193.7 M152.4,193.5c-1.1,0-2.1,0.8-2.1,3c0,2.1,0.8,3.3,2.4,3.3c1,0,1.6-0.5,1.9-0.8
	c0.1,0.1,0.3,0.4,0.3,0.6c0,0.4-0.9,1.4-2.7,1.4c-2.2,0-3.6-1.4-3.6-4.1c0-2.8,1.9-4.3,4.1-4.3c1.8,0,2.3,0.9,2.3,1.4
	c0,0.5-0.2,0.9-0.8,1C153.8,194.3,153.5,193.5,152.4,193.5 M158.5,193.7L158.5,193.7c0.4-0.4,1.2-1.2,2.6-1.2c1.7,0,2.6,1,2.6,2.9
	v4.4l1,0.2c0.2,0,0.2,0.1,0.2,0.2c0,0.2-0.1,0.4-0.2,0.5H161c0,0,0-0.1,0-0.1c0-0.3,0.2-0.5,0.5-0.6l0.5-0.2v-4.2
	c0-1.4-0.8-1.8-1.6-1.8c-1,0-1.6,0.4-1.9,0.8v5.3l0.9,0.2c0.2,0,0.2,0.1,0.2,0.2c0,0.2-0.1,0.4-0.2,0.5h-3.8c0,0,0-0.1,0-0.1
	c0-0.3,0.2-0.5,0.5-0.6l0.6-0.2v-10.1l-1.2-0.2c0,0,0-0.1,0-0.2c0-0.3,0.2-0.5,0.6-0.5l2.3-0.2V193.7 M168.3,199.8l1,0.2
	c0.2,0,0.2,0.1,0.2,0.2c0,0.2-0.1,0.4-0.2,0.5h-3.8c0,0,0-0.1,0-0.1c0-0.3,0.2-0.5,0.5-0.6l0.6-0.2v-10.1l-1.2-0.2c0,0,0-0.1,0-0.2
	c0-0.3,0.2-0.5,0.6-0.5l2.3-0.2L168.3,199.8 M178,199.8l1.2,0.2c0,0,0,0.1,0,0.1c0,0.3-0.2,0.5-0.6,0.5l-2.2,0.2v-1.1h0
	c-0.3,0.4-1,1.2-2.5,1.2c-1.8,0-2.6-1-2.6-3v-4.3l-1.2-0.2c0,0,0-0.1,0-0.2c0-0.3,0.2-0.5,0.6-0.5l2.3-0.2v5.2
	c0,1.5,0.8,1.9,1.5,1.9c0.9,0,1.4-0.4,1.8-0.8v-5.2l-1.2-0.2c0,0,0-0.1,0-0.2c0-0.3,0.2-0.5,0.6-0.5l2.3-0.2L178,199.8 M184,193.7
	c-0.2-0.1-0.6-0.3-1.1-0.3c-0.6,0-1.1,0.2-1.1,0.9c0,0.7,0.8,1.2,1.6,1.6c1,0.6,2.1,1.2,2.1,2.6c0,1.4-1.1,2.4-3,2.4
	c-0.9,0-1.8-0.3-2.1-0.5c-0.1-0.4-0.1-0.8-0.1-1.3c0-0.7,0.2-0.9,0.7-0.9c0.1,0,0.2,0,0.2,0l0.4,1.4c0.2,0.1,0.6,0.3,1.1,0.3
	c0.8,0,1.3-0.3,1.3-1c0-0.7-0.8-1.1-1.5-1.6c-1-0.7-2-1.3-2-2.7c0-1.3,1.1-2.2,2.7-2.2c1,0,1.6,0.3,1.9,0.6c0,0.2,0.1,0.6,0.1,0.9
	c0,0.6-0.1,1-0.7,1c-0.1,0-0.2,0-0.2,0L184,193.7 M190.6,193.7c-0.2-0.1-0.6-0.3-1.1-0.3c-0.5,0-1.1,0.2-1.1,0.9
	c0,0.7,0.8,1.2,1.6,1.6c1,0.6,2.1,1.2,2.1,2.6c0,1.4-1.1,2.4-3,2.4c-0.9,0-1.8-0.3-2.1-0.5c-0.1-0.4-0.1-0.8-0.1-1.3
	c0-0.7,0.2-0.9,0.7-0.9c0.1,0,0.2,0,0.2,0l0.4,1.4c0.2,0.1,0.6,0.3,1.1,0.3c0.8,0,1.3-0.3,1.3-1c0-0.7-0.8-1.1-1.5-1.6
	c-1-0.7-2-1.3-2-2.7c0-1.3,1.1-2.2,2.7-2.2c1,0,1.6,0.3,2,0.6c0,0.2,0.1,0.6,0.1,0.9c0,0.6-0.1,1-0.7,1c-0.1,0-0.2,0-0.2,0
	L190.6,193.7 M198,195.8c0-0.2,0.1-0.4,0.1-0.7c0-0.9-0.3-1.7-1.3-1.7c-1,0-1.6,0.8-1.7,2.4H198z M195.1,196.7c0,2.1,1,3,2.4,3
	c1.1,0,1.7-0.4,2.1-0.8c0.2,0.1,0.2,0.4,0.2,0.6c0,0.4-1.1,1.4-2.9,1.4c-2,0-3.6-1.2-3.6-4.1c0-2.9,1.8-4.4,3.6-4.4
	c1.9,0,2.8,1.2,2.8,2.8c0,0.4-0.1,1-0.2,1.4H195.1 M205,193.7c-0.2-0.1-0.6-0.3-1.1-0.3c-0.6,0-1.1,0.2-1.1,0.9
	c0,0.7,0.8,1.2,1.6,1.6c1,0.6,2.1,1.2,2.1,2.6c0,1.4-1.1,2.4-3,2.4c-0.9,0-1.8-0.3-2.1-0.5c-0.1-0.4-0.1-0.8-0.1-1.3
	c0-0.7,0.2-0.9,0.7-0.9c0.1,0,0.2,0,0.2,0l0.3,1.4c0.2,0.1,0.7,0.3,1.1,0.3c0.8,0,1.3-0.3,1.3-1c0-0.7-0.8-1.1-1.5-1.6
	c-1-0.7-2-1.3-2-2.7c0-1.3,1.1-2.2,2.7-2.2c1,0,1.6,0.3,1.9,0.6c0,0.2,0.1,0.6,0.1,0.9c0,0.6-0.1,1-0.7,1c-0.1,0-0.2,0-0.2,0
	L205,193.7 M18.2,213c-0.3-0.2-0.7-0.5-1.4-0.5c-1.3,0-2.3,1-2.3,3.2c0,2.2,0.9,3,2,3c1,0,1.5-0.4,1.7-0.7L18.2,213z M19.9,218.8
	l1.2,0.2c0,0,0,0.1,0,0.1c0,0.3-0.2,0.5-0.6,0.5l-2.2,0.2v-1.1h0c-0.4,0.5-1.1,1.2-2.4,1.2c-1.6,0-3.2-1-3.2-3.9
	c0-3.1,2.2-4.5,4.3-4.5c0.5,0,0.9,0.1,1.2,0.2v-2.9l-1.2-0.2c0,0,0-0.1,0-0.2c0-0.3,0.2-0.5,0.6-0.5l2.3-0.2V218.8 M26.7,214.9
	c0-0.1,0.1-0.4,0.1-0.7c0-0.9-0.3-1.7-1.3-1.7c-1,0-1.6,0.8-1.7,2.4H26.7z M23.8,215.8c0,2.1,1,3,2.4,3c1.1,0,1.7-0.4,2.1-0.8
	c0.2,0.1,0.2,0.4,0.2,0.6c0,0.4-1.1,1.4-2.9,1.4c-2,0-3.6-1.2-3.6-4.1c0-2.9,1.7-4.4,3.6-4.4c1.9,0,2.8,1.1,2.8,2.8
	c0,0.4-0.1,1-0.2,1.4H23.8 M33.7,212.7c-0.2-0.1-0.6-0.3-1.1-0.3c-0.5,0-1.1,0.2-1.1,0.9c0,0.7,0.8,1.2,1.6,1.6
	c1,0.6,2.1,1.2,2.1,2.6c0,1.4-1.1,2.4-3,2.4c-0.9,0-1.8-0.3-2.1-0.5c-0.1-0.4-0.1-0.8-0.1-1.3c0-0.7,0.2-0.9,0.7-0.9
	c0.1,0,0.2,0,0.2,0l0.3,1.4c0.2,0.1,0.7,0.3,1.1,0.3c0.8,0,1.3-0.3,1.3-1c0-0.7-0.8-1.1-1.5-1.6c-1-0.6-2-1.3-2-2.7
	c0-1.3,1.1-2.2,2.7-2.2c1,0,1.7,0.3,1.9,0.6c0,0.2,0.1,0.6,0.1,0.9c0,0.6-0.1,1-0.7,1c-0.1,0-0.2,0-0.2,0L33.7,212.7 M43.7,209.3
	h-0.7v9.5h0.7c3.1,0,4.8-1.6,4.8-4.8C48.6,210.8,46.8,209.3,43.7,209.3z M43.8,219.8H40c0,0,0-0.1,0-0.2c0-0.3,0.1-0.5,0.6-0.6
	l0.7-0.2v-9.6l-1-0.2c-0.2,0-0.2-0.1-0.2-0.2c0-0.2,0.1-0.4,0.2-0.5h3.6c4.2,0,6.7,1.6,6.7,5.6C50.5,217.9,48,219.8,43.8,219.8
	 M56.6,214.9c0-0.1,0.1-0.4,0.1-0.7c0-0.9-0.3-1.7-1.3-1.7c-1,0-1.6,0.8-1.7,2.4H56.6z M53.7,215.8c0,2.1,1,3,2.4,3
	c1.1,0,1.7-0.4,2.1-0.8c0.2,0.1,0.2,0.4,0.2,0.6c0,0.4-1.1,1.4-2.9,1.4c-2,0-3.6-1.2-3.6-4.1c0-2.9,1.8-4.4,3.6-4.4
	c1.9,0,2.8,1.1,2.8,2.8c0,0.4-0.1,1-0.2,1.4H53.7 M67.3,218.8l1.2,0.2c0,0,0,0.1,0,0.1c0,0.3-0.2,0.5-0.6,0.5l-2.2,0.2v-1.1h0
	c-0.3,0.4-1,1.2-2.5,1.2c-1.8,0-2.6-1-2.6-3v-4.2l-1.2-0.2c0,0,0-0.1,0-0.2c0-0.3,0.2-0.5,0.6-0.5l2.3-0.2v5.2
	c0,1.5,0.8,1.9,1.5,1.9c0.8,0,1.4-0.4,1.8-0.8v-5.2l-1.2-0.2c0,0,0-0.1,0-0.2c0-0.3,0.2-0.5,0.6-0.5l2.3-0.2V218.8 M74.2,212.6h-2.3
	v4.9c0,0.7,0.2,1.4,1.1,1.4c0.6,0,1.2-0.3,1.3-0.4c0.1,0.1,0.2,0.4,0.2,0.5c0,0.2-0.6,0.9-2.1,0.9s-2.1-0.9-2.1-2.2v-5.2H69
	c0,0,0-0.1,0-0.2c0-0.3,0.2-0.5,0.5-0.6l0.8-0.2l0.4-2.3h1.2v2.3h2.5L74.2,212.6 M79.1,212.7c-0.2-0.1-0.6-0.3-1.1-0.3
	c-0.5,0-1.1,0.2-1.1,0.9c0,0.7,0.8,1.2,1.6,1.6c1,0.6,2.1,1.2,2.1,2.6c0,1.4-1.1,2.4-3,2.4c-0.9,0-1.8-0.3-2.1-0.5
	c-0.1-0.4-0.1-0.8-0.1-1.3c0-0.7,0.2-0.9,0.7-0.9c0.1,0,0.2,0,0.2,0l0.3,1.4c0.2,0.1,0.7,0.3,1.1,0.3c0.8,0,1.3-0.3,1.3-1
	c0-0.7-0.8-1.1-1.5-1.6c-1-0.6-2-1.3-2-2.7c0-1.3,1.1-2.2,2.7-2.2c1,0,1.7,0.3,1.9,0.6c0,0.2,0.1,0.6,0.1,0.9c0,0.6-0.1,1-0.7,1
	c-0.1,0-0.2,0-0.2,0L79.1,212.7 M85.7,212.5c-1.1,0-2.1,0.8-2.1,3c0,2.1,0.8,3.3,2.4,3.3c1,0,1.6-0.5,1.9-0.8
	c0.1,0.1,0.3,0.4,0.3,0.6c0,0.4-0.9,1.4-2.7,1.4c-2.2,0-3.6-1.4-3.6-4.1c0-2.8,1.9-4.3,4.1-4.3c1.8,0,2.3,0.9,2.3,1.4
	c0,0.4-0.2,0.9-0.9,1C87.2,213.3,86.8,212.5,85.7,212.5 M91.9,212.7L91.9,212.7c0.4-0.4,1.2-1.2,2.6-1.2c1.7,0,2.6,1,2.6,2.9v4.4
	l1,0.2c0.2,0,0.2,0.1,0.2,0.2c0,0.2-0.1,0.4-0.2,0.5h-3.8c0,0,0-0.1,0-0.1c0-0.3,0.2-0.5,0.5-0.6l0.6-0.2v-4.2
	c0-1.4-0.8-1.9-1.6-1.9c-1,0-1.6,0.5-1.9,0.8v5.3l0.9,0.2c0.2,0,0.2,0.1,0.2,0.2c0,0.2-0.1,0.4-0.2,0.5h-3.8c0,0,0-0.1,0-0.1
	c0-0.3,0.2-0.5,0.5-0.6l0.6-0.2v-10.1l-1.2-0.2c0,0,0-0.1,0-0.2c0-0.3,0.2-0.5,0.6-0.5l2.3-0.2L91.9,212.7 M103.8,214.9
	c0-0.1,0.1-0.4,0.1-0.7c0-0.9-0.3-1.7-1.3-1.7c-1,0-1.6,0.8-1.7,2.4H103.8z M100.9,215.8c0,2.1,1,3,2.4,3c1.1,0,1.7-0.4,2.1-0.8
	c0.2,0.1,0.2,0.4,0.2,0.6c0,0.4-1.1,1.4-2.9,1.4c-2,0-3.6-1.2-3.6-4.1c0-2.9,1.7-4.4,3.6-4.4c1.9,0,2.8,1.1,2.8,2.8
	c0,0.4-0.1,1-0.2,1.4H100.9 M114.9,218.9l1,0.2c0.2,0,0.2,0.1,0.2,0.2c0,0.2-0.1,0.4-0.2,0.5h-3.8c0,0,0-0.1,0-0.1
	c0-0.3,0.2-0.5,0.5-0.6l0.6-0.2v-4.2c0-1.4-0.8-1.9-1.6-1.9c-1,0-1.6,0.5-1.9,0.7v5.3l0.9,0.2c0.2,0,0.2,0.1,0.2,0.2
	c0,0.2-0.1,0.4-0.2,0.5h-3.8c0,0,0-0.1,0-0.1c0-0.3,0.2-0.4,0.5-0.6l0.6-0.2v-6.2l-1.2-0.2c0,0,0-0.1,0-0.2c0-0.3,0.2-0.5,0.6-0.5
	l2.3-0.2l-0.1,1.2h0c0.4-0.5,1.2-1.3,2.7-1.3c1.6,0,2.5,1,2.5,2.9L114.9,218.9 M124.6,214.4h-1.1v4.3h1c1.9,0,2.8-0.9,2.8-2.2
	C127.3,215.3,126.4,214.4,124.6,214.4z M124.4,209.3h-0.9v4.2h0.9c1.9,0,2.7-0.9,2.7-2.1C127.1,210,126.3,209.3,124.4,209.3z
	 M126.6,213.8L126.6,213.8c1.6,0.3,2.7,1.2,2.7,2.7c0,1.9-1.5,3.2-4.5,3.2h-4.2c0,0,0-0.1,0-0.2c0-0.3,0.1-0.5,0.6-0.6l0.7-0.2v-9.6
	l-1-0.2c-0.2,0-0.2-0.1-0.2-0.2c0-0.2,0.1-0.4,0.2-0.5h3.9c3,0,4.4,1.1,4.4,2.9C129,212.7,128,213.5,126.6,213.8 M138.2,218.8
	l1.2,0.2c0,0,0,0.1,0,0.1c0,0.3-0.2,0.5-0.6,0.5l-2.2,0.2v-1.1h0c-0.3,0.4-1,1.2-2.5,1.2c-1.8,0-2.6-1-2.6-3v-4.2l-1.2-0.2
	c0,0,0-0.1,0-0.2c0-0.3,0.2-0.5,0.6-0.5l2.3-0.2v5.2c0,1.5,0.8,1.9,1.5,1.9c0.8,0,1.4-0.4,1.8-0.8v-5.2l-1.2-0.2c0,0,0-0.1,0-0.2
	c0-0.3,0.2-0.5,0.6-0.5l2.3-0.2L138.2,218.8 M148.2,218.9l1,0.2c0.2,0,0.2,0.1,0.2,0.2c0,0.2-0.1,0.4-0.2,0.5h-3.8c0,0,0-0.1,0-0.1
	c0-0.3,0.2-0.5,0.5-0.6l0.5-0.2v-4.2c0-1.4-0.8-1.9-1.6-1.9c-1,0-1.6,0.5-1.9,0.7v5.3l0.9,0.2c0.2,0,0.2,0.1,0.2,0.2
	c0,0.2-0.1,0.4-0.2,0.5h-3.8c0,0,0-0.1,0-0.1c0-0.3,0.2-0.4,0.5-0.6l0.6-0.2v-6.2l-1.2-0.2c0,0,0-0.1,0-0.2c0-0.3,0.2-0.5,0.6-0.5
	l2.3-0.2l-0.1,1.2h0c0.5-0.5,1.2-1.3,2.7-1.3c1.6,0,2.5,1,2.5,2.9V218.9 M155.8,213c-0.3-0.2-0.7-0.5-1.4-0.5c-1.4,0-2.4,1-2.4,3.2
	c0,2.2,0.9,3,2,3c1,0,1.5-0.4,1.7-0.7L155.8,213z M157.4,218.8l1.2,0.2c0,0,0,0.1,0,0.1c0,0.3-0.2,0.5-0.6,0.5l-2.2,0.2v-1.1h0
	c-0.4,0.5-1.1,1.2-2.4,1.2c-1.6,0-3.2-1-3.2-3.9c0-3.1,2.2-4.5,4.3-4.5c0.5,0,0.9,0.1,1.2,0.2v-2.9l-1.2-0.2c0,0,0-0.1,0-0.2
	c0-0.3,0.2-0.5,0.6-0.5l2.3-0.2V218.8 M164.3,214.9c0-0.1,0.1-0.4,0.1-0.7c0-0.9-0.3-1.7-1.3-1.7c-1,0-1.6,0.8-1.7,2.4H164.3z
	 M161.4,215.8c0,2.1,1,3,2.4,3c1.1,0,1.7-0.4,2.1-0.8c0.2,0.1,0.2,0.4,0.2,0.6c0,0.4-1.1,1.4-2.9,1.4c-2,0-3.6-1.2-3.6-4.1
	c0-2.9,1.8-4.4,3.6-4.4c1.9,0,2.8,1.1,2.8,2.8c0,0.4-0.1,1-0.2,1.4H161.4 M171.3,212.7c-0.2-0.1-0.6-0.3-1.1-0.3
	c-0.5,0-1.1,0.2-1.1,0.9c0,0.7,0.8,1.2,1.6,1.6c1,0.6,2.1,1.2,2.1,2.6c0,1.4-1.1,2.4-3,2.4c-0.9,0-1.8-0.3-2.1-0.5
	c-0.1-0.4-0.1-0.8-0.1-1.3c0-0.7,0.2-0.9,0.7-0.9c0.1,0,0.2,0,0.2,0l0.3,1.4c0.2,0.1,0.7,0.3,1.1,0.3c0.8,0,1.3-0.3,1.3-1
	c0-0.7-0.8-1.1-1.6-1.6c-1-0.6-2-1.3-2-2.7c0-1.3,1.1-2.2,2.7-2.2c1,0,1.7,0.3,1.9,0.6c0,0.2,0.1,0.6,0.1,0.9c0,0.6-0.1,1-0.7,1
	c-0.1,0-0.2,0-0.2,0L171.3,212.7 M178.8,212.6h-2.3v4.9c0,0.7,0.2,1.4,1.1,1.4c0.6,0,1.2-0.3,1.3-0.4c0.1,0.1,0.2,0.4,0.2,0.5
	c0,0.2-0.6,0.9-2.1,0.9c-1.5,0-2.1-0.9-2.1-2.2v-5.2h-1.2c0,0,0-0.1,0-0.2c0-0.3,0.2-0.5,0.5-0.6l0.8-0.2l0.4-2.3h1.2v2.3h2.5
	L178.8,212.6 M183.7,216.2c-1.3,0.1-2.1,0.5-2.1,1.4c0,0.7,0.4,1.2,1.1,1.2c0.7,0,1.2-0.4,1.4-0.7v-1.9L183.7,216.2z M185.7,218
	c0,0.7,0.2,0.9,0.5,0.9c0.4,0,0.6-0.2,0.6-0.3c0.1,0.1,0.2,0.4,0.2,0.5c0,0.2-0.4,0.9-1.5,0.9c-0.8,0-1.3-0.3-1.4-1.2h0
	c-0.2,0.3-0.8,1.2-2.2,1.2c-1.3,0-2.2-0.9-2.2-2.2c0-1.8,1.9-2.4,3.8-2.4h0.4v-0.7c0-1.5-0.4-2.1-1.4-2.1c-0.4,0-0.7,0.1-0.8,0.2
	c-0.2,0.3-0.3,0.9-0.4,1.5c0,0-0.3,0-0.4,0c-0.6,0-0.9-0.3-0.9-0.8c0-1,1.4-1.8,2.9-1.8c1.8,0,2.7,1,2.7,2.9L185.7,218 M189.7,214.2
	c0,1.3,0.7,1.8,1.5,1.8c0.9,0,1.6-0.5,1.6-1.8c0-1.2-0.7-1.8-1.5-1.8C190.3,212.4,189.7,212.9,189.7,214.2z M190.4,219.7
	c-0.2,0-0.4,0-0.6,0c-0.4,0.2-0.7,0.7-0.7,1.2c0,0.9,0.5,1.4,1.7,1.4c1.6,0,2.6-0.8,2.6-1.6c0-0.7-0.4-1-1.2-1H190.4z M195.2,212.7
	h-1.4c0.3,0.4,0.5,0.9,0.5,1.5c0,1.8-1.5,2.8-3.3,2.8c-0.3,0-0.5,0-0.8-0.1c-0.2,0.1-0.5,0.4-0.5,0.7c0,0.4,0.3,0.6,0.8,0.6h1.9
	c1.5,0,2.4,0.7,2.4,1.9c0,1.7-1.6,3.2-4.4,3.2c-2,0-3-0.7-3-1.9c0-1.2,0.9-1.7,1.5-1.9v0c-0.4-0.2-0.7-0.6-0.7-1.2
	c0-1,0.9-1.4,1.2-1.6v0c-0.9-0.4-1.5-1.3-1.5-2.5c0-1.8,1.5-2.7,3.2-2.7c0.4,0,0.9,0.1,1.3,0.2h2.9L195.2,212.7 M200.9,214.9
	c0-0.1,0.1-0.4,0.1-0.7c0-0.9-0.3-1.7-1.3-1.7c-1,0-1.6,0.8-1.7,2.4H200.9z M198,215.8c0,2.1,1,3,2.4,3c1.1,0,1.7-0.4,2.1-0.8
	c0.2,0.1,0.2,0.4,0.2,0.6c0,0.4-1.1,1.4-2.9,1.4c-2,0-3.6-1.2-3.6-4.1c0-2.9,1.7-4.4,3.6-4.4c1.9,0,2.8,1.1,2.8,2.8
	c0,0.4-0.1,1-0.2,1.4H198 M207.9,212.7c-0.2-0.1-0.6-0.3-1.1-0.3c-0.5,0-1.1,0.2-1.1,0.9c0,0.7,0.8,1.2,1.6,1.6
	c1,0.6,2.1,1.2,2.1,2.6c0,1.4-1.1,2.4-3,2.4c-0.9,0-1.8-0.3-2.1-0.5c-0.1-0.4-0.1-0.8-0.1-1.3c0-0.7,0.2-0.9,0.7-0.9
	c0.1,0,0.2,0,0.2,0l0.3,1.4c0.2,0.1,0.7,0.3,1.1,0.3c0.8,0,1.3-0.3,1.3-1c0-0.7-0.8-1.1-1.6-1.6c-1-0.6-2-1.3-2-2.7
	c0-1.3,1.1-2.2,2.7-2.2c1,0,1.7,0.3,2,0.6c0,0.2,0.1,0.6,0.1,0.9c0,0.6-0.1,1-0.7,1c-0.1,0-0.2,0-0.2,0L207.9,212.7"/>
<path class="st1" d="M61.7,122.3H64V154h-5.6v-31.7H61.7"/>
<path class="st2" d="M61.7,90.4H64v31.9h-5.6V90.4H61.7"/>
<path class="st0" d="M34.2,70.5c0-0.4,0.1-0.7,0.1-1.1c0-0.2,0-0.4,0-0.7c3.2,0,5.9-2.3,5.9-4.9c0-1.3-0.9-2.3-1.4-2.9
	c0.1,0,0.2,0,0.3-0.1c0.5,0.4,1.8,1.8,1.8,3.6C40.9,67.5,37.8,70.4,34.2,70.5L34.2,70.5z M31,59.5c-0.1-0.3-0.2-0.7-0.4-0.9
	c0-0.3,0.1-0.6,0.7-0.4C31,58.5,31.2,59,31.2,59s0.6-0.3,0.5-0.6C32.5,58.5,31.9,59.7,31,59.5L31,59.5z M30.2,61.1
	c-0.1-0.5-0.4-1-0.7-1.3c-0.3-0.3-0.7-0.7-1.4-0.7c-0.3,0-0.8,0.1-1.1,0.3c-0.1-0.2-0.3-0.7-0.3-0.9c0-0.2,0.4-0.5,1.1-0.5
	c1.6,0,2.6,0.7,2.6,2C30.6,60.4,30.4,60.8,30.2,61.1L30.2,61.1z M34.5,82.2c0.2,0,0.3,0,0.4,0.1c0.5,1.3,2.3,3.7,2.4,3.8l0,0l0,0
	c0.4-0.1,1.6-0.2,2.5-0.2h0c0.1,0,0.2,0,0.3,0.1c0.1,0.1,0.1,0.2,0.1,0.3c0,0.2-0.1,0.6-0.2,0.8c-0.3-0.4-0.9-0.5-1.7-0.5
	c-0.3,0-0.6,0.1-0.7,0.1l-0.1,0l-0.1,0l0.5,0.5c0.8,0.8,1.4,1.4,1.4,1.9c0,0.3-0.3,0.6-0.5,0.8c-0.1-0.8-0.9-1.9-1.7-2.5l-0.1-0.1
	l0,0.3c0,0.2,0,0.5,0,0.8c0,1.5-0.2,1.8-0.7,1.8c-0.1,0-0.2,0-0.3-0.1c0.3-0.4,0.4-0.9,0.4-1.7l0-0.4l0-0.3c0-0.4,0-0.6,0.1-0.8
	l0-0.1l-0.1,0c-0.3,0-0.7-0.1-1.1-0.1c-0.8,0-1.3,0.1-1.7,0.4c-0.2-0.2-0.5-0.5-0.5-0.8c0-0.3,0.2-0.3,0.5-0.3c0.1,0,0.3,0,0.4,0
	c0.3,0,0.8,0.1,1.8,0.1H36l0-0.1c-0.3-0.7-1-1.8-2.1-3.2C34,82.5,34.1,82.2,34.5,82.2z M24.7,86L24.7,86L24.7,86
	c1.1,0.1,1.6,0,1.9-0.1c0.2,0,0.3,0,0.4,0c0.3,0,0.5,0,0.5,0.3c0,0.2-0.3,0.6-0.5,0.8c-0.4-0.4-0.9-0.4-1.7-0.4
	c-0.4,0-0.8,0.1-1.1,0.1l0,0l0,0l0,0.1c0,0.2,0.1,0.5,0.1,0.8l0,0.3l0,0.4c0,0.9,0.1,1.4,0.4,1.7c-0.1,0-0.2,0.1-0.3,0.1
	c-0.5,0-0.7-0.2-0.7-1.8c0-0.3,0-0.6,0-0.8l0-0.3l-0.1,0.1c-0.8,0.6-1.6,1.7-1.7,2.5c-0.2-0.2-0.5-0.5-0.5-0.8
	c0-0.4,0.7-1.1,1.4-1.9l0.4-0.4l0.1-0.1l-0.1,0c-0.2,0-0.5-0.1-0.7-0.1c-0.9,0-1.4,0.2-1.7,0.5c-0.1-0.2-0.2-0.6-0.2-0.8
	c0-0.2,0-0.3,0.1-0.3c0.1-0.1,0.2-0.1,0.3-0.1h0c1,0,2.1,0.2,2.5,0.2l0,0l0,0c0.1-0.1,1.9-2.5,2.4-3.8c0.1,0,0.2-0.1,0.4-0.1
	c0.4,0,0.5,0.2,0.6,0.6C25.6,84.2,24.9,85.3,24.7,86L24.7,86z M19.7,64.3c0-1.8,1.3-3.2,1.8-3.6c0.1,0,0.2,0.1,0.3,0.1
	c-0.5,0.6-1.4,1.6-1.4,2.9c0,2.6,2.8,4.9,6,4.9c0,0.2,0,0.5,0,0.7c0,0.4,0,0.8,0.1,1.1C22.9,70.4,19.7,67.5,19.7,64.3L19.7,64.3z
	 M44,69.9c1.6,2.6,2.9,2.5,4.8,2.5c-1.6-1.2-2.6-2.8-3.1-3.6l-3-4.7c-0.3-1.5-1-2.8-2.2-3.9c0.4-0.1,0.7-0.3,0.9-0.4
	c-1.9,0-3.9-1-4.9-1c-0.7,0-1.1,0.4-1.1,0.9c0,0.6,0.7,1.2,1.8,1.2c0.3,0,0.6,0,0.9-0.1c0.6,0.9,1.1,1.6,1.1,2.7
	c0,2.1-2.5,3.7-5,3.7c-0.1,0-0.3,0-0.4,0c-0.2-0.5-1-1.4-1-2.4c0-1.7,1.1-3,1.1-4.6c0-1-0.5-1.6-0.7-1.9c0.3-0.3,0.6-0.6,0.7-0.9
	c-0.2,0.1-0.4,0.1-0.7,0.1c-1.2,0-2.2-0.3-3.1-0.3c-0.5,0-0.7,0.2-0.7,0.3c0,0.1,0,0.1,0,0.1c-0.2-0.1-0.4-0.1-0.6-0.2
	c-0.3-0.1-0.6-0.1-0.9-0.1c-1.2,0-1.6,0.5-1.6,0.9c0,0.4,0.3,1,0.6,1.5c0.5-0.2,1-0.4,1.2-0.4c0.6,0,1.2,0.6,1.5,1.3
	c-0.4,0.1-0.5,0.1-0.9,0.1c-1.1,0-1.9-0.4-2.1-0.4c0,0,0,0,0,0c0,0.2,0.3,0.6,1,0.8c0.8,0.3,2.1,0.4,2.3,0.5c0,0-0.2,0.4-0.4,0.5
	c-0.1,0-0.1,0-0.1,0c-0.9-0.2-1.1-0.2-2.2-0.7c0,0-0.1,0-0.1,0c0,0.4,1.1,1.4,2.1,1.8c-0.8,1.1-1.9,2.2-2.4,3.9c-0.1,0-0.3,0-0.4,0
	c-2.5,0-5-1.6-5-3.7c0-1.1,0.5-1.9,1.1-2.7c0.4,0.1,0.7,0.1,0.9,0.1c1.1,0,1.8-0.6,1.8-1.2c0-0.5-0.4-0.9-1.1-0.9c-1.1,0-3,1-4.9,1
	c0.2,0.1,0.5,0.3,0.9,0.4c-1.1,1-1.9,2.4-2.2,3.9l-3,4.7c-0.5,0.8-1.6,2.4-3.1,3.6c1.9,0,3.2,0,4.8-2.5l1.5-2.4
	c0.1,0.3,0.3,0.6,0.4,0.9l-3,4.8C15,74,14,75.6,12.4,76.8c1.9,0,3.2,0,4.8-2.5l2.6-4.2c0.2,0.2,0.4,0.4,0.6,0.6l-3.7,5.9
	c-0.5,0.8-1.5,2.3-3.1,3.6c1.9,0,3.2,0,4.8-2.5l3.6-5.7c0.2,0.2,0.5,0.3,0.7,0.4l-4.4,7c-0.5,0.8-1.5,2.3-3.1,3.6
	c1.9,0,3.2,0,4.8-2.5l4.5-7.2c0.3,0.1,0.5,0.2,0.8,0.3l-5.1,8.1c-0.5,0.8-1.6,2.4-3.1,3.6c1.9,0,3.2,0,4.8-2.5l5.4-8.7
	c0.1,0,0.1,0,0.2,0c0.1,0.5,0.3,0.9,0.3,1.3c0,2.7-1.8,5.1-3.9,7c0.1,0.1,0.4,0.1,0.6,0.1c0.4,0,0.7,0,0.9-0.1
	c-0.5,1.1-1.6,2.6-2.1,3.3c-0.7-0.1-1.7-0.2-2.4-0.2c-0.7,0-0.8,0.4-0.8,0.8c0,0.6,0.3,1.1,0.6,1.4c0.1-0.3,0.4-0.8,1.7-0.8
	c0,0,0.1,0,0.1,0c-0.4,0.4-1.6,1.4-1.6,2.2c0,0.5,0.6,1.3,1.3,1.3c0-0.2,0-0.3,0-0.4c0-0.6,0.6-1.4,1-1.9c0,0.2,0,0.1,0,0.3
	c0,1.5,0.1,2.2,1.1,2.2c0.5,0,0.8-0.3,0.9-0.3c-0.6-0.6-0.6-1-0.6-1.8c0-0.2,0-0.4,0-0.7c0-0.2,0-0.4,0-0.6c0.3,0,0.5,0,0.7,0
	c0,0,1.3-0.1,1.7,0.6c0.4-0.3,0.9-0.8,0.9-1.3c0-0.3-0.2-0.7-0.8-0.7c-0.3,0-1.1,0.2-1.8,0.2c0.2-0.4,1-1.6,1.7-2.5
	c0.1,0.3,0.3,0.7,0.6,1c0.1-0.6,0.4-2.3,1.3-3.4c0.1,0.7,0.2,1.4,0.2,2.9c0,3.7-0.9,6.4-2.8,6.9c0.2,0.4,0.8,0.8,1.3,0.8
	c0.7,0,1.1-0.8,1.4-1.5c0.2,0.5,0.7,1.9,1.3,1.9s1.1-1.3,1.3-1.9c0.4,0.7,0.8,1.5,1.4,1.5c0.5,0,1.1-0.4,1.3-0.8
	c-1.9-0.5-2.8-3.2-2.8-6.9c0-1.5,0.1-2.2,0.2-2.9c0.9,1,1.2,2.8,1.3,3.4c0.4-0.3,0.5-0.7,0.6-1c0.7,0.9,1.5,2.1,1.7,2.5
	c-0.7,0-1.5-0.2-1.8-0.2c-0.7,0-0.8,0.4-0.8,0.7c0,0.5,0.5,1,0.9,1.3c0.3-0.7,1.7-0.6,1.7-0.6c0.3,0,0.4,0,0.7,0c0,0.2,0,0.4,0,0.6
	c0,0.3,0,0.5,0,0.7c0,0.8,0,1.3-0.6,1.8c0.1,0.1,0.4,0.3,0.9,0.3c0.9,0,1.1-0.7,1.1-2.2c0-0.2,0-0.2,0-0.3c0.5,0.5,1,1.2,1,1.9
	c0,0.1,0,0.3,0,0.4c0.7,0,1.3-0.8,1.3-1.3c0-0.8-1.2-1.7-1.6-2.2c0.1,0,0.1,0,0.1,0c1.3,0,1.6,0.4,1.7,0.8c0.3-0.3,0.6-0.8,0.6-1.4
	c0-0.4-0.1-0.8-0.8-0.8c-0.7,0-1.7,0.1-2.4,0.2c-0.5-0.8-1.6-2.2-2.1-3.3c0.2,0,0.5,0.1,0.9,0.1c0.2,0,0.5,0,0.6-0.1
	c-2.1-1.9-3.9-4.3-3.9-7c0-0.4,0.1-0.9,0.3-1.3c0.1,0,0.1,0,0.2,0l5.4,8.7c1.6,2.6,2.9,2.5,4.8,2.5c-1.6-1.2-2.6-2.8-3.1-3.6
	l-5.1-8.1c0.3-0.1,0.5-0.2,0.8-0.3l4.5,7.2c1.6,2.6,2.9,2.5,4.8,2.5c-1.6-1.2-2.6-2.8-3.1-3.6l-4.4-7c0.2-0.1,0.5-0.3,0.7-0.4
	l3.6,5.7c1.6,2.6,2.9,2.5,4.8,2.5c-1.6-1.2-2.6-2.8-3.1-3.6l-3.7-5.9c0.2-0.2,0.4-0.4,0.6-0.6l2.6,4.2c1.6,2.6,2.9,2.5,4.8,2.5
	c-1.6-1.2-2.6-2.8-3.1-3.6l-3-4.8c0.2-0.3,0.3-0.6,0.4-0.9L44,69.9 M64,58.8v31.7h-5.6V58.8H64 M186.7,101.5l-3.7,6.7v0h3.9
	l-0.1,1.3h-5.8v-1l3.8-6.8v0h-3.6v-1.2h5.4L186.7,101.5z M179.9,101.8h-2v5c0,0.6,0.1,1.1,0.2,1.3c0.2,0.2,0.4,0.3,0.8,0.3
	c0.2,0,0.4,0,0.6-0.1c0.2-0.1,0.3-0.1,0.4-0.2l0.2,1.2c-0.1,0.1-0.2,0.1-0.5,0.2c-0.2,0.1-0.6,0.2-1,0.2c-0.8,0-1.4-0.2-1.8-0.7
	c-0.4-0.4-0.6-1.2-0.6-2.2v-5.2h-1.1v-1l1.1-0.2l0.2-2.5h1.4v2.5h2.2L179.9,101.8z M173.7,109.6h-1.4v-1h0c0,0.1-0.1,0.2-0.2,0.3
	c-0.1,0.1-0.3,0.3-0.5,0.4c-0.2,0.1-0.4,0.2-0.7,0.3c-0.3,0.1-0.6,0.2-0.9,0.2c-0.4,0-0.8-0.1-1.1-0.2c-0.3-0.1-0.6-0.3-0.8-0.6
	c-0.2-0.3-0.4-0.6-0.5-1c-0.1-0.4-0.2-0.9-0.2-1.6v-5.9h1.5v5.8c0,0.8,0.1,1.3,0.4,1.6c0.2,0.3,0.6,0.5,1.1,0.5
	c0.4,0,0.8-0.1,1.1-0.3c0.3-0.2,0.5-0.4,0.7-0.7v-7h1.5L173.7,109.6z M163.6,109.6v-5.8c0-0.8-0.1-1.3-0.4-1.7
	c-0.3-0.3-0.7-0.5-1.2-0.5c-0.5,0-0.8,0.1-1.1,0.3c-0.3,0.2-0.5,0.4-0.7,0.7v7h-1.5V96.2l1.5-0.2v5.4h0c0-0.1,0.1-0.2,0.2-0.3
	c0.1-0.1,0.3-0.3,0.4-0.4c0.2-0.1,0.4-0.2,0.7-0.3c0.3-0.1,0.6-0.1,1-0.1c0.8,0,1.4,0.3,1.9,0.8c0.5,0.5,0.7,1.4,0.7,2.6v5.9
	L163.6,109.6z M156.4,102.3c0,0-0.1-0.1-0.2-0.2c-0.1-0.1-0.2-0.2-0.3-0.2c-0.1-0.1-0.3-0.1-0.5-0.2c-0.2-0.1-0.4-0.1-0.6-0.1
	c-0.3,0-0.6,0.1-0.9,0.2c-0.3,0.1-0.5,0.3-0.7,0.6c-0.2,0.3-0.4,0.6-0.5,1c-0.1,0.4-0.2,0.9-0.2,1.5c0,0.7,0.1,1.2,0.2,1.7
	c0.1,0.5,0.3,0.8,0.4,1.1c0.2,0.3,0.4,0.5,0.7,0.6c0.3,0.1,0.6,0.2,0.9,0.2c0.5,0,0.8-0.1,1.1-0.2c0.2-0.2,0.4-0.3,0.5-0.4l0.6,1.1
	c-0.1,0.1-0.2,0.2-0.3,0.3c-0.1,0.1-0.3,0.2-0.5,0.3c-0.2,0.1-0.4,0.2-0.7,0.3c-0.3,0.1-0.6,0.1-0.9,0.1c-0.5,0-1-0.1-1.4-0.2
	c-0.4-0.2-0.8-0.4-1.2-0.8c-0.3-0.4-0.6-0.9-0.8-1.5c-0.2-0.6-0.3-1.4-0.3-2.2c0-0.9,0.1-1.6,0.3-2.2c0.2-0.6,0.5-1.1,0.9-1.5
	c0.4-0.4,0.8-0.6,1.2-0.8c0.4-0.2,0.9-0.3,1.4-0.3c0.3,0,0.6,0,0.9,0.1c0.3,0.1,0.5,0.1,0.7,0.2c0.2,0.1,0.3,0.2,0.5,0.3
	c0.1,0.1,0.2,0.2,0.3,0.3L156.4,102.3z M148.6,102.3c-0.1-0.1-0.3-0.3-0.5-0.5c-0.3-0.2-0.6-0.3-1-0.3c-0.4,0-0.7,0.1-0.9,0.3
	c-0.2,0.2-0.3,0.4-0.3,0.7c0,0.3,0.1,0.6,0.3,0.8c0.2,0.2,0.5,0.5,0.9,0.7l0.6,0.3c0.6,0.4,1.1,0.8,1.5,1.2c0.4,0.4,0.5,1,0.5,1.6
	c0,0.7-0.2,1.3-0.7,1.8c-0.5,0.5-1.2,0.7-2.1,0.7c-0.4,0-0.7,0-1-0.1c-0.3-0.1-0.5-0.2-0.7-0.3c-0.2-0.1-0.4-0.2-0.5-0.3
	c-0.1-0.1-0.3-0.2-0.3-0.3l0.7-1.2c0.1,0.1,0.2,0.2,0.3,0.3c0.1,0.1,0.2,0.2,0.4,0.3c0.2,0.1,0.3,0.2,0.5,0.2
	c0.2,0.1,0.4,0.1,0.7,0.1c0.5,0,0.8-0.1,1-0.3c0.2-0.2,0.4-0.4,0.4-0.7c0-0.2,0-0.4-0.1-0.6c-0.1-0.2-0.1-0.3-0.3-0.4
	c-0.1-0.1-0.3-0.2-0.4-0.4c-0.2-0.1-0.4-0.2-0.6-0.4l-0.6-0.4c-0.6-0.4-1-0.7-1.3-1.2c-0.3-0.4-0.5-0.9-0.5-1.5
	c0-0.3,0.1-0.7,0.2-0.9c0.1-0.3,0.3-0.5,0.6-0.7c0.2-0.2,0.5-0.4,0.8-0.5s0.7-0.2,1-0.2c0.4,0,0.7,0,0.9,0.1
	c0.3,0.1,0.5,0.2,0.7,0.3c0.2,0.1,0.3,0.2,0.5,0.3c0.1,0.1,0.2,0.2,0.3,0.3L148.6,102.3z M139.4,108.5c0.2,0,0.4,0,0.6-0.1
	c0.2-0.1,0.3-0.1,0.4-0.2c0.1-0.1,0.2-0.2,0.3-0.3c0.1-0.1,0.2-0.2,0.2-0.3v-2l-0.5,0c-0.7,0-1.3,0.2-1.7,0.4s-0.6,0.6-0.6,1.1
	c0,0.5,0.1,0.8,0.3,1C138.7,108.4,139,108.5,139.4,108.5L139.4,108.5z M136.7,107.3c0-0.5,0.1-1,0.3-1.3c0.2-0.3,0.5-0.6,0.8-0.9
	c0.3-0.2,0.7-0.4,1.2-0.5c0.5-0.1,0.9-0.1,1.5-0.1h0.5v-0.9c0-0.8-0.1-1.3-0.4-1.6c-0.3-0.3-0.7-0.4-1.1-0.4c-0.5,0-0.8,0.1-1.1,0.3
	c-0.3,0.2-0.5,0.4-0.7,0.5l-0.6-1c0.1-0.1,0.2-0.2,0.4-0.3c0.2-0.1,0.3-0.2,0.6-0.4c0.2-0.1,0.5-0.2,0.8-0.3c0.3-0.1,0.6-0.1,1-0.1
	c0.9,0,1.6,0.3,2.1,0.8c0.5,0.5,0.7,1.3,0.7,2.5v4.1c0,0.4,0,0.8,0,1.1c0,0.4,0,0.6,0.1,0.7h-1.5l-0.1-1h0c0,0.1-0.1,0.2-0.2,0.4
	c-0.1,0.1-0.2,0.3-0.4,0.4c-0.2,0.1-0.3,0.2-0.5,0.3c-0.2,0.1-0.5,0.1-0.8,0.1c-0.3,0-0.7-0.1-1-0.2c-0.3-0.1-0.6-0.3-0.8-0.5
	c-0.2-0.2-0.4-0.5-0.5-0.8C136.7,108,136.7,107.6,136.7,107.3L136.7,107.3z M128.6,109.6v-5.8c0-0.7-0.1-1.3-0.3-1.6
	c-0.2-0.3-0.6-0.5-1-0.5c-0.3,0-0.5,0-0.7,0.1c-0.2,0.1-0.4,0.1-0.5,0.2c-0.1,0.1-0.3,0.2-0.4,0.3c-0.1,0.1-0.2,0.2-0.3,0.3v7h-1.5
	v-9.1h1.4v1h0c0.1-0.1,0.2-0.2,0.3-0.4c0.1-0.1,0.3-0.3,0.5-0.4c0.2-0.1,0.4-0.2,0.7-0.3c0.3-0.1,0.5-0.1,0.8-0.1
	c1,0,1.8,0.4,2.2,1.2c0.1-0.1,0.2-0.3,0.4-0.4c0.2-0.1,0.3-0.3,0.5-0.4c0.2-0.1,0.4-0.2,0.7-0.3c0.3-0.1,0.5-0.1,0.8-0.1
	c1.8,0,2.8,1.1,2.8,3.2v6.1h-1.5v-5.8c0-0.7-0.1-1.3-0.4-1.6c-0.3-0.3-0.7-0.5-1.2-0.5c-0.4,0-0.8,0.1-1.1,0.3
	c-0.3,0.2-0.5,0.4-0.7,0.6c0,0.1,0,0.3,0.1,0.4c0,0.2,0,0.3,0,0.5v6.1L128.6,109.6z M120.8,98.3c-0.3,0-0.6-0.1-0.8-0.3
	c-0.2-0.2-0.3-0.5-0.3-0.8c0-0.3,0.1-0.6,0.3-0.8c0.2-0.2,0.4-0.3,0.8-0.3c0.3,0,0.5,0.1,0.7,0.3c0.2,0.2,0.3,0.5,0.3,0.8
	c0,0.3-0.1,0.6-0.3,0.8C121.3,98.2,121.1,98.3,120.8,98.3z M121.5,109.6H120v-9.1h1.5V109.6z M117.2,107.5c0,0.4,0.1,0.6,0.2,0.8
	c0.1,0.2,0.3,0.2,0.6,0.2c0.1,0,0.3,0,0.3,0c0.1,0,0.2-0.1,0.2-0.1l0.1,1.1c-0.1,0-0.2,0.1-0.4,0.2c-0.2,0.1-0.5,0.1-0.8,0.1
	c-0.5,0-0.9-0.2-1.2-0.5c-0.3-0.3-0.5-0.9-0.5-1.7V96.2l1.5-0.2V107.5z M110.1,102.9l4.4,6.7h-2l-3.8-5.9h-1v5.9h-1.6v-13h1.6v5.8h1
	l3.6-5.8h1.8L110.1,102.9z M96.2,108.4c0.2,0,0.5,0,0.6-0.1c0.2-0.1,0.4-0.1,0.5-0.2c0.1-0.1,0.3-0.2,0.3-0.3
	c0.1-0.1,0.2-0.2,0.2-0.3V102c-0.1-0.1-0.3-0.2-0.5-0.2c-0.2-0.1-0.4-0.1-0.7-0.1c-0.4,0-0.7,0.1-1,0.2c-0.3,0.1-0.6,0.3-0.8,0.6
	c-0.2,0.3-0.4,0.6-0.5,1.1c-0.1,0.4-0.2,1-0.2,1.6c0,0.6,0.1,1.2,0.2,1.6c0.1,0.4,0.3,0.8,0.4,1c0.2,0.3,0.4,0.4,0.6,0.6
	C95.6,108.4,95.9,108.4,96.2,108.4z M92.6,105.2c0-0.9,0.1-1.7,0.4-2.3c0.2-0.6,0.5-1.1,0.9-1.5c0.4-0.4,0.8-0.6,1.3-0.8
	c0.5-0.2,1-0.2,1.4-0.2c0.3,0,0.5,0,0.8,0.1c0.2,0,0.4,0.1,0.5,0.2v-4.3l1.5-0.2v13.5H98v-1h0c0,0.1-0.1,0.2-0.2,0.3
	c-0.1,0.1-0.2,0.3-0.4,0.4c-0.2,0.1-0.4,0.2-0.7,0.3c-0.3,0.1-0.6,0.1-0.9,0.1c-0.4,0-0.8-0.1-1.2-0.3c-0.4-0.2-0.7-0.4-1-0.8
	c-0.3-0.4-0.5-0.8-0.7-1.4C92.7,106.7,92.6,106,92.6,105.2z M89.2,109.6v-5.8c0-0.8-0.1-1.3-0.4-1.7c-0.3-0.3-0.7-0.5-1.2-0.5
	c-0.5,0-0.8,0.1-1.1,0.3c-0.3,0.2-0.5,0.4-0.7,0.7v7h-1.5v-9.1h1.4v1h0c0-0.1,0.1-0.2,0.2-0.3c0.1-0.1,0.3-0.3,0.5-0.4
	c0.2-0.1,0.4-0.2,0.7-0.3c0.3-0.1,0.6-0.2,0.9-0.2c0.4,0,0.8,0.1,1.1,0.2c0.3,0.1,0.6,0.3,0.8,0.6c0.2,0.3,0.4,0.6,0.5,1
	c0.1,0.4,0.2,0.9,0.2,1.6v5.9L89.2,109.6z M81.9,109.6h-1.4v-1h0c0,0.1-0.1,0.2-0.2,0.3c-0.1,0.1-0.3,0.3-0.5,0.4
	c-0.2,0.1-0.4,0.2-0.7,0.3c-0.3,0.1-0.6,0.2-0.9,0.2c-0.4,0-0.8-0.1-1.1-0.2c-0.3-0.1-0.6-0.3-0.8-0.6c-0.2-0.3-0.4-0.6-0.5-1
	c-0.1-0.4-0.2-0.9-0.2-1.6v-5.9H77v5.8c0,0.8,0.1,1.3,0.4,1.6c0.2,0.3,0.6,0.5,1.1,0.5c0.4,0,0.8-0.1,1.1-0.3
	c0.3-0.2,0.5-0.4,0.7-0.7v-7h1.5V109.6z M167.5,82.7h-2v5c0,0.6,0.1,1.1,0.2,1.3c0.2,0.2,0.4,0.3,0.8,0.3c0.2,0,0.4,0,0.6-0.1
	c0.2-0.1,0.3-0.1,0.4-0.2l0.2,1.2c-0.1,0.1-0.2,0.1-0.5,0.2c-0.2,0.1-0.6,0.2-1,0.2c-0.8,0-1.4-0.2-1.8-0.7
	c-0.4-0.4-0.6-1.2-0.6-2.2v-5.2h-1.1v-1l1.1-0.2l0.2-2.5h1.4v2.5h2.2L167.5,82.7z M162.1,82.7h-1.9v7.8h-1.5v-7.8h-1.1v-1l1.1-0.2
	v-1.8c0-0.5,0.1-0.9,0.2-1.3c0.1-0.4,0.3-0.6,0.5-0.9c0.2-0.2,0.5-0.4,0.8-0.5c0.3-0.1,0.6-0.1,1-0.1c0.3,0,0.6,0,0.8,0.1
	c0.2,0.1,0.4,0.2,0.5,0.2l-0.3,1.3c-0.1-0.1-0.2-0.1-0.3-0.2c-0.1-0.1-0.3-0.1-0.5-0.1c-0.4,0-0.6,0.1-0.8,0.3
	c-0.2,0.2-0.3,0.6-0.3,1.2v1.6h2L162.1,82.7z M152.9,89.5c0.2,0,0.4,0,0.6-0.1c0.2-0.1,0.3-0.1,0.4-0.2c0.1-0.1,0.2-0.2,0.3-0.3
	c0.1-0.1,0.2-0.2,0.2-0.3v-2l-0.5,0c-0.7,0-1.3,0.2-1.7,0.4c-0.4,0.2-0.6,0.6-0.6,1.1c0,0.5,0.1,0.8,0.3,1
	C152.3,89.3,152.6,89.5,152.9,89.5L152.9,89.5z M150.2,88.2c0-0.5,0.1-1,0.3-1.3c0.2-0.3,0.5-0.6,0.8-0.9c0.3-0.2,0.7-0.4,1.2-0.5
	c0.5-0.1,0.9-0.1,1.5-0.1h0.5v-0.9c0-0.8-0.1-1.3-0.4-1.6c-0.3-0.3-0.7-0.4-1.1-0.4c-0.5,0-0.8,0.1-1.1,0.3
	c-0.3,0.2-0.5,0.4-0.7,0.5l-0.6-1c0.1-0.1,0.2-0.2,0.4-0.3c0.2-0.1,0.3-0.2,0.6-0.4c0.2-0.1,0.5-0.2,0.8-0.3c0.3-0.1,0.6-0.1,1-0.1
	c0.9,0,1.6,0.3,2.1,0.8c0.5,0.5,0.7,1.3,0.7,2.5v4.1c0,0.4,0,0.8,0,1.1c0,0.4,0.1,0.6,0.1,0.7h-1.5l-0.1-1h0
	c-0.1,0.1-0.1,0.2-0.2,0.4c-0.1,0.2-0.2,0.3-0.4,0.4c-0.2,0.1-0.3,0.2-0.5,0.3c-0.2,0.1-0.5,0.1-0.8,0.1c-0.3,0-0.7-0.1-1-0.2
	c-0.3-0.1-0.6-0.3-0.8-0.5c-0.2-0.2-0.4-0.5-0.5-0.8C150.3,88.9,150.2,88.6,150.2,88.2L150.2,88.2z M146.9,90.5v-5.8
	c0-0.8-0.1-1.3-0.4-1.7c-0.3-0.3-0.7-0.5-1.2-0.5c-0.5,0-0.8,0.1-1.1,0.3c-0.3,0.2-0.5,0.4-0.7,0.7v7H142V77.2l1.5-0.2v5.4h0
	c0.1-0.1,0.1-0.2,0.2-0.3c0.1-0.1,0.3-0.3,0.4-0.4c0.2-0.1,0.4-0.2,0.7-0.3c0.3-0.1,0.6-0.1,1-0.1c0.8,0,1.4,0.3,1.9,0.8
	c0.5,0.5,0.7,1.4,0.7,2.6v5.9H146.9z M139.7,83.2c0,0-0.1-0.1-0.2-0.2c-0.1-0.1-0.2-0.2-0.3-0.2c-0.1-0.1-0.3-0.1-0.5-0.2
	s-0.4-0.1-0.6-0.1c-0.3,0-0.6,0.1-0.9,0.2c-0.3,0.1-0.5,0.3-0.7,0.6c-0.2,0.3-0.4,0.6-0.5,1c-0.1,0.4-0.2,0.9-0.2,1.5
	c0,0.7,0.1,1.2,0.2,1.7c0.1,0.5,0.3,0.8,0.4,1.1c0.2,0.3,0.4,0.5,0.7,0.6c0.3,0.1,0.6,0.2,0.9,0.2c0.5,0,0.8-0.1,1.1-0.2
	c0.2-0.2,0.4-0.3,0.5-0.4l0.6,1.1c-0.1,0.1-0.2,0.2-0.3,0.3c-0.1,0.1-0.3,0.2-0.5,0.3c-0.2,0.1-0.4,0.2-0.7,0.3
	c-0.3,0.1-0.6,0.1-0.9,0.1c-0.5,0-1-0.1-1.4-0.2c-0.4-0.2-0.8-0.4-1.2-0.8c-0.3-0.4-0.6-0.9-0.8-1.5c-0.2-0.6-0.3-1.4-0.3-2.2
	c0-0.9,0.1-1.6,0.3-2.2c0.2-0.6,0.5-1.1,0.9-1.5c0.4-0.4,0.8-0.6,1.2-0.8c0.4-0.2,0.9-0.3,1.4-0.3c0.3,0,0.6,0,0.9,0.1
	c0.3,0.1,0.5,0.1,0.7,0.2c0.2,0.1,0.3,0.2,0.5,0.3c0.1,0.1,0.2,0.2,0.3,0.3L139.7,83.2z M132,83.3c-0.1-0.1-0.3-0.3-0.5-0.5
	c-0.3-0.2-0.6-0.3-1-0.3c-0.4,0-0.7,0.1-0.9,0.3c-0.2,0.2-0.3,0.4-0.3,0.7c0,0.3,0.1,0.6,0.3,0.8c0.2,0.2,0.5,0.5,0.9,0.7l0.6,0.3
	c0.6,0.4,1.1,0.8,1.5,1.2c0.4,0.4,0.5,1,0.5,1.6c0,0.7-0.2,1.3-0.7,1.8c-0.5,0.5-1.2,0.7-2.1,0.7c-0.4,0-0.7,0-1-0.1
	c-0.3-0.1-0.5-0.2-0.7-0.3c-0.2-0.1-0.4-0.2-0.5-0.3c-0.1-0.1-0.3-0.2-0.3-0.3l0.7-1.2c0.1,0.1,0.2,0.2,0.3,0.3
	c0.1,0.1,0.2,0.2,0.4,0.3c0.2,0.1,0.3,0.2,0.5,0.2c0.2,0.1,0.4,0.1,0.7,0.1c0.5,0,0.8-0.1,1-0.3c0.2-0.2,0.4-0.4,0.4-0.7
	c0-0.2,0-0.4-0.1-0.6c-0.1-0.2-0.1-0.3-0.3-0.4c-0.1-0.1-0.3-0.2-0.4-0.4c-0.2-0.1-0.4-0.2-0.6-0.4l-0.6-0.4c-0.6-0.4-1-0.7-1.3-1.2
	c-0.3-0.4-0.5-0.9-0.5-1.5c0-0.3,0.1-0.7,0.2-0.9c0.1-0.3,0.3-0.5,0.6-0.7c0.2-0.2,0.5-0.4,0.8-0.5c0.3-0.1,0.7-0.2,1-0.2
	c0.4,0,0.7,0,0.9,0.1c0.3,0.1,0.5,0.2,0.7,0.3c0.2,0.1,0.3,0.2,0.5,0.3c0.1,0.1,0.2,0.2,0.3,0.3L132,83.3z M126.3,82.7h-2v5
	c0,0.6,0.1,1.1,0.2,1.3c0.2,0.2,0.4,0.3,0.8,0.3c0.2,0,0.4,0,0.6-0.1c0.2-0.1,0.3-0.1,0.4-0.2l0.2,1.2c-0.1,0.1-0.2,0.1-0.5,0.2
	c-0.2,0.1-0.6,0.2-1,0.2c-0.8,0-1.4-0.2-1.8-0.7c-0.4-0.4-0.6-1.2-0.6-2.2v-5.2h-1.1v-1l1.1-0.2l0.2-2.5h1.4v2.5h2.2L126.3,82.7z
	 M120.9,82.8c0,0-0.1-0.1-0.2-0.1c-0.1,0-0.3-0.1-0.5-0.1c-0.5,0-0.9,0.1-1.1,0.4c-0.3,0.3-0.5,0.5-0.6,0.8v6.6H117v-9.1h1.4v1.2h0
	c0.1-0.2,0.1-0.4,0.2-0.5c0.1-0.2,0.2-0.3,0.4-0.5c0.2-0.1,0.3-0.2,0.5-0.3c0.2-0.1,0.5-0.1,0.7-0.1c0.2,0,0.4,0,0.5,0.1
	c0.1,0,0.2,0.1,0.3,0.1L120.9,82.8z M113.9,79.3c-0.3,0-0.6-0.1-0.8-0.3c-0.2-0.2-0.3-0.5-0.3-0.8c0-0.3,0.1-0.6,0.3-0.8
	c0.2-0.2,0.4-0.3,0.8-0.3c0.3,0,0.5,0.1,0.7,0.3c0.2,0.2,0.3,0.5,0.3,0.8c0,0.3-0.1,0.6-0.3,0.8C114.4,79.2,114.2,79.3,113.9,79.3z
	 M114.6,90.5h-1.5v-9.1h1.5V90.5z M111.7,77.5l-3.2,13H107l-2-8.2c-0.1-0.6-0.3-1.1-0.4-1.6c-0.1-0.5-0.2-0.9-0.2-1.2h0
	c0,0.3-0.1,0.7-0.2,1.2c-0.1,0.5-0.2,1-0.4,1.6l-2,8.2h-1.5l-3.1-13h1.8l1.6,7.9c0.1,0.6,0.2,1.2,0.3,1.7c0.1,0.5,0.1,0.9,0.2,1.2h0
	c0-0.3,0.1-0.7,0.2-1.3s0.2-1.1,0.4-1.7l1.9-7.9h1.6l1.9,7.9c0.1,0.6,0.3,1.2,0.4,1.7c0.1,0.5,0.2,0.9,0.2,1.2h0
	c0-0.3,0.1-0.7,0.2-1.3c0.1-0.6,0.2-1.1,0.3-1.7l1.6-7.9L111.7,77.5z M93.5,82.8c0,0-0.1-0.1-0.2-0.1c-0.1,0-0.3-0.1-0.5-0.1
	c-0.5,0-0.9,0.1-1.1,0.4c-0.3,0.3-0.5,0.5-0.6,0.8v6.6h-1.5v-9.1H91v1.2h0c0.1-0.2,0.1-0.4,0.2-0.5c0.1-0.2,0.2-0.3,0.4-0.5
	c0.2-0.1,0.3-0.2,0.5-0.3c0.2-0.1,0.5-0.1,0.7-0.1c0.2,0,0.4,0,0.5,0.1c0.1,0,0.2,0.1,0.3,0.1L93.5,82.8z M86.4,78.9
	c0,0.3-0.1,0.5-0.3,0.7c-0.2,0.2-0.4,0.3-0.6,0.3c-0.3,0-0.5-0.1-0.6-0.3c-0.2-0.2-0.3-0.4-0.3-0.7c0-0.3,0.1-0.5,0.3-0.7
	c0.2-0.2,0.4-0.3,0.6-0.3c0.3,0,0.5,0.1,0.6,0.3C86.3,78.3,86.4,78.6,86.4,78.9z M83.5,78.9c0,0.3-0.1,0.5-0.3,0.7
	c-0.2,0.2-0.4,0.3-0.6,0.3c-0.3,0-0.5-0.1-0.6-0.3c-0.2-0.2-0.3-0.4-0.3-0.7c0-0.3,0.1-0.5,0.3-0.7c0.2-0.2,0.4-0.3,0.6-0.3
	c0.3,0,0.5,0.1,0.6,0.3C83.4,78.3,83.5,78.6,83.5,78.9z M87.2,90.5h-1.4v-1h0c0,0.1-0.1,0.2-0.2,0.3c-0.1,0.1-0.3,0.3-0.5,0.4
	c-0.2,0.1-0.4,0.2-0.7,0.3c-0.3,0.1-0.6,0.2-0.9,0.2c-0.4,0-0.8-0.1-1.1-0.2c-0.3-0.1-0.6-0.3-0.8-0.6c-0.2-0.3-0.4-0.6-0.5-1
	c-0.1-0.4-0.2-0.9-0.2-1.6v-5.9h1.5v5.8c0,0.8,0.1,1.3,0.4,1.6c0.2,0.3,0.6,0.5,1.1,0.5c0.4,0,0.8-0.1,1.1-0.3
	c0.3-0.2,0.5-0.4,0.7-0.7v-7h1.5L87.2,90.5z M79.4,82.7h-1.9v7.8H76v-7.8h-1.1v-1l1.1-0.2v-1.8c0-0.5,0.1-0.9,0.2-1.3
	c0.1-0.4,0.3-0.6,0.5-0.9c0.2-0.2,0.5-0.4,0.8-0.5c0.3-0.1,0.6-0.1,1-0.1c0.3,0,0.6,0,0.8,0.1c0.2,0.1,0.4,0.2,0.5,0.2l-0.3,1.3
	c-0.1-0.1-0.2-0.1-0.3-0.2c-0.1-0.1-0.3-0.1-0.5-0.1c-0.4,0-0.6,0.1-0.8,0.3c-0.2,0.2-0.3,0.6-0.3,1.2v1.6h2L79.4,82.7z M198.3,71.5
	v-5.8c0-0.7-0.1-1.3-0.3-1.6c-0.2-0.3-0.6-0.5-1-0.5c-0.3,0-0.5,0-0.7,0.1c-0.2,0.1-0.4,0.1-0.5,0.2c-0.2,0.1-0.3,0.2-0.4,0.3
	c-0.1,0.1-0.2,0.2-0.3,0.3v7h-1.5v-9.1h1.4v1h0c0.1-0.1,0.2-0.2,0.3-0.4c0.1-0.1,0.3-0.3,0.5-0.4c0.2-0.1,0.4-0.2,0.7-0.3
	c0.3-0.1,0.5-0.1,0.8-0.1c1,0,1.8,0.4,2.2,1.2c0.1-0.1,0.2-0.3,0.4-0.4c0.2-0.1,0.3-0.3,0.5-0.4c0.2-0.1,0.4-0.2,0.7-0.3
	c0.3-0.1,0.5-0.1,0.8-0.1c1.8,0,2.8,1.1,2.8,3.2v6.1h-1.5v-5.8c0-0.7-0.1-1.3-0.4-1.6c-0.3-0.3-0.7-0.5-1.2-0.5
	c-0.4,0-0.8,0.1-1.1,0.3c-0.3,0.2-0.5,0.4-0.7,0.6c0,0.1,0,0.3,0.1,0.4c0,0.2,0,0.3,0,0.5v6.1L198.3,71.5z M191.2,71.5h-1.4v-1h0
	c0,0.1-0.1,0.2-0.2,0.3c-0.1,0.1-0.3,0.3-0.5,0.4c-0.2,0.1-0.4,0.2-0.7,0.3c-0.3,0.1-0.6,0.2-0.9,0.2c-0.4,0-0.8-0.1-1.1-0.2
	c-0.3-0.1-0.6-0.3-0.8-0.6c-0.2-0.3-0.4-0.6-0.5-1c-0.1-0.4-0.2-0.9-0.2-1.6v-5.9h1.5v5.8c0,0.8,0.1,1.3,0.4,1.6
	c0.2,0.3,0.6,0.5,1.1,0.5c0.4,0,0.8-0.1,1.1-0.3c0.3-0.2,0.5-0.4,0.7-0.7v-7h1.5L191.2,71.5z M181.8,60.2c-0.3,0-0.6-0.1-0.8-0.3
	c-0.2-0.2-0.3-0.5-0.3-0.8c0-0.3,0.1-0.6,0.3-0.8s0.4-0.3,0.8-0.3c0.3,0,0.5,0.1,0.7,0.3s0.3,0.5,0.3,0.8c0,0.3-0.1,0.6-0.3,0.8
	C182.3,60.1,182.1,60.2,181.8,60.2z M182.5,71.5H181v-9.1h1.5V71.5z M179.5,63.8c0,0-0.1-0.1-0.2-0.1c-0.1,0-0.3-0.1-0.5-0.1
	c-0.5,0-0.9,0.1-1.1,0.4c-0.3,0.3-0.5,0.5-0.6,0.8v6.6h-1.5v-9.1h1.4v1.2h0c0.1-0.2,0.1-0.4,0.2-0.5c0.1-0.2,0.2-0.3,0.4-0.5
	c0.2-0.1,0.3-0.2,0.5-0.3c0.2-0.1,0.5-0.1,0.7-0.1c0.2,0,0.4,0,0.5,0.1c0.1,0,0.2,0.1,0.3,0.1L179.5,63.8z M170.6,63.4
	c-0.5,0-1,0.2-1.3,0.7c-0.3,0.5-0.5,1.1-0.6,2h3.3c0-0.1,0-0.2,0-0.3c0-0.1,0-0.2,0-0.4c0-0.6-0.1-1.1-0.4-1.5
	C171.4,63.6,171.1,63.4,170.6,63.4L170.6,63.4z M173.5,65.5c0,0.4,0,0.7,0,1c0,0.3-0.1,0.5-0.1,0.7h-4.6c0,1.1,0.3,1.9,0.7,2.4
	c0.4,0.5,1,0.8,1.8,0.8c0.3,0,0.5,0,0.7-0.1c0.2-0.1,0.4-0.1,0.6-0.2c0.2-0.1,0.3-0.2,0.4-0.3c0.1-0.1,0.2-0.2,0.2-0.2l0.6,1.1
	c-0.1,0.1-0.2,0.2-0.3,0.3c-0.1,0.1-0.3,0.2-0.5,0.4c-0.2,0.1-0.5,0.2-0.8,0.3c-0.3,0.1-0.7,0.1-1.1,0.1c-0.6,0-1.1-0.1-1.5-0.3
	c-0.5-0.2-0.9-0.5-1.2-0.9s-0.6-0.9-0.7-1.5c-0.2-0.6-0.3-1.3-0.3-2.2c0-0.8,0.1-1.5,0.3-2.1c0.2-0.6,0.4-1.1,0.7-1.4
	c0.3-0.4,0.7-0.7,1.1-0.8c0.4-0.2,0.9-0.3,1.3-0.3c0.9,0,1.5,0.3,2,0.8C173.2,63.6,173.5,64.4,173.5,65.5L173.5,65.5z M166,63.7h-2
	v5c0,0.6,0.1,1.1,0.2,1.3c0.2,0.2,0.4,0.3,0.8,0.3c0.2,0,0.4,0,0.6-0.1c0.2-0.1,0.3-0.1,0.4-0.2l0.2,1.2c-0.1,0.1-0.2,0.1-0.5,0.2
	s-0.6,0.2-1,0.2c-0.8,0-1.4-0.2-1.8-0.7c-0.4-0.4-0.6-1.2-0.6-2.2v-5.2h-1.1v-1l1.1-0.2l0.2-2.5h1.4v2.5h2.2L166,63.7z M159.5,64.3
	c-0.1-0.1-0.3-0.3-0.5-0.5c-0.3-0.2-0.6-0.3-1-0.3c-0.4,0-0.7,0.1-0.9,0.3c-0.2,0.2-0.3,0.4-0.3,0.7c0,0.3,0.1,0.6,0.3,0.8
	c0.2,0.2,0.5,0.5,0.9,0.7l0.6,0.3c0.6,0.4,1.1,0.8,1.5,1.2c0.4,0.4,0.5,1,0.5,1.6c0,0.7-0.2,1.3-0.7,1.8c-0.5,0.5-1.2,0.7-2.1,0.7
	c-0.4,0-0.7,0-1-0.1c-0.3-0.1-0.5-0.2-0.7-0.3c-0.2-0.1-0.4-0.2-0.5-0.3c-0.1-0.1-0.3-0.2-0.3-0.3l0.7-1.2c0.1,0.1,0.2,0.2,0.3,0.3
	c0.1,0.1,0.2,0.2,0.4,0.3c0.2,0.1,0.3,0.2,0.5,0.2c0.2,0.1,0.4,0.1,0.7,0.1c0.5,0,0.8-0.1,1-0.3c0.2-0.2,0.4-0.4,0.4-0.7
	c0-0.2,0-0.4-0.1-0.6c-0.1-0.2-0.1-0.3-0.3-0.4c-0.1-0.1-0.3-0.2-0.4-0.4c-0.2-0.1-0.4-0.2-0.6-0.4l-0.6-0.4c-0.6-0.4-1-0.7-1.3-1.2
	c-0.3-0.4-0.5-0.9-0.5-1.5c0-0.3,0.1-0.7,0.2-0.9c0.1-0.3,0.3-0.5,0.6-0.7c0.2-0.2,0.5-0.4,0.8-0.5c0.3-0.1,0.7-0.2,1-0.2
	c0.4,0,0.7,0,0.9,0.1c0.3,0.1,0.5,0.2,0.7,0.3c0.2,0.1,0.3,0.2,0.5,0.3c0.1,0.1,0.2,0.2,0.3,0.3L159.5,64.3z M152.5,60.2
	c-0.3,0-0.6-0.1-0.8-0.3c-0.2-0.2-0.3-0.5-0.3-0.8c0-0.3,0.1-0.6,0.3-0.8c0.2-0.2,0.4-0.3,0.8-0.3c0.3,0,0.5,0.1,0.7,0.3
	c0.2,0.2,0.3,0.5,0.3,0.8c0,0.3-0.1,0.6-0.3,0.8C153,60.1,152.8,60.2,152.5,60.2z M153.2,71.5h-1.5v-9.1h1.5V71.5z M147.9,71.5v-5.8
	c0-0.8-0.1-1.3-0.4-1.7c-0.3-0.3-0.7-0.5-1.2-0.5c-0.5,0-0.8,0.1-1.1,0.3c-0.3,0.2-0.5,0.4-0.7,0.7v7h-1.5v-9.1h1.4v1h0
	c0-0.1,0.1-0.2,0.2-0.3c0.1-0.1,0.3-0.3,0.5-0.4c0.2-0.1,0.4-0.2,0.7-0.3c0.3-0.1,0.6-0.2,0.9-0.2c0.4,0,0.8,0.1,1.1,0.2
	c0.3,0.1,0.6,0.3,0.8,0.6c0.2,0.3,0.4,0.6,0.5,1c0.1,0.4,0.2,0.9,0.2,1.6v5.9L147.9,71.5z M139.8,60.2c-0.3,0-0.6-0.1-0.8-0.3
	c-0.2-0.2-0.3-0.5-0.3-0.8c0-0.3,0.1-0.6,0.3-0.8c0.2-0.2,0.4-0.3,0.8-0.3c0.3,0,0.5,0.1,0.7,0.3c0.2,0.2,0.3,0.5,0.3,0.8
	c0,0.3-0.1,0.6-0.3,0.8C140.4,60.1,140.1,60.2,139.8,60.2z M140.6,71.5h-1.5v-9.1h1.5V71.5z M130.5,71.5v-5.8c0-0.7-0.1-1.3-0.3-1.6
	c-0.2-0.3-0.6-0.5-1-0.5c-0.3,0-0.5,0-0.7,0.1c-0.2,0.1-0.4,0.1-0.5,0.2c-0.2,0.1-0.3,0.2-0.4,0.3c-0.1,0.1-0.2,0.2-0.3,0.3v7h-1.5
	v-9.1h1.4v1h0c0.1-0.1,0.2-0.2,0.3-0.4c0.1-0.1,0.3-0.3,0.5-0.4c0.2-0.1,0.4-0.2,0.7-0.3c0.3-0.1,0.5-0.1,0.9-0.1
	c1,0,1.8,0.4,2.2,1.2c0.1-0.1,0.2-0.3,0.4-0.4c0.2-0.1,0.3-0.3,0.5-0.4c0.2-0.1,0.4-0.2,0.7-0.3c0.3-0.1,0.5-0.1,0.8-0.1
	c1.8,0,2.8,1.1,2.8,3.2v6.1h-1.5v-5.8c0-0.7-0.1-1.3-0.4-1.6c-0.3-0.3-0.7-0.5-1.2-0.5c-0.4,0-0.8,0.1-1.1,0.3
	c-0.3,0.2-0.5,0.4-0.7,0.6c0,0.1,0,0.3,0.1,0.4c0,0.2,0,0.3,0,0.5v6.1L130.5,71.5z M123,64.3c-0.1-0.1-0.3-0.3-0.5-0.5
	c-0.3-0.2-0.6-0.3-1-0.3c-0.4,0-0.7,0.1-0.9,0.3c-0.2,0.2-0.3,0.4-0.3,0.7c0,0.3,0.1,0.6,0.3,0.8c0.2,0.2,0.5,0.5,0.9,0.7l0.6,0.3
	c0.6,0.4,1.1,0.8,1.5,1.2c0.4,0.4,0.5,1,0.5,1.6c0,0.7-0.2,1.3-0.7,1.8c-0.5,0.5-1.2,0.7-2.1,0.7c-0.4,0-0.7,0-1-0.1
	c-0.3-0.1-0.5-0.2-0.7-0.3c-0.2-0.1-0.4-0.2-0.5-0.3c-0.1-0.1-0.3-0.2-0.3-0.3l0.7-1.2c0.1,0.1,0.2,0.2,0.3,0.3
	c0.1,0.1,0.2,0.2,0.4,0.3c0.2,0.1,0.3,0.2,0.5,0.2c0.2,0.1,0.4,0.1,0.7,0.1c0.5,0,0.8-0.1,1-0.3c0.2-0.2,0.4-0.4,0.4-0.7
	c0-0.2,0-0.4-0.1-0.6c-0.1-0.2-0.1-0.3-0.3-0.4c-0.1-0.1-0.3-0.2-0.4-0.4c-0.2-0.1-0.4-0.2-0.6-0.4l-0.6-0.4c-0.6-0.4-1-0.7-1.3-1.2
	c-0.3-0.4-0.5-0.9-0.5-1.5c0-0.3,0.1-0.7,0.2-0.9c0.1-0.3,0.3-0.5,0.6-0.7c0.2-0.2,0.5-0.4,0.8-0.5c0.3-0.1,0.7-0.2,1-0.2
	c0.4,0,0.7,0,0.9,0.1c0.3,0.1,0.5,0.2,0.7,0.3c0.2,0.1,0.3,0.2,0.5,0.3c0.1,0.1,0.2,0.2,0.3,0.3L123,64.3z M114.2,63.4
	c-0.5,0-1,0.2-1.3,0.7c-0.3,0.5-0.5,1.1-0.6,2h3.3c0-0.1,0-0.2,0-0.3c0-0.1,0-0.2,0-0.4c0-0.6-0.1-1.1-0.4-1.5
	C115,63.6,114.7,63.4,114.2,63.4L114.2,63.4z M117.1,65.5c0,0.4,0,0.7,0,1c0,0.3-0.1,0.5-0.1,0.7h-4.6c0.1,1.1,0.3,1.9,0.7,2.4
	c0.4,0.5,1,0.8,1.8,0.8c0.3,0,0.5,0,0.7-0.1c0.2-0.1,0.4-0.1,0.6-0.2c0.2-0.1,0.3-0.2,0.4-0.3c0.1-0.1,0.2-0.2,0.2-0.2l0.6,1.1
	c-0.1,0.1-0.2,0.2-0.3,0.3c-0.1,0.1-0.3,0.2-0.5,0.4c-0.2,0.1-0.5,0.2-0.8,0.3c-0.3,0.1-0.7,0.1-1.1,0.1c-0.6,0-1.1-0.1-1.5-0.3
	c-0.5-0.2-0.8-0.5-1.2-0.9c-0.3-0.4-0.6-0.9-0.7-1.5c-0.2-0.6-0.3-1.3-0.3-2.2c0-0.8,0.1-1.5,0.3-2.1c0.2-0.6,0.4-1.1,0.7-1.4
	c0.3-0.4,0.7-0.7,1.1-0.8s0.9-0.3,1.3-0.3c0.9,0,1.5,0.3,2,0.8C116.8,63.6,117.1,64.4,117.1,65.5L117.1,65.5z M105.7,70.4
	c0.2,0,0.5,0,0.6-0.1c0.2-0.1,0.4-0.1,0.5-0.2c0.1-0.1,0.3-0.2,0.3-0.3c0.1-0.1,0.2-0.2,0.2-0.3v-5.6c-0.1-0.1-0.3-0.2-0.5-0.2
	c-0.2-0.1-0.4-0.1-0.7-0.1c-0.4,0-0.7,0.1-1,0.2c-0.3,0.1-0.6,0.3-0.8,0.6c-0.2,0.3-0.4,0.6-0.5,1.1c-0.1,0.4-0.2,1-0.2,1.6
	c0,0.6,0.1,1.2,0.2,1.6c0.1,0.4,0.3,0.8,0.4,1c0.2,0.3,0.4,0.4,0.6,0.6C105.2,70.3,105.4,70.4,105.7,70.4L105.7,70.4z M102.1,67.1
	c0-0.9,0.1-1.7,0.4-2.3c0.2-0.6,0.5-1.1,0.9-1.5c0.4-0.4,0.8-0.6,1.3-0.8c0.5-0.2,1-0.2,1.4-0.2c0.3,0,0.5,0,0.8,0.1
	c0.2,0,0.4,0.1,0.5,0.2v-4.3l1.5-0.2v13.5h-1.4v-1h0c0,0.1-0.1,0.2-0.2,0.3c-0.1,0.1-0.2,0.3-0.4,0.4c-0.2,0.1-0.4,0.2-0.7,0.3
	c-0.3,0.1-0.6,0.1-0.9,0.1c-0.4,0-0.8-0.1-1.2-0.3c-0.4-0.2-0.7-0.4-1-0.8c-0.3-0.4-0.5-0.9-0.7-1.4
	C102.2,68.6,102.1,67.9,102.1,67.1z M98.7,71.5v-5.8c0-0.8-0.1-1.3-0.4-1.7c-0.3-0.3-0.7-0.5-1.2-0.5c-0.5,0-0.8,0.1-1.1,0.3
	c-0.3,0.2-0.5,0.4-0.7,0.7v7h-1.5v-9.1h1.4v1h0c0-0.1,0.1-0.2,0.2-0.3c0.1-0.1,0.3-0.3,0.5-0.4c0.2-0.1,0.4-0.2,0.7-0.3
	c0.3-0.1,0.6-0.2,0.9-0.2c0.4,0,0.8,0.1,1.1,0.2c0.3,0.1,0.6,0.3,0.8,0.6c0.2,0.3,0.4,0.6,0.5,1c0.1,0.4,0.2,0.9,0.2,1.6v5.9
	L98.7,71.5z M91.4,71.5H90v-1h0c0,0.1-0.1,0.2-0.2,0.3c-0.1,0.1-0.3,0.3-0.5,0.4c-0.2,0.1-0.4,0.2-0.7,0.3c-0.3,0.1-0.6,0.2-0.9,0.2
	c-0.4,0-0.8-0.1-1.1-0.2c-0.3-0.1-0.6-0.3-0.8-0.6c-0.2-0.3-0.4-0.6-0.5-1C85.1,69.5,85,69,85,68.4v-5.9h1.5v5.8
	c0,0.8,0.1,1.3,0.4,1.6c0.2,0.3,0.6,0.5,1.1,0.5c0.4,0,0.8-0.1,1.1-0.3c0.3-0.2,0.5-0.4,0.7-0.7v-7h1.5L91.4,71.5z M81.3,67.8
	c0-0.7-0.2-1.3-0.7-1.7c-0.5-0.4-1.1-0.6-2-0.6h-1.1v4.6h1c1,0,1.7-0.2,2.1-0.6C81.1,69.2,81.3,68.6,81.3,67.8z M81,61.8
	c0-0.6-0.2-1.1-0.6-1.5c-0.4-0.4-1.1-0.6-2-0.6h-0.9v4.5h0.8c0.9,0,1.5-0.2,2-0.6C80.8,63.2,81,62.6,81,61.8z M82.7,61.8
	c0,0.5-0.1,0.8-0.2,1.2c-0.1,0.3-0.3,0.6-0.5,0.9c-0.2,0.2-0.4,0.4-0.7,0.6c-0.3,0.1-0.5,0.3-0.8,0.3v0c0.3,0.1,0.7,0.2,1,0.4
	c0.3,0.2,0.6,0.4,0.8,0.7c0.2,0.3,0.4,0.6,0.5,0.9C83,67.1,83,67.5,83,68c0,0.5-0.1,1-0.3,1.4c-0.2,0.4-0.5,0.8-0.8,1.1
	c-0.4,0.3-0.8,0.6-1.4,0.7c-0.6,0.2-1.2,0.3-2,0.3h-2.7v-13h2.5c0.8,0,1.4,0.1,2,0.2c0.5,0.2,1,0.4,1.4,0.7c0.4,0.3,0.6,0.6,0.8,1
	C82.6,60.8,82.7,61.3,82.7,61.8"/>
</svg>
