<?xml version="1.0" encoding="utf-8"?>
<!-- Generator: Adobe Illustrator 30.1.0, SVG Export Plug-In . SVG Version: 9.03 Build 0)  -->
<svg version="1.0" id="Ebene_1" xmlns="http://www.w3.org/2000/svg" xmlns:xlink="http://www.w3.org/1999/xlink" x="0px" y="0px"
	 viewBox="0 0 122.3 82.7" style="enable-background:new 0 0 122.3 82.7;" xml:space="preserve">
<style type="text/css">
	.st0{fill:#020203;}
</style>
<g>
	<g>
		<g>
			<path class="st0" d="M32.7,44.1c-0.7-0.3-1.5-0.5-2.3-0.7c0,0.5,0.1,0.9,0.2,1.4C31.3,44.6,32,44.4,32.7,44.1z M30.4,43
				c1,0.2,1.9,0.6,2.8,1c0.4-0.2,0.8-0.3,1.2-0.5c-1.3-0.6-2.6-1-4-1.3c0,0.3,0,0.7,0,1V43z M33.3,44.4L33.3,44.4
				c-1.3,0.5-2.6,0.9-3.8,1.1h0c-1.1,0.3-2.3,0.4-3.5,0.4h0c-3.4,0.2-6.9-0.3-10.1-1.7l-0.1,0c0,0,0,0-0.1,0
				c-4.6-2.1-6.6-5.9-2.2-8.9c-0.5-0.8-1-1.5-1.7-2.3c-0.2-0.3-0.4-0.5-0.6-0.8c-0.4,0.8-0.3,1.7,0.2,2.4c0.1,0.1,0.1,0.2,0,0.3
				l-3.2,3.8c-0.1,0.1-0.2,0.1-0.3,0l0,0C-8,21.4,10.1-5.1,32,2.5c0.1,0,0.2,0.1,0.1,0.2c0,0,0,0,0,0.1l-3.4,5.7
				c0,0.1-0.1,0.1-0.2,0.1c-1.1-0.2-1.7-0.1-2.2,0.3c1,0.2,2,0.4,3,0.8c0.9-1,1.9-2,3-2.8l0,0c0,0,0.1,0,0.2,0c0,0,0.1,0,0.1,0.1v0
				l2,5.8c0,0,0,0.1,0,0.1s0,0.1-0.1,0.1l-0.2,0.1c0.4,1.2,3.2,9.7,4.1,12c0.4,0.9,0.7,1.8,1,2.7c0,0.8-0.5,1.1-1.7,1.2
				c-0.6,0.5-0.7,0.7-0.3,1.1c0.6,0.8,0.3,1.1-0.4,1.7c0.7,0.5,0.5,1.4,0.2,1.5c-0.4,0-0.7,0.2-0.9,0.5c2,2,0.3,3.7-2.3,4.3
				c-1,0.2-1.9,0.3-2.9,0.2l0,0c-0.3,1-0.6,2.1-0.7,3.2c1.6,0.3,3.1,0.9,4.5,1.7c0,0,0,0,0,0c0,0,0,0.1,0,0.2c0,0,0,0.1-0.1,0.1l0,0
				c-0.5,0.3-1.1,0.5-1.6,0.7L33.3,44.4z M14.5,36.6C14.5,36.6,14.5,36.6,14.5,36.6c0.1,0.6,0.2,1.1,0.1,1.7c0.9-0.7,1.2-2,0.6-3
				c-0.3,0.2-0.7,0.4-1,0.6C14.3,36.1,14.4,36.4,14.5,36.6L14.5,36.6z M14.1,37c-0.7,0.4-1.3,1.1-1.4,1.9c0.5,0,1-0.2,1.5-0.4
				C14.2,38,14.2,37.5,14.1,37z M12.7,39.3c0,0.3,0.1,0.5,0.2,0.8c2.1,0.1,3.9-1.6,4-3.7c0-0.7-0.1-1.4-0.5-2
				c-0.3,0.2-0.6,0.4-0.9,0.7C16.1,36.1,16.6,38.8,12.7,39.3z M13.2,40.4c0.3,0.3,0.5,0.7,0.9,0.9c4.2-1.2,5-4.7,3.4-7.8
				c-0.3,0.2-0.5,0.4-0.7,0.6c1.2,2,0.5,4.6-1.5,5.7C14.6,40.3,13.9,40.5,13.2,40.4L13.2,40.4z M14.5,41.7c0.4,0.3,0.8,0.4,1.3,0.6
				c5.1-2.6,3.9-7.9,2.7-9.8c-0.3,0.3-0.5,0.5-0.7,0.7C19.5,36.5,18.8,40.3,14.5,41.7L14.5,41.7z M30.6,20.7c1.8-0.8,3.8-1,5.7-0.5
				c-0.8-2.3-1.6-4.7-2-6c0.1,2.3-1.2,4.5-3.3,5.4C30.9,20,30.8,20.4,30.6,20.7L30.6,20.7z M29.9,21.1
				C29.9,21.1,29.9,21.1,29.9,21.1c0.3-0.5,0.5-1,0.6-1.6c0,0,0,0,0-0.1c0.1-0.5,0.1-1,0.1-1.5c0,0,0,0,0-0.1c0-0.4,0-0.8-0.1-1.2
				l-0.8,0.9c0.2,1.5-0.4,3-1.6,4c0,0.4,0,0.8,0,1.2C28.9,22.4,29.5,21.8,29.9,21.1L29.9,21.1z M19.4,33.3c0.1-0.4,0.3-0.8,0.7-1.1
				c-0.1-0.3-0.2-0.6-0.3-0.9l-0.9,1C19,32.6,19.2,32.9,19.4,33.3L19.4,33.3z M20.3,31.9c0.3-0.2,0.5-0.3,0.8-0.4
				c-0.2-0.5-0.3-1-0.3-1.5c-0.3,0.3-0.5,0.6-0.7,0.9C20.1,31.2,20.2,31.5,20.3,31.9L20.3,31.9L20.3,31.9z M10.5,33.4
				c0-0.5,0.2-1,0.4-1.6c-1.3-1.9-2-4.1-2.3-6.3c0,0,0,0,0-0.1c0-0.3,0-0.6-0.1-0.9c0,0,0,0,0-0.1c0-0.1,0-0.2,0-0.3
				c0-1,0-1.9,0.2-2.8c0,0,0,0,0-0.1c0-0.3,0.1-0.6,0.2-0.8c0,0,0,0,0-0.1c0.6-2.7,2-5.2,3.9-7.3l0,0c0.6-0.6,1.2-1.2,1.9-1.7l0,0
				c1-0.8,2.2-1.4,3.5-1.9l0,0c1.7-0.6,3.4-0.9,5.1-0.9c0.1,0,0.2,0,0.3,0c0.7,0,1.4,0.1,2.1,0.2c0.3-0.4,0.7-0.7,1.2-0.7h-0.1l0,0
				c-0.9-0.2-1.8-0.4-2.7-0.4l0,0c-4.7-0.2-9.3,1.7-12.5,5.2l0,0c-0.7,0.7-1.2,1.4-1.7,2.2l0,0c-0.5,0.7-0.9,1.5-1.2,2.3l0,0
				c-0.3,0.8-0.6,1.7-0.8,2.5c-0.8,3.7-0.3,7.6,1.3,11l0,0c0.4,0.8,0.8,1.6,1.3,2.3L10.5,33.4z M11.3,31.8L11.3,31.8l0.4,0.7
				c0.8-0.6,1.6-1.3,2.3-2c-0.3-0.2-0.7-0.3-1-0.5c-0.4,0.6-1.2,0.9-1.9,0.8c-0.1,0-0.2-0.1-0.2-0.2c0,0,0-0.1,0-0.1
				c0.1-0.8,0.1-1.7,0-2.5c-0.1-0.1-0.2-0.3-0.2-0.4c-0.3,0-0.7,0.1-1,0.1c-0.2,0-0.3-0.2-0.1-0.3c0.7-0.6,0.5-1.4,0.7-2.5
				c-0.4,0.3-0.9,0.5-1.3,0.8C9.2,27.8,10,29.9,11.3,31.8L11.3,31.8z M13.3,34.4c8.4-5.6,11.7-15.9,19.3-22.3l-1-0.2
				c-0.2,0-0.2,0-0.2-0.3l0.2-1.6c-7,7.1-10.8,18.7-18.7,23.7C13,33.9,13.2,34.1,13.3,34.4L13.3,34.4z M32.9,8.7
				c-0.3,0.3-0.6,0.6-1,0.9l-0.2,2l1.3,0.3c0.2-0.2,0.5-0.4,0.7-0.6l-0.2-0.5c-0.3,0.1-0.8-0.1-0.9-0.4l0,0c-0.1-0.3,0-0.7,0.4-0.9
				l0,0L32.9,8.7L32.9,8.7z M14.5,30.6c-0.8,0.8-1.7,1.5-2.5,2.2l0,0.1l0.4,0.5c4.1-2.6,7.1-7,10.2-11.8c2.6-4.1,5.3-8.7,8.9-12.2
				c0,0,0,0,0,0c0.3-0.3,0.7-0.7,1.1-1l-0.3-0.9c-1.4,1.1-2.7,2.4-3.9,3.7v0c-2.2,2.7-4.1,5.6-6,8.6c-1,1.5-2,3-3,4.5v0
				c-0.4,0.6-0.8,1.2-1.3,1.7v0l-0.8,1.3c0,0,0,0,0,0c-0.5,0.6-1,1.2-1.5,1.7l0,0C15.5,29.7,15.1,30.1,14.5,30.6L14.5,30.6
				L14.5,30.6z M14.4,30.1c0.3-0.3,0.6-0.6,0.9-1c-2-0.3-3-1.2-3.4-2.3c-0.2,0.2-0.4,0.4-0.7,0.5l0.2,0.3c0,0,0,0,0,0.1
				C12.2,28.8,13.2,29.6,14.4,30.1L14.4,30.1z M15.6,28.8c0.3-0.3,0.6-0.7,0.9-1.1c-3.5,1-5.7-4.5,0.3-6.9c-0.4-0.1-0.9-0.3-1.3-0.5
				C11.6,22.2,10.3,28.1,15.6,28.8L15.6,28.8z M17.1,27.1c0.3-0.4,0.6-0.8,0.9-1.2c0.3-1.1-0.3-2.3-1.4-2.8c-0.3,0.2-0.7,0.4-1,0.7
				c1.9,0.3,1.9,2.7,0.1,2.7c-1.4,0-1.3-1.8-0.7-2.7l0,0l0,0c0.4-0.5,0.9-0.8,1.4-1.1h0.1c0.5-0.3,1.1-0.5,1.7-0.6h0.1
				c0.4-0.1,0.8-0.2,1.3-0.2c-0.4-0.2-0.8-0.3-1.2-0.5l-0.9-0.3C11,23.3,13.5,29,17.1,27.1L17.1,27.1z M18.5,25.4
				c0.3-0.4,0.6-0.8,0.8-1.2c-0.2-0.6-0.6-1.2-1-1.6c-0.4,0.1-0.8,0.2-1.2,0.4C17.9,23.4,18.5,24.4,18.5,25.4z M19.6,23.8
				c0.3-0.4,0.6-0.9,0.9-1.3l-0.2-0.2c-0.5,0-1,0.1-1.5,0.2C19.1,22.8,19.4,23.3,19.6,23.8z M20.7,22.1l0.9-1.4
				c-1.5-0.2-3-0.2-4.5-0.1l1.4,0.5c0.7,0.2,1.3,0.5,1.9,0.8h0C20.5,21.9,20.6,22,20.7,22.1L20.7,22.1z M21.9,20.4l0.6-1
				c-1.5-0.3-3-0.4-4.5-0.3c-1.4,0.1-2.9,0-4.3-0.3c0.7,0.6,1.4,1,2.3,1.4c0.9,0,1.8,0,2.7,0C19.7,20.1,20.8,20.1,21.9,20.4
				L21.9,20.4z M22.7,19l0.5-0.8c-1.6-0.6-4.2-0.4-5.9-0.4c-2,0-3.9-0.1-5.1-1.2c0.2,0.6,0.4,1.1,0.8,1.6c1.8,0.8,5.4,0.4,7.6,0.5
				C21.3,18.7,22,18.8,22.7,19L22.7,19z M23.5,17.8l0.6-0.9c-0.6-0.2-1.3-0.3-1.9-0.4h-0.1c-1.7-0.2-3.3-0.2-5-0.2c-1,0-2,0-3-0.3
				H14c-0.8-0.3-1.4-0.7-1.9-1.3c0,0.1-0.1,0.1-0.2,0.2c0,0.3,0,0.7,0.1,1c1,1.4,3,1.6,5.3,1.6c1.8,0,4.4-0.2,6.1,0.5L23.5,17.8z
				 M28.5,10.8l0.6-0.7c-1-0.3-2.1-0.6-3.1-0.8l0,0c-0.5-0.1-1-0.1-1.4-0.1c0.2,0.3,0.2,0.7,0.2,1c0.2,0.2,0.4,0.5,0.4,0.8
				c0.3-0.2,0.8-0.2,1.1-0.1c0.3-0.7,1.1-0.9,1.7-0.6C28.2,10.5,28.3,10.6,28.5,10.8L28.5,10.8z M5.7,35.3l3.7-2.8
				c-0.2-0.3-0.3-0.7-0.5-1l-3.1,2c-0.1,0.1-0.2,0.1-0.3,0c-0.1-0.1-0.1-0.2,0-0.3l0,0l3.2-2c-0.1-0.3-0.3-0.6-0.3-0.8l-4.3,2
				C4.6,33.3,5.1,34.3,5.7,35.3L5.7,35.3L5.7,35.3z M9.6,32.8l-3.7,2.8c0.7,1,1.4,1.9,2.2,2.7l3-3.5L10.4,34l-2.8,2.8
				c-0.1,0.1-0.2,0.1-0.3,0s-0.1-0.2,0-0.3l0,0l2.9-2.8C10,33.4,9.8,33.1,9.6,32.8L9.6,32.8z M3.9,31.9l4.3-2
				c-0.1-0.3-0.2-0.6-0.3-0.8l-3.5,1c-0.1,0-0.2,0-0.3-0.1c0-0.1,0-0.2,0.1-0.3l0,0l3.5-1c-0.1-0.4-0.2-0.8-0.3-1.1l-4.7,1
				C3.1,29.7,3.5,30.8,3.9,31.9L3.9,31.9z M2.7,28.1l4.7-1c-0.1-0.3-0.1-0.7-0.2-1l-3.7,0.3c-0.1,0-0.2,0-0.3-0.2
				c0-0.1,0-0.2,0.2-0.3c0,0,0,0,0.1,0l3.7-0.3c0-0.4-0.1-0.7-0.1-1.1l-4.8-0.1c0,1.2,0.2,2.4,0.4,3.6L2.7,28.1z M2.2,24.1L7,24.2
				c0-0.3,0-0.7,0-1l-3.7-0.4c-0.1,0-0.2-0.1-0.2-0.2c0-0.1,0.1-0.2,0.2-0.2L7,22.8c0-0.4,0.1-0.8,0.1-1.2l-4.7-1
				C2.3,21.7,2.2,22.8,2.2,24.1L2.2,24.1z M2.5,20.2l4.7,1c0-0.3,0.1-0.7,0.2-1l-3.6-1.1c-0.1,0-0.2-0.2-0.1-0.3
				c0-0.1,0.1-0.1,0.2-0.1l3.5,1.1c0.1-0.3,0.2-0.6,0.3-0.9l-4.3-2.1C3.1,17.9,2.8,19,2.5,20.2L2.5,20.2z M3.6,16.4l4.3,2.1
				c0.1-0.3,0.2-0.6,0.3-0.9l-3.3-2c-0.1,0-0.1-0.2-0.1-0.3c0-0.1,0.2-0.1,0.3-0.1l3.2,2c0.1-0.3,0.3-0.7,0.5-1L5,13.3
				C4.5,14.3,4,15.3,3.6,16.4L3.6,16.4z M5.2,12.9l3.8,3l0.4-0.7l-2.8-2.7c-0.1-0.1,0-0.2,0-0.3c0.1,0,0.2,0,0.3,0l2.7,2.7
				c0.2-0.3,0.4-0.6,0.7-0.9l-3.3-3.7C6.4,11,5.7,11.9,5.2,12.9L5.2,12.9z M7.4,9.8l3.2,3.7c0.2-0.3,0.4-0.5,0.6-0.7L8.9,9.5
				c0-0.1,0-0.2,0.1-0.3c0.1,0,0.2,0,0.3,0l2.3,3.2c0.2-0.3,0.5-0.5,0.7-0.7L9.8,7.4C8.9,8.1,8.1,8.9,7.4,9.8z M10.1,7.1l2.6,4.4
				c0.2-0.2,0.4-0.4,0.7-0.6L11.6,7c0-0.1,0-0.2,0.1-0.3c0.1,0,0.2,0,0.3,0.1c0,0,0,0,0,0l1.7,3.8c0.3-0.2,0.6-0.4,0.9-0.7l-1.7-5
				C11.9,5.5,11,6.2,10.1,7.1L10.1,7.1L10.1,7.1z M13.2,4.8l1.7,4.9c0.3-0.2,0.5-0.3,0.8-0.5l-1-4.2c0-0.1,0-0.2,0.1-0.3
				c0.1,0,0.2,0,0.3,0.1l1,4l0.9-0.4l-0.7-5.4c-1,0.4-2,1-3,1.5L13.2,4.8z M16.6,3.1l0.7,5.4c0.3-0.1,0.6-0.3,1-0.3l-0.1-4.5
				c0-0.1,0.1-0.2,0.2-0.2c0.1,0,0.2,0.1,0.2,0.2l0,0L18.8,8c0.3-0.1,0.6-0.2,1-0.3L20.1,2C18.9,2.2,17.8,2.5,16.6,3.1L16.6,3.1
				L16.6,3.1z M20.5,2l-0.4,5.6c0.3-0.1,0.7-0.1,1.1-0.2L21.9,3c0-0.1,0.1-0.2,0.2-0.2c0.1,0,0.2,0.1,0.2,0.2v0l-0.7,4.3l0.9-0.1
				L24,1.5C22.8,1.6,21.6,1.8,20.5,2z M24.4,1.7l-1.5,5.6c0.4,0,0.7,0,1.1,0l1.4-4.4c0-0.1,0.2-0.2,0.3-0.1s0.1,0.1,0.1,0.2
				l-1.3,4.3c0.3,0,0.7,0.1,1,0.1l2.3-5.5c-1.1-0.2-2.3-0.3-3.5-0.3L24.4,1.7z M28.3,2l-2.3,5.5c0.3,0,0.6,0.1,0.9,0.2l2.3-4.5
				c0-0.1,0.2-0.1,0.3-0.1c0.1,0,0.1,0.2,0.1,0.3l0,0l-2.3,4.4C27.6,8,28,8.1,28.5,8.2l3.2-5.3C30.5,2.5,29.4,2.2,28.3,2L28.3,2z
				 M20.8,14.3C20.8,14.4,20.8,14.4,20.8,14.3c0,0.1,0,0.1-0.1,0.2l0,0c-0.3,0-0.7,0-1,0l-0.1,0.1c0.1,0.5,0.3,1,0.7,1.3l0.9,0
				l1-3.8c-1-0.3-1.3-2.1,0.1-2.3c0-0.3,0.1-0.6,0.3-0.7c-0.7,0-1.4,0.1-2.1,0.3l0.2,2.1c0,0,0,0,0,0.1v0.2c0,0.1,0,0.2-0.2,0.3
				c-0.1,0-0.2,0-0.3-0.2c0,0,0,0,0-0.1v-0.2L19.5,11c-0.5,0.3-0.6,0.9-0.3,1.3c0.2,0.3,0.6,0.5,1,0.4c0.1,0,0.2,0,0.3,0v0
				c0-0.1,0.1-0.2,0.2-0.2c0.1,0,0.2,0.1,0.2,0.2v0.2v0l0.1,1.3v0.1L20.8,14.3z M19.3,10.5l0.1,0.1l0,0l0.7,0.5l-0.1-1.7
				c-0.5,0.1-1,0.3-1.6,0.5c-0.9,0.8-1,2.2-0.3,3.2l0,0.1c0.6,0.7,1.3,1,2.2,0.9l-0.1-0.9c-0.1,0-0.2,0-0.3,0
				c-0.8,0-1.4-0.7-1.4-1.4c0-0.4,0.2-0.8,0.4-1c0-0.1,0-0.2,0.1-0.3S19.2,10.4,19.3,10.5L19.3,10.5z M19.1,14.3
				c-0.4-0.2-0.8-0.4-1.2-0.8c-1.3,0.3-2.6-0.4-3.2-1.6c-0.5,0.4-1,0.8-1.4,1.3l0.9,0.2l0,0l0.2,0h0.1c0,0,0,0,0.1,0.1
				C15.7,14.8,18.1,14.8,19.1,14.3L19.1,14.3z M17.6,13.2c-0.6-0.9-0.6-2,0-3c-0.9,0.4-1.7,0.9-2.6,1.5
				C15.5,12.7,16.5,13.3,17.6,13.2L17.6,13.2z M14.4,13.9L14.4,13.9c-0.1,0.6-0.1,1.2,0,1.7c0.9,0.2,1.9,0.3,2.8,0.3
				c0.9,0,1.7,0,2.5,0c-0.3-0.3-0.4-0.7-0.5-1.1C17.9,15.3,15.5,15.1,14.4,13.9L14.4,13.9z M15.1,20.3c-0.3-0.1-0.5-0.3-0.8-0.4
				c-0.3,0.2-0.6,0.4-0.8,0.7l0,0c-0.5,0.4-0.9,0.8-1.3,1.3l0,0c-0.1,0.2-0.3,0.3-0.4,0.6v0c-0.4,0.6-0.7,1.3-0.8,2
				c-0.2,0.9,0,2-0.6,2.7c0.5,0,1-0.2,1.4-0.6C11.3,24.3,12.9,21.4,15.1,20.3L15.1,20.3z M15.3,24.2c0,0.1-0.1,0.2-0.1,0.3
				c-0.5,1,0,1.7,0.6,1.7C17.1,26.2,17,24.3,15.3,24.2L15.3,24.2z M13,20.3c-0.8-0.5-1.4-1.2-1.9-2c0,0.4,0,0.8,0,1.2l0,0
				c0.2,0.6,0.4,1.2,0.8,1.7C12.2,20.9,12.6,20.6,13,20.3L13,20.3z M11.5,28.6c0,0.6,0,1.1,0,1.7c0.5,0,1-0.2,1.3-0.6
				C12.2,29.4,11.8,29.1,11.5,28.6L11.5,28.6z M11.3,21l-0.8,0.4l0.4,0.9c0.1-0.1,0.3-0.1,0.5-0.2l0.3-0.4
				C11.5,21.4,11.4,21.2,11.3,21z M9,24.6c0,0.2,0,0.3,0,0.5c0.4-0.3,0.9-0.6,1.4-0.8c0.1-0.6,0.3-1.1,0.6-1.6l-0.1,0l0,0
				C10.1,23.2,9.5,23.8,9,24.6z M9.1,22C9,22.7,9,23.3,9,24c0.2-0.3,0.5-0.6,0.8-0.9L9.1,22L9.1,22z M9.3,20.7l-0.1,0.7l0.9,1.4
				c0.2-0.1,0.3-0.2,0.5-0.3c-0.7-1.5-0.9-1.2,0.6-1.9c-0.1-0.2-0.2-0.4-0.3-0.7C10.3,20.1,9.8,20.3,9.3,20.7z M11.6,15.4
				c-1,1.4-1.7,3-2.1,4.7c0.4-0.3,0.8-0.4,1.3-0.6c-0.1-0.7-0.1-1.3,0.2-2c0.1-0.3,0.3-0.2,0.4,0c0.2,1,1.2,1.9,2,2.5
				c0.2-0.2,0.4-0.3,0.6-0.5C12.6,18.5,11.7,17,11.6,15.4L11.6,15.4z M13,13.5c-0.2,0.3-0.4,0.5-0.7,0.7c0.4,0.5,0.9,1,1.5,1.2
				c-0.1-0.6-0.1-1.1,0-1.7L13,13.5L13,13.5z M24.6,12.2c-0.2,0.1-0.5,0.2-0.7,0.2c-0.1,0.6-0.1,1.2-0.1,1.8l1.1-1.2
				C24.7,12.8,24.6,12.5,24.6,12.2z M23.4,13.4c-0.3-0.1-0.6-0.2-0.7-0.5c0-0.1,0.4-0.1,0.4-0.1c0.1,0,0.2,0,0.3,0l0.1-0.7l0,0v-0.2
				c0-0.1,0.1-0.2,0.2-0.2c0.1,0,0.2,0.1,0.2,0.2c0,0,0,0,0,0.1c0.4,0,0.8-0.4,0.8-0.8c0-0.4-0.4-0.8-0.8-0.8c-0.1,0-0.2,0-0.3,0
				s-0.2,0-0.3-0.1c0-0.1,0-0.2,0.1-0.3h0c0.3,0,0.5,0,0.7,0c-0.1-1.7-2.8-0.7-1.3,0.6c0.1,0.1,0.1,0.2,0,0.3
				c-0.1,0.1-0.2,0.1-0.3,0c-0.2-0.2-0.4-0.4-0.5-0.7c-1,0.1-0.7,1.3-0.1,1.5l0,0c0-0.1,0.1-0.2,0.3-0.1c0.1,0,0.2,0.1,0.1,0.3l0,0
				l0,0.2l0,0l-1,3.9l0.5,0.1l1.4-1.5c-0.1-0.3-0.1-0.7-0.1-1.1L23.4,13.4z M25.4,14.8c-0.2-0.3-0.3-0.7-0.2-1.1
				c0-0.2,0.2,0.1,0.3,0.1c0.1,0.1,0.3,0.2,0.5,0.3c0.3-0.5,0.7-1,1-1.5c0.4-0.6,0.8-1.1,1.3-1.6c-0.7-0.8-1.9-0.3-1.6,1
				c0,0.1,0,0.2-0.1,0.3c-0.1,0-0.2,0-0.3-0.1l0,0c-0.1-0.3-0.1-0.5,0-0.8c-0.4-0.2-0.9,0-1.1,0.4c-0.1,0.3-0.1,0.7,0.1,0.9
				c0.1-0.1,0.2,0,0.3,0c0,0.1,0,0.2,0,0.3l-1.6,1.7v0l-1.3,1.4c0.6,0.1,1.2,0.3,1.7,0.4C24.7,16,25,15.4,25.4,14.8L25.4,14.8z
				 M23.6,26.4c1.8-0.6,3-2.3,3-4.2c-0.5,0.8-1,1.5-1.5,2.2S24.1,25.7,23.6,26.4L23.6,26.4z M28.1,21.1c0.8-0.8,1.3-1.9,1.3-3
				c-0.5,0.7-1,1.4-1.5,2C27.9,20.4,28,20.8,28.1,21.1L28.1,21.1z M31.1,17.4c0.9-0.6,1.4-1.7,1.4-2.7c-0.6,0.5-1.1,1-1.6,1.7
				C31,16.8,31.1,17.1,31.1,17.4L31.1,17.4z M31.1,19.1c2.1-1,3-3.3,2.8-5.6c-0.3,0.3-0.7,0.5-1,0.8c0.2,1.5-0.5,2.9-1.8,3.7
				C31.2,18.4,31.2,18.8,31.1,19.1C31.1,19.1,31.1,19.1,31.1,19.1z M22.7,27.9L22.7,27.9c2.5-0.3,4.5-2.2,5-4.7c0,0,0,0,0,0
				c0.1-0.5,0.1-1.1,0-1.6v0c0-0.3-0.1-0.7-0.2-1l-0.7,1.1c0.3,1.8-0.5,4.3-3.7,5.3l-0.8,1.1h0.3L22.7,27.9z M13.9,35.3L13.9,35.3
				l0.1,0.2c0.8-0.5,1.6-1,2.3-1.6l0,0c0.3-0.3,0.7-0.6,1-0.9l0,0c0.3-0.3,0.7-0.6,1-1l0,0c0.4-0.4,0.9-0.9,1.3-1.3l0-0.1
				c0.4-0.4,0.7-0.8,1.1-1.3c0,0,0,0,0-0.1c0.3-0.4,0.6-0.8,0.9-1.2V28c0.3-0.4,0.7-0.9,1-1.3c0,0,0,0,0-0.1
				c1.2-1.7,2.3-3.4,3.5-5.1v0l1-1.4v0c0.6-0.8,1.1-1.6,1.7-2.3l0.2-0.2v-0.1c0.3-0.4,0.7-0.8,1-1.3v0c0.6-0.7,1.3-1.3,2-2h0
				c0.4-0.4,0.9-0.7,1.3-1h0l0.1,0l0,0l0.2-0.1l-0.4-1.2c-0.2,0.2-0.4,0.3-0.7,0.5l0,0C25,18.7,21.6,29.1,13.1,34.8
				c0.1,0.2,0.2,0.3,0.3,0.5L13.9,35.3z M21.3,36L21.3,36c0.2,0,0.3,0,0.5,0c0.5,0,1-0.2,1.3-0.5l0,0c0.5-0.4,0.8-1,0.8-1.7
				c0-0.3,0-0.6-0.2-0.9v0c-0.3-0.7-1.1-1.2-2-1.2h-0.3l0,0c-0.4,0-0.7,0.2-1,0.5l0,0c-0.9,0.8-1,2.1-0.2,3
				C20.5,35.6,20.9,35.8,21.3,36L21.3,36z M15.8,43.8c0.6-0.2,1.1-0.5,1.7-0.8h0.1c0.4-0.3,0.9-0.6,1.3-1l0,0
				c1.5-1.5,2.3-3.5,2.3-5.6c-0.4-0.1-0.8-0.4-1.1-0.7c0.3,3-1.3,5.8-4,7c0,0-0.1,0-0.1,0h-0.1c-0.6-0.2-1.2-0.5-1.7-0.9
				c0,0-0.1,0-0.1-0.1c-0.5-0.3-0.9-0.8-1.2-1.3l0-0.1c-0.7-1.2-0.6-2.6,1.4-3.8c-0.1-0.3-0.2-0.6-0.3-0.9c-3.9,2.7-2.4,6,2.1,8.1
				V43.8z M17.6,43.4c-0.4,0.3-0.9,0.5-1.3,0.7c2.7,1.1,5.7,1.7,8.7,1.6C22.5,44.7,20.1,44,17.6,43.4L17.6,43.4z M19,42.3
				c-0.3,0.3-0.6,0.5-0.9,0.7c2.7,0.7,5.3,1.5,7.8,2.5c0.9,0,1.8-0.1,2.7-0.3C26.1,44.4,21.2,42.9,19,42.3L19,42.3z M21.5,36.4
				c0,2-0.8,4-2.2,5.5c2.6,0.7,8,2.4,10.1,3.1l0.8-0.2c-0.4-2.2-0.2-4.4,0.5-6.6c-2.6-0.2-5.1-1-7.3-2.3c-0.4,0.3-1,0.5-1.5,0.5
				C21.7,36.5,21.6,36.5,21.5,36.4L21.5,36.4z M21.5,30.9c0,0.2,0.1,0.3,0.2,0.5h0.2c0.4,0,0.8,0.1,1.1,0.3
				C23.2,30.5,22.2,30.1,21.5,30.9L21.5,30.9z M22.9,28.8c1.4,0.4,2.2,1.9,1.8,3.2c-0.1,0.3-0.3,0.7-0.5,0.9c0.4,1,0.2,2-0.6,2.7
				c3,1.9,6.7,2.6,10.2,2c2.7-0.6,3.7-2,2-3.7c-0.3-0.3,0.5-1,1.1-1.1c0.1-0.3-0.1-0.7-0.4-0.8c-1.1,0-2.1,0.3-3.1,0.6
				c0,0.1-0.1,0.2-0.2,0.1c-0.1,0-0.1-0.1-0.1-0.1c-0.1-0.3,0.1-0.7,0.2-0.9c0-0.1,0.1-0.2,0.2-0.1s0.2,0.1,0.1,0.2v0
				c0,0.1-0.1,0.2-0.1,0.3c1-0.3,2-0.5,3.1-0.6c0.2-0.2,0.8-0.6,0.7-0.9c0-0.1-0.1-0.2-0.2-0.3c-0.4-0.6-0.3-1,0.2-1.4
				c-0.7-0.1-1.5,0-2,0.5c-0.3,0.3-0.8-0.5-0.8-0.6c-0.2-0.6,0-1.3,0.5-1.7c0.1-0.1,0.2-0.1,0.3,0s0.1,0.2,0,0.3c0,0,0,0,0,0
				c-0.5,0.5-0.7,1-0.2,1.6l0,0c0.8-0.6,1.7-0.7,2.7-0.5l0,0c1.6-0.1,1.4-0.7,1-1.9c-0.2-0.4-0.4-1-0.6-1.6c-0.3-0.9-1-2.7-1.6-4.6
				c-1.8-0.7-4.3-0.3-6.2,0.6c-0.6,0.8-1.3,1.6-2.2,2.1c-0.4,2.6-2.5,4.7-5.1,5L22.9,28.8L22.9,28.8z M22.5,28.8v-0.4h-0.5
				c-0.3,0.4-0.6,0.7-0.9,1.1c0,0.3,0,0.6,0.1,0.9c0.5-0.5,1.3-0.5,1.8,0c0.4,0.4,0.5,1,0.2,1.5c0.3,0.2,0.5,0.4,0.7,0.7
				c0.7-1,0.4-2.3-0.6-3c-0.3-0.2-0.7-0.3-1.1-0.4c-0.1,0-0.2-0.1-0.2-0.2c0-0.1,0.1-0.2,0.2-0.2l0,0L22.5,28.8z M29.7,14.1
				c0,0.2-0.2,0.4-0.4,0.4c-0.2,0-0.4-0.2-0.4-0.4s0.2-0.4,0.4-0.4l0,0C29.5,13.7,29.6,13.8,29.7,14.1
				C29.7,14.1,29.7,14.1,29.7,14.1z M30.7,12.8c0,0.2-0.2,0.4-0.4,0.4c-0.2,0-0.4-0.2-0.4-0.4c0-0.2,0.2-0.4,0.4-0.4l0,0
				C30.5,12.3,30.7,12.5,30.7,12.8z M28.6,15.4c0,0.2-0.2,0.3-0.3,0.3s-0.3-0.1-0.3-0.3l0,0c0-0.2,0.1-0.3,0.3-0.3
				C28.4,15.1,28.6,15.2,28.6,15.4z M16.9,11.8c0,0.2-0.2,0.4-0.4,0.4c-0.2,0-0.4-0.2-0.4-0.4c0-0.2,0.2-0.4,0.4-0.4
				C16.7,11.4,16.9,11.5,16.9,11.8C16.9,11.8,16.9,11.8,16.9,11.8z M21.9,34.7c0.4,0,0.7-0.3,0.7-0.7c0-0.4-0.3-0.7-0.7-0.7
				c-0.4,0-0.7,0.3-0.7,0.7l0,0C21.1,34.4,21.4,34.7,21.9,34.7z M21.9,35.1c-0.7,0-1.2-0.5-1.2-1.2c0-0.7,0.5-1.2,1.2-1.2
				c0.7,0,1.2,0.5,1.2,1.2l0,0C23,34.6,22.5,35.1,21.9,35.1L21.9,35.1z M31.6,24.1c-0.1-0.4-0.1-0.8-0.1-1.2
				c-0.6,0.2-1.2,0.5-1.7,0.9c0.3,0.1,0.5,0.2,0.8,0.2C30.9,24.1,31.3,24.1,31.6,24.1L31.6,24.1z M31.9,22.8c0,0.4,0,0.9,0.1,1.3
				c0.3,0,0.6,0,0.8,0c-0.3-0.4-0.3-1-0.1-1.5C32.5,22.7,32.2,22.8,31.9,22.8L31.9,22.8z M33.6,22.2c0.3,0,0.5,0,0.7,0
				c0.1,0,0.2,0.1,0.2,0.2l0,0c0,0.3-0.3,0.4-0.6,0.4c0,0.1,0.1,0.3,0.1,0.4c0,0.6-0.2,1.1-0.6,1.2l0,0c-0.5,0.1-1,0.1-1.5,0.1
				c0,0-0.1,0-0.1,0c-0.8,0-1.7-0.2-2.4-0.4l0,0c-0.2,0.2-0.5,0-0.3-0.3l0.1-0.1l0,0C30.5,22.6,32.1,22.1,33.6,22.2L33.6,22.2z"/>
			<path class="st0" d="M32.7,44.1c-0.7-0.3-1.5-0.5-2.3-0.7c0,0.5,0.1,0.9,0.2,1.4C31.3,44.6,32,44.4,32.7,44.1z M30.4,43
				c1,0.2,1.9,0.6,2.8,1c0.4-0.2,0.8-0.3,1.2-0.5c-1.3-0.6-2.6-1-4-1.3c0,0.3,0,0.7,0,1V43z M33.3,44.4L33.3,44.4
				c-1.3,0.5-2.6,0.9-3.8,1.1h0c-1.1,0.3-2.3,0.4-3.5,0.4h0c-3.4,0.2-6.9-0.3-10.1-1.7l-0.1,0c0,0,0,0-0.1,0
				c-4.6-2.1-6.6-5.9-2.2-8.9c-0.5-0.8-1-1.5-1.7-2.3c-0.2-0.3-0.4-0.5-0.6-0.8c-0.4,0.8-0.3,1.7,0.2,2.4c0.1,0.1,0.1,0.2,0,0.3
				l-3.2,3.8c-0.1,0.1-0.2,0.1-0.3,0l0,0C-8,21.4,10.1-5.1,32,2.5c0.1,0,0.2,0.1,0.1,0.2c0,0,0,0,0,0.1l-3.4,5.7
				c0,0.1-0.1,0.1-0.2,0.1c-1.1-0.2-1.7-0.1-2.2,0.3c1,0.2,2,0.4,3,0.8c0.9-1,1.9-2,3-2.8l0,0c0,0,0.1,0,0.2,0c0,0,0.1,0,0.1,0.1v0
				l2,5.8c0,0,0,0.1,0,0.1s0,0.1-0.1,0.1l-0.2,0.1c0.4,1.2,3.2,9.7,4.1,12c0.4,0.9,0.7,1.8,1,2.7c0,0.8-0.5,1.1-1.7,1.2
				c-0.6,0.5-0.7,0.7-0.3,1.1c0.6,0.8,0.3,1.1-0.4,1.7c0.7,0.5,0.5,1.4,0.2,1.5c-0.4,0-0.7,0.2-0.9,0.5c2,2,0.3,3.7-2.3,4.3
				c-1,0.2-1.9,0.3-2.9,0.2l0,0c-0.3,1-0.6,2.1-0.7,3.2c1.6,0.3,3.1,0.9,4.5,1.7c0,0,0,0,0,0c0,0,0,0.1,0,0.2c0,0,0,0.1-0.1,0.1l0,0
				c-0.5,0.3-1.1,0.5-1.6,0.7L33.3,44.4z M14.5,36.6C14.5,36.6,14.5,36.6,14.5,36.6c0.1,0.6,0.2,1.1,0.1,1.7c0.9-0.7,1.2-2,0.6-3
				c-0.3,0.2-0.7,0.4-1,0.6C14.3,36.1,14.4,36.4,14.5,36.6L14.5,36.6z M14.1,37c-0.7,0.4-1.3,1.1-1.4,1.9c0.5,0,1-0.2,1.5-0.4
				C14.2,38,14.2,37.5,14.1,37z M12.7,39.3c0,0.3,0.1,0.5,0.2,0.8c2.1,0.1,3.9-1.6,4-3.7c0-0.7-0.1-1.4-0.5-2
				c-0.3,0.2-0.6,0.4-0.9,0.7C16.1,36.1,16.6,38.8,12.7,39.3z M13.2,40.4c0.3,0.3,0.5,0.7,0.9,0.9c4.2-1.2,5-4.7,3.4-7.8
				c-0.3,0.2-0.5,0.4-0.7,0.6c1.2,2,0.5,4.6-1.5,5.7C14.6,40.3,13.9,40.5,13.2,40.4L13.2,40.4z M14.5,41.7c0.4,0.3,0.8,0.4,1.3,0.6
				c5.1-2.6,3.9-7.9,2.7-9.8c-0.3,0.3-0.5,0.5-0.7,0.7C19.5,36.5,18.8,40.3,14.5,41.7L14.5,41.7z M30.6,20.7c1.8-0.8,3.8-1,5.7-0.5
				c-0.8-2.3-1.6-4.7-2-6c0.1,2.3-1.2,4.5-3.3,5.4C30.9,20,30.8,20.4,30.6,20.7L30.6,20.7z M29.9,21.1
				C29.9,21.1,29.9,21.1,29.9,21.1c0.3-0.5,0.5-1,0.6-1.6c0,0,0,0,0-0.1c0.1-0.5,0.1-1,0.1-1.5c0,0,0,0,0-0.1c0-0.4,0-0.8-0.1-1.2
				l-0.8,0.9c0.2,1.5-0.4,3-1.6,4c0,0.4,0,0.8,0,1.2C28.9,22.4,29.5,21.8,29.9,21.1L29.9,21.1z M19.4,33.3c0.1-0.4,0.3-0.8,0.7-1.1
				c-0.1-0.3-0.2-0.6-0.3-0.9l-0.9,1C19,32.6,19.2,32.9,19.4,33.3L19.4,33.3z M20.3,31.9c0.3-0.2,0.5-0.3,0.8-0.4
				c-0.2-0.5-0.3-1-0.3-1.5c-0.3,0.3-0.5,0.6-0.7,0.9C20.1,31.2,20.2,31.5,20.3,31.9L20.3,31.9L20.3,31.9z M10.5,33.4
				c0-0.5,0.2-1,0.4-1.6c-1.3-1.9-2-4.1-2.3-6.3c0,0,0,0,0-0.1c0-0.3,0-0.6-0.1-0.9c0,0,0,0,0-0.1c0-0.1,0-0.2,0-0.3
				c0-1,0-1.9,0.2-2.8c0,0,0,0,0-0.1c0-0.3,0.1-0.6,0.2-0.8c0,0,0,0,0-0.1c0.6-2.7,2-5.2,3.9-7.3l0,0c0.6-0.6,1.2-1.2,1.9-1.7l0,0
				c1-0.8,2.2-1.4,3.5-1.9l0,0c1.7-0.6,3.4-0.9,5.1-0.9c0.1,0,0.2,0,0.3,0c0.7,0,1.4,0.1,2.1,0.2c0.3-0.4,0.7-0.7,1.2-0.7h-0.1l0,0
				c-0.9-0.2-1.8-0.4-2.7-0.4l0,0c-4.7-0.2-9.3,1.7-12.5,5.2l0,0c-0.7,0.7-1.2,1.4-1.7,2.2l0,0c-0.5,0.7-0.9,1.5-1.2,2.3l0,0
				c-0.3,0.8-0.6,1.7-0.8,2.5c-0.8,3.7-0.3,7.6,1.3,11l0,0c0.4,0.8,0.8,1.6,1.3,2.3L10.5,33.4z M11.3,31.8L11.3,31.8l0.4,0.7
				c0.8-0.6,1.6-1.3,2.3-2c-0.3-0.2-0.7-0.3-1-0.5c-0.4,0.6-1.2,0.9-1.9,0.8c-0.1,0-0.2-0.1-0.2-0.2c0,0,0-0.1,0-0.1
				c0.1-0.8,0.1-1.7,0-2.5c-0.1-0.1-0.2-0.3-0.2-0.4c-0.3,0-0.7,0.1-1,0.1c-0.2,0-0.3-0.2-0.1-0.3c0.7-0.6,0.5-1.4,0.7-2.5
				c-0.4,0.3-0.9,0.5-1.3,0.8C9.2,27.8,10,29.9,11.3,31.8L11.3,31.8z M13.3,34.4c8.4-5.6,11.7-15.9,19.3-22.3l-1-0.2
				c-0.2,0-0.2,0-0.2-0.3l0.2-1.6c-7,7.1-10.8,18.7-18.7,23.7C13,33.9,13.2,34.1,13.3,34.4L13.3,34.4z M32.9,8.7
				c-0.3,0.3-0.6,0.6-1,0.9l-0.2,2l1.3,0.3c0.2-0.2,0.5-0.4,0.7-0.6l-0.2-0.5c-0.3,0.1-0.8-0.1-0.9-0.4l0,0c-0.1-0.3,0-0.7,0.4-0.9
				l0,0L32.9,8.7L32.9,8.7z M14.5,30.6c-0.8,0.8-1.7,1.5-2.5,2.2l0,0.1l0.4,0.5c4.1-2.6,7.1-7,10.2-11.8c2.6-4.1,5.3-8.7,8.9-12.2
				c0,0,0,0,0,0c0.3-0.3,0.7-0.7,1.1-1l-0.3-0.9c-1.4,1.1-2.7,2.4-3.9,3.7v0c-2.2,2.7-4.1,5.6-6,8.6c-1,1.5-2,3-3,4.5v0
				c-0.4,0.6-0.8,1.2-1.3,1.7v0l-0.8,1.3c0,0,0,0,0,0c-0.5,0.6-1,1.2-1.5,1.7l0,0C15.5,29.7,15.1,30.1,14.5,30.6L14.5,30.6
				L14.5,30.6z M14.4,30.1c0.3-0.3,0.6-0.6,0.9-1c-2-0.3-3-1.2-3.4-2.3c-0.2,0.2-0.4,0.4-0.7,0.5l0.2,0.3c0,0,0,0,0,0.1
				C12.2,28.8,13.2,29.6,14.4,30.1L14.4,30.1z M15.6,28.8c0.3-0.3,0.6-0.7,0.9-1.1c-3.5,1-5.7-4.5,0.3-6.9c-0.4-0.1-0.9-0.3-1.3-0.5
				C11.6,22.2,10.3,28.1,15.6,28.8L15.6,28.8z M17.1,27.1c0.3-0.4,0.6-0.8,0.9-1.2c0.3-1.1-0.3-2.3-1.4-2.8c-0.3,0.2-0.7,0.4-1,0.7
				c1.9,0.3,1.9,2.7,0.1,2.7c-1.4,0-1.3-1.8-0.7-2.7l0,0l0,0c0.4-0.5,0.9-0.8,1.4-1.1h0.1c0.5-0.3,1.1-0.5,1.7-0.6h0.1
				c0.4-0.1,0.8-0.2,1.3-0.2c-0.4-0.2-0.8-0.3-1.2-0.5l-0.9-0.3C11,23.3,13.5,29,17.1,27.1L17.1,27.1z M18.5,25.4
				c0.3-0.4,0.6-0.8,0.8-1.2c-0.2-0.6-0.6-1.2-1-1.6c-0.4,0.1-0.8,0.2-1.2,0.4C17.9,23.4,18.5,24.4,18.5,25.4z M19.6,23.8
				c0.3-0.4,0.6-0.9,0.9-1.3l-0.2-0.2c-0.5,0-1,0.1-1.5,0.2C19.1,22.8,19.4,23.3,19.6,23.8z M20.7,22.1l0.9-1.4
				c-1.5-0.2-3-0.2-4.5-0.1l1.4,0.5c0.7,0.2,1.3,0.5,1.9,0.8h0C20.5,21.9,20.6,22,20.7,22.1L20.7,22.1z M21.9,20.4l0.6-1
				c-1.5-0.3-3-0.4-4.5-0.3c-1.4,0.1-2.9,0-4.3-0.3c0.7,0.6,1.4,1,2.3,1.4c0.9,0,1.8,0,2.7,0C19.7,20.1,20.8,20.1,21.9,20.4
				L21.9,20.4z M22.7,19l0.5-0.8c-1.6-0.6-4.2-0.4-5.9-0.4c-2,0-3.9-0.1-5.1-1.2c0.2,0.6,0.4,1.1,0.8,1.6c1.8,0.8,5.4,0.4,7.6,0.5
				C21.3,18.7,22,18.8,22.7,19L22.7,19z M23.5,17.8l0.6-0.9c-0.6-0.2-1.3-0.3-1.9-0.4h-0.1c-1.7-0.2-3.3-0.2-5-0.2c-1,0-2,0-3-0.3
				H14c-0.8-0.3-1.4-0.7-1.9-1.3c0,0.1-0.1,0.1-0.2,0.2c0,0.3,0,0.7,0.1,1c1,1.4,3,1.6,5.3,1.6c1.8,0,4.4-0.2,6.1,0.5L23.5,17.8z
				 M28.5,10.8l0.6-0.7c-1-0.3-2.1-0.6-3.1-0.8l0,0c-0.5-0.1-1-0.1-1.4-0.1c0.2,0.3,0.2,0.7,0.2,1c0.2,0.2,0.4,0.5,0.4,0.8
				c0.3-0.2,0.8-0.2,1.1-0.1c0.3-0.7,1.1-0.9,1.7-0.6C28.2,10.5,28.3,10.6,28.5,10.8L28.5,10.8z M5.7,35.3l3.7-2.8
				c-0.2-0.3-0.3-0.7-0.5-1l-3.1,2c-0.1,0.1-0.2,0.1-0.3,0c-0.1-0.1-0.1-0.2,0-0.3l0,0l3.2-2c-0.1-0.3-0.3-0.6-0.3-0.8l-4.3,2
				C4.6,33.3,5.1,34.3,5.7,35.3L5.7,35.3L5.7,35.3z M9.6,32.8l-3.7,2.8c0.7,1,1.4,1.9,2.2,2.7l3-3.5L10.4,34l-2.8,2.8
				c-0.1,0.1-0.2,0.1-0.3,0s-0.1-0.2,0-0.3l0,0l2.9-2.8C10,33.4,9.8,33.1,9.6,32.8L9.6,32.8z M3.9,31.9l4.3-2
				c-0.1-0.3-0.2-0.6-0.3-0.8l-3.5,1c-0.1,0-0.2,0-0.3-0.1c0-0.1,0-0.2,0.1-0.3l0,0l3.5-1c-0.1-0.4-0.2-0.8-0.3-1.1l-4.7,1
				C3.1,29.7,3.5,30.8,3.9,31.9L3.9,31.9z M2.7,28.1l4.7-1c-0.1-0.3-0.1-0.7-0.2-1l-3.7,0.3c-0.1,0-0.2,0-0.3-0.2
				c0-0.1,0-0.2,0.2-0.3c0,0,0,0,0.1,0l3.7-0.3c0-0.4-0.1-0.7-0.1-1.1l-4.8-0.1c0,1.2,0.2,2.4,0.4,3.6L2.7,28.1z M2.2,24.1L7,24.2
				c0-0.3,0-0.7,0-1l-3.7-0.4c-0.1,0-0.2-0.1-0.2-0.2c0-0.1,0.1-0.2,0.2-0.2L7,22.8c0-0.4,0.1-0.8,0.1-1.2l-4.7-1
				C2.3,21.7,2.2,22.8,2.2,24.1L2.2,24.1z M2.5,20.2l4.7,1c0-0.3,0.1-0.7,0.2-1l-3.6-1.1c-0.1,0-0.2-0.2-0.1-0.3
				c0-0.1,0.1-0.1,0.2-0.1l3.5,1.1c0.1-0.3,0.2-0.6,0.3-0.9l-4.3-2.1C3.1,17.9,2.8,19,2.5,20.2L2.5,20.2z M3.6,16.4l4.3,2.1
				c0.1-0.3,0.2-0.6,0.3-0.9l-3.3-2c-0.1,0-0.1-0.2-0.1-0.3c0-0.1,0.2-0.1,0.3-0.1l3.2,2c0.1-0.3,0.3-0.7,0.5-1L5,13.3
				C4.5,14.3,4,15.3,3.6,16.4L3.6,16.4z M5.2,12.9l3.8,3l0.4-0.7l-2.8-2.7c-0.1-0.1,0-0.2,0-0.3c0.1,0,0.2,0,0.3,0l2.7,2.7
				c0.2-0.3,0.4-0.6,0.7-0.9l-3.3-3.7C6.4,11,5.7,11.9,5.2,12.9L5.2,12.9z M7.4,9.8l3.2,3.7c0.2-0.3,0.4-0.5,0.6-0.7L8.9,9.5
				c0-0.1,0-0.2,0.1-0.3c0.1,0,0.2,0,0.3,0l2.3,3.2c0.2-0.3,0.5-0.5,0.7-0.7L9.8,7.4C8.9,8.1,8.1,8.9,7.4,9.8z M10.1,7.1l2.6,4.4
				c0.2-0.2,0.4-0.4,0.7-0.6L11.6,7c0-0.1,0-0.2,0.1-0.3c0.1,0,0.2,0,0.3,0.1c0,0,0,0,0,0l1.7,3.8c0.3-0.2,0.6-0.4,0.9-0.7l-1.7-5
				C11.9,5.5,11,6.2,10.1,7.1L10.1,7.1L10.1,7.1z M13.2,4.8l1.7,4.9c0.3-0.2,0.5-0.3,0.8-0.5l-1-4.2c0-0.1,0-0.2,0.1-0.3
				c0.1,0,0.2,0,0.3,0.1l1,4l0.9-0.4l-0.7-5.4c-1,0.4-2,1-3,1.5L13.2,4.8z M16.6,3.1l0.7,5.4c0.3-0.1,0.6-0.3,1-0.3l-0.1-4.5
				c0-0.1,0.1-0.2,0.2-0.2c0.1,0,0.2,0.1,0.2,0.2l0,0L18.8,8c0.3-0.1,0.6-0.2,1-0.3L20.1,2C18.9,2.2,17.8,2.5,16.6,3.1L16.6,3.1
				L16.6,3.1z M20.5,2l-0.4,5.6c0.3-0.1,0.7-0.1,1.1-0.2L21.9,3c0-0.1,0.1-0.2,0.2-0.2c0.1,0,0.2,0.1,0.2,0.2v0l-0.7,4.3l0.9-0.1
				L24,1.5C22.8,1.6,21.6,1.8,20.5,2z M24.4,1.7l-1.5,5.6c0.4,0,0.7,0,1.1,0l1.4-4.4c0-0.1,0.2-0.2,0.3-0.1s0.1,0.1,0.1,0.2
				l-1.3,4.3c0.3,0,0.7,0.1,1,0.1l2.3-5.5c-1.1-0.2-2.3-0.3-3.5-0.3L24.4,1.7z M28.3,2l-2.3,5.5c0.3,0,0.6,0.1,0.9,0.2l2.3-4.5
				c0-0.1,0.2-0.1,0.3-0.1c0.1,0,0.1,0.2,0.1,0.3l0,0l-2.3,4.4C27.6,8,28,8.1,28.5,8.2l3.2-5.3C30.5,2.5,29.4,2.2,28.3,2L28.3,2z
				 M20.8,14.3C20.8,14.4,20.8,14.4,20.8,14.3c0,0.1,0,0.1-0.1,0.2l0,0c-0.3,0-0.7,0-1,0l-0.1,0.1c0.1,0.5,0.3,1,0.7,1.3l0.9,0
				l1-3.8c-1-0.3-1.3-2.1,0.1-2.3c0-0.3,0.1-0.6,0.3-0.7c-0.7,0-1.4,0.1-2.1,0.3l0.2,2.1c0,0,0,0,0,0.1v0.2c0,0.1,0,0.2-0.2,0.3
				c-0.1,0-0.2,0-0.3-0.2c0,0,0,0,0-0.1v-0.2L19.5,11c-0.5,0.3-0.6,0.9-0.3,1.3c0.2,0.3,0.6,0.5,1,0.4c0.1,0,0.2,0,0.3,0v0
				c0-0.1,0.1-0.2,0.2-0.2c0.1,0,0.2,0.1,0.2,0.2v0.2v0l0.1,1.3v0.1L20.8,14.3z M19.3,10.5l0.1,0.1l0,0l0.7,0.5l-0.1-1.7
				c-0.5,0.1-1,0.3-1.6,0.5c-0.9,0.8-1,2.2-0.3,3.2l0,0.1c0.6,0.7,1.3,1,2.2,0.9l-0.1-0.9c-0.1,0-0.2,0-0.3,0
				c-0.8,0-1.4-0.7-1.4-1.4c0-0.4,0.2-0.8,0.4-1c0-0.1,0-0.2,0.1-0.3S19.2,10.4,19.3,10.5L19.3,10.5z M19.1,14.3
				c-0.4-0.2-0.8-0.4-1.2-0.8c-1.3,0.3-2.6-0.4-3.2-1.6c-0.5,0.4-1,0.8-1.4,1.3l0.9,0.2l0,0l0.2,0h0.1c0,0,0,0,0.1,0.1
				C15.7,14.8,18.1,14.8,19.1,14.3L19.1,14.3z M17.6,13.2c-0.6-0.9-0.6-2,0-3c-0.9,0.4-1.7,0.9-2.6,1.5
				C15.5,12.7,16.5,13.3,17.6,13.2L17.6,13.2z M14.4,13.9L14.4,13.9c-0.1,0.6-0.1,1.2,0,1.7c0.9,0.2,1.9,0.3,2.8,0.3
				c0.9,0,1.7,0,2.5,0c-0.3-0.3-0.4-0.7-0.5-1.1C17.9,15.3,15.5,15.1,14.4,13.9L14.4,13.9z M15.1,20.3c-0.3-0.1-0.5-0.3-0.8-0.4
				c-0.3,0.2-0.6,0.4-0.8,0.7l0,0c-0.5,0.4-0.9,0.8-1.3,1.3l0,0c-0.1,0.2-0.3,0.3-0.4,0.6v0c-0.4,0.6-0.7,1.3-0.8,2
				c-0.2,0.9,0,2-0.6,2.7c0.5,0,1-0.2,1.4-0.6C11.3,24.3,12.9,21.4,15.1,20.3L15.1,20.3z M15.3,24.2c0,0.1-0.1,0.2-0.1,0.3
				c-0.5,1,0,1.7,0.6,1.7C17.1,26.2,17,24.3,15.3,24.2L15.3,24.2z M13,20.3c-0.8-0.5-1.4-1.2-1.9-2c0,0.4,0,0.8,0,1.2l0,0
				c0.2,0.6,0.4,1.2,0.8,1.7C12.2,20.9,12.6,20.6,13,20.3L13,20.3z M11.5,28.6c0,0.6,0,1.1,0,1.7c0.5,0,1-0.2,1.3-0.6
				C12.2,29.4,11.8,29.1,11.5,28.6L11.5,28.6z M11.3,21l-0.8,0.4l0.4,0.9c0.1-0.1,0.3-0.1,0.5-0.2l0.3-0.4
				C11.5,21.4,11.4,21.2,11.3,21z M9,24.6c0,0.2,0,0.3,0,0.5c0.4-0.3,0.9-0.6,1.4-0.8c0.1-0.6,0.3-1.1,0.6-1.6l-0.1,0l0,0
				C10.1,23.2,9.5,23.8,9,24.6z M9.1,22C9,22.7,9,23.3,9,24c0.2-0.3,0.5-0.6,0.8-0.9L9.1,22L9.1,22z M9.3,20.7l-0.1,0.7l0.9,1.4
				c0.2-0.1,0.3-0.2,0.5-0.3c-0.7-1.5-0.9-1.2,0.6-1.9c-0.1-0.2-0.2-0.4-0.3-0.7C10.3,20.1,9.8,20.3,9.3,20.7z M11.6,15.4
				c-1,1.4-1.7,3-2.1,4.7c0.4-0.3,0.8-0.4,1.3-0.6c-0.1-0.7-0.1-1.3,0.2-2c0.1-0.3,0.3-0.2,0.4,0c0.2,1,1.2,1.9,2,2.5
				c0.2-0.2,0.4-0.3,0.6-0.5C12.6,18.5,11.7,17,11.6,15.4L11.6,15.4z M13,13.5c-0.2,0.3-0.4,0.5-0.7,0.7c0.4,0.5,0.9,1,1.5,1.2
				c-0.1-0.6-0.1-1.1,0-1.7L13,13.5L13,13.5z M24.6,12.2c-0.2,0.1-0.5,0.2-0.7,0.2c-0.1,0.6-0.1,1.2-0.1,1.8l1.1-1.2
				C24.7,12.8,24.6,12.5,24.6,12.2z M23.4,13.4c-0.3-0.1-0.6-0.2-0.7-0.5c0-0.1,0.4-0.1,0.4-0.1c0.1,0,0.2,0,0.3,0l0.1-0.7l0,0v-0.2
				c0-0.1,0.1-0.2,0.2-0.2c0.1,0,0.2,0.1,0.2,0.2c0,0,0,0,0,0.1c0.4,0,0.8-0.4,0.8-0.8c0-0.4-0.4-0.8-0.8-0.8c-0.1,0-0.2,0-0.3,0
				s-0.2,0-0.3-0.1c0-0.1,0-0.2,0.1-0.3h0c0.3,0,0.5,0,0.7,0c-0.1-1.7-2.8-0.7-1.3,0.6c0.1,0.1,0.1,0.2,0,0.3
				c-0.1,0.1-0.2,0.1-0.3,0c-0.2-0.2-0.4-0.4-0.5-0.7c-1,0.1-0.7,1.3-0.1,1.5l0,0c0-0.1,0.1-0.2,0.3-0.1c0.1,0,0.2,0.1,0.1,0.3l0,0
				l0,0.2l0,0l-1,3.9l0.5,0.1l1.4-1.5c-0.1-0.3-0.1-0.7-0.1-1.1L23.4,13.4z M25.4,14.8c-0.2-0.3-0.3-0.7-0.2-1.1
				c0-0.2,0.2,0.1,0.3,0.1c0.1,0.1,0.3,0.2,0.5,0.3c0.3-0.5,0.7-1,1-1.5c0.4-0.6,0.8-1.1,1.3-1.6c-0.7-0.8-1.9-0.3-1.6,1
				c0,0.1,0,0.2-0.1,0.3c-0.1,0-0.2,0-0.3-0.1l0,0c-0.1-0.3-0.1-0.5,0-0.8c-0.4-0.2-0.9,0-1.1,0.4c-0.1,0.3-0.1,0.7,0.1,0.9
				c0.1-0.1,0.2,0,0.3,0c0,0.1,0,0.2,0,0.3l-1.6,1.7v0l-1.3,1.4c0.6,0.1,1.2,0.3,1.7,0.4C24.7,16,25,15.4,25.4,14.8L25.4,14.8z
				 M23.6,26.4c1.8-0.6,3-2.3,3-4.2c-0.5,0.8-1,1.5-1.5,2.2S24.1,25.7,23.6,26.4L23.6,26.4z M28.1,21.1c0.8-0.8,1.3-1.9,1.3-3
				c-0.5,0.7-1,1.4-1.5,2C27.9,20.4,28,20.8,28.1,21.1L28.1,21.1z M31.1,17.4c0.9-0.6,1.4-1.7,1.4-2.7c-0.6,0.5-1.1,1-1.6,1.7
				C31,16.8,31.1,17.1,31.1,17.4L31.1,17.4z M31.1,19.1c2.1-1,3-3.3,2.8-5.6c-0.3,0.3-0.7,0.5-1,0.8c0.2,1.5-0.5,2.9-1.8,3.7
				C31.2,18.4,31.2,18.8,31.1,19.1C31.1,19.1,31.1,19.1,31.1,19.1z M22.7,27.9L22.7,27.9c2.5-0.3,4.5-2.2,5-4.7c0,0,0,0,0,0
				c0.1-0.5,0.1-1.1,0-1.6v0c0-0.3-0.1-0.7-0.2-1l-0.7,1.1c0.3,1.8-0.5,4.3-3.7,5.3l-0.8,1.1h0.3L22.7,27.9z M13.9,35.3L13.9,35.3
				l0.1,0.2c0.8-0.5,1.6-1,2.3-1.6l0,0c0.3-0.3,0.7-0.6,1-0.9l0,0c0.3-0.3,0.7-0.6,1-1l0,0c0.4-0.4,0.9-0.9,1.3-1.3l0-0.1
				c0.4-0.4,0.7-0.8,1.1-1.3c0,0,0,0,0-0.1c0.3-0.4,0.6-0.8,0.9-1.2V28c0.3-0.4,0.7-0.9,1-1.3c0,0,0,0,0-0.1
				c1.2-1.7,2.3-3.4,3.5-5.1v0l1-1.4v0c0.6-0.8,1.1-1.6,1.7-2.3l0.2-0.2v-0.1c0.3-0.4,0.7-0.8,1-1.3v0c0.6-0.7,1.3-1.3,2-2h0
				c0.4-0.4,0.9-0.7,1.3-1h0l0.1,0l0,0l0.2-0.1l-0.4-1.2c-0.2,0.2-0.4,0.3-0.7,0.5l0,0C25,18.7,21.6,29.1,13.1,34.8
				c0.1,0.2,0.2,0.3,0.3,0.5L13.9,35.3z M21.3,36L21.3,36c0.2,0,0.3,0,0.5,0c0.5,0,1-0.2,1.3-0.5l0,0c0.5-0.4,0.8-1,0.8-1.7
				c0-0.3,0-0.6-0.2-0.9v0c-0.3-0.7-1.1-1.2-2-1.2h-0.3l0,0c-0.4,0-0.7,0.2-1,0.5l0,0c-0.9,0.8-1,2.1-0.2,3
				C20.5,35.6,20.9,35.8,21.3,36L21.3,36z M15.8,43.8c0.6-0.2,1.1-0.5,1.7-0.8h0.1c0.4-0.3,0.9-0.6,1.3-1l0,0
				c1.5-1.5,2.3-3.5,2.3-5.6c-0.4-0.1-0.8-0.4-1.1-0.7c0.3,3-1.3,5.8-4,7c0,0-0.1,0-0.1,0h-0.1c-0.6-0.2-1.2-0.5-1.7-0.9
				c0,0-0.1,0-0.1-0.1c-0.5-0.3-0.9-0.8-1.2-1.3l0-0.1c-0.7-1.2-0.6-2.6,1.4-3.8c-0.1-0.3-0.2-0.6-0.3-0.9c-3.9,2.7-2.4,6,2.1,8.1
				V43.8z M17.6,43.4c-0.4,0.3-0.9,0.5-1.3,0.7c2.7,1.1,5.7,1.7,8.7,1.6C22.5,44.7,20.1,44,17.6,43.4L17.6,43.4z M19,42.3
				c-0.3,0.3-0.6,0.5-0.9,0.7c2.7,0.7,5.3,1.5,7.8,2.5c0.9,0,1.8-0.1,2.7-0.3C26.1,44.4,21.2,42.9,19,42.3L19,42.3z M21.5,36.4
				c0,2-0.8,4-2.2,5.5c2.6,0.7,8,2.4,10.1,3.1l0.8-0.2c-0.4-2.2-0.2-4.4,0.5-6.6c-2.6-0.2-5.1-1-7.3-2.3c-0.4,0.3-1,0.5-1.5,0.5
				C21.7,36.5,21.6,36.5,21.5,36.4L21.5,36.4z M21.5,30.9c0,0.2,0.1,0.3,0.2,0.5h0.2c0.4,0,0.8,0.1,1.1,0.3
				C23.2,30.5,22.2,30.1,21.5,30.9L21.5,30.9z M22.9,28.8c1.4,0.4,2.2,1.9,1.8,3.2c-0.1,0.3-0.3,0.7-0.5,0.9c0.4,1,0.2,2-0.6,2.7
				c3,1.9,6.7,2.6,10.2,2c2.7-0.6,3.7-2,2-3.7c-0.3-0.3,0.5-1,1.1-1.1c0.1-0.3-0.1-0.7-0.4-0.8c-1.1,0-2.1,0.3-3.1,0.6
				c0,0.1-0.1,0.2-0.2,0.1c-0.1,0-0.1-0.1-0.1-0.1c-0.1-0.3,0.1-0.7,0.2-0.9c0-0.1,0.1-0.2,0.2-0.1s0.2,0.1,0.1,0.2v0
				c0,0.1-0.1,0.2-0.1,0.3c1-0.3,2-0.5,3.1-0.6c0.2-0.2,0.8-0.6,0.7-0.9c0-0.1-0.1-0.2-0.2-0.3c-0.4-0.6-0.3-1,0.2-1.4
				c-0.7-0.1-1.5,0-2,0.5c-0.3,0.3-0.8-0.5-0.8-0.6c-0.2-0.6,0-1.3,0.5-1.7c0.1-0.1,0.2-0.1,0.3,0s0.1,0.2,0,0.3c0,0,0,0,0,0
				c-0.5,0.5-0.7,1-0.2,1.6l0,0c0.8-0.6,1.7-0.7,2.7-0.5l0,0c1.6-0.1,1.4-0.7,1-1.9c-0.2-0.4-0.4-1-0.6-1.6c-0.3-0.9-1-2.7-1.6-4.6
				c-1.8-0.7-4.3-0.3-6.2,0.6c-0.6,0.8-1.3,1.6-2.2,2.1c-0.4,2.6-2.5,4.7-5.1,5L22.9,28.8L22.9,28.8z M22.5,28.8v-0.4h-0.5
				c-0.3,0.4-0.6,0.7-0.9,1.1c0,0.3,0,0.6,0.1,0.9c0.5-0.5,1.3-0.5,1.8,0c0.4,0.4,0.5,1,0.2,1.5c0.3,0.2,0.5,0.4,0.7,0.7
				c0.7-1,0.4-2.3-0.6-3c-0.3-0.2-0.7-0.3-1.1-0.4c-0.1,0-0.2-0.1-0.2-0.2c0-0.1,0.1-0.2,0.2-0.2l0,0L22.5,28.8z M29.7,14.1
				c0,0.2-0.2,0.4-0.4,0.4c-0.2,0-0.4-0.2-0.4-0.4s0.2-0.4,0.4-0.4l0,0C29.5,13.7,29.6,13.8,29.7,14.1
				C29.7,14.1,29.7,14.1,29.7,14.1z M30.7,12.8c0,0.2-0.2,0.4-0.4,0.4c-0.2,0-0.4-0.2-0.4-0.4c0-0.2,0.2-0.4,0.4-0.4l0,0
				C30.5,12.3,30.7,12.5,30.7,12.8z M28.6,15.4c0,0.2-0.2,0.3-0.3,0.3s-0.3-0.1-0.3-0.3l0,0c0-0.2,0.1-0.3,0.3-0.3
				C28.4,15.1,28.6,15.2,28.6,15.4z M16.9,11.8c0,0.2-0.2,0.4-0.4,0.4c-0.2,0-0.4-0.2-0.4-0.4c0-0.2,0.2-0.4,0.4-0.4
				C16.7,11.4,16.9,11.5,16.9,11.8C16.9,11.8,16.9,11.8,16.9,11.8z M21.9,34.7c0.4,0,0.7-0.3,0.7-0.7c0-0.4-0.3-0.7-0.7-0.7
				c-0.4,0-0.7,0.3-0.7,0.7l0,0C21.1,34.4,21.4,34.7,21.9,34.7z M21.9,35.1c-0.7,0-1.2-0.5-1.2-1.2c0-0.7,0.5-1.2,1.2-1.2
				c0.7,0,1.2,0.5,1.2,1.2l0,0C23,34.6,22.5,35.1,21.9,35.1L21.9,35.1z M31.6,24.1c-0.1-0.4-0.1-0.8-0.1-1.2
				c-0.6,0.2-1.2,0.5-1.7,0.9c0.3,0.1,0.5,0.2,0.8,0.2C30.9,24.1,31.3,24.1,31.6,24.1L31.6,24.1z M31.9,22.8c0,0.4,0,0.9,0.1,1.3
				c0.3,0,0.6,0,0.8,0c-0.3-0.4-0.3-1-0.1-1.5C32.5,22.7,32.2,22.8,31.9,22.8L31.9,22.8z M33.6,22.2c0.3,0,0.5,0,0.7,0
				c0.1,0,0.2,0.1,0.2,0.2l0,0c0,0.3-0.3,0.4-0.6,0.4c0,0.1,0.1,0.3,0.1,0.4c0,0.6-0.2,1.1-0.6,1.2l0,0c-0.5,0.1-1,0.1-1.5,0.1
				c0,0-0.1,0-0.1,0c-0.8,0-1.7-0.2-2.4-0.4l0,0c-0.2,0.2-0.5,0-0.3-0.3l0.1-0.1l0,0C30.5,22.6,32.1,22.1,33.6,22.2L33.6,22.2z"/>
			<path class="st0" d="M48.3,6.6v0.7h2.3v7.1h0.9V7.4h2.3V6.6H48.3z M55.6,6.6v7.9h4.3v-0.7h-3.4v-3h3.1V10h-3.1V7.3h3.4V6.6
				L55.6,6.6L55.6,6.6z M65.7,7.1c0.7,0,1.4,0.2,2,0.6l0.3-0.6c-0.7-0.4-1.5-0.6-2.3-0.6c-2.2-0.1-4.1,1.7-4.2,3.9
				c0,0.1,0,0.2,0,0.2c-0.1,2.2,1.6,4,3.7,4.1c0.1,0,0.3,0,0.4,0c0.8,0,1.7-0.3,2.3-0.7l-0.3-0.6c-0.6,0.3-1.3,0.6-2,0.6
				c-1.8,0-3.3-1.5-3.3-3.3c0,0,0-0.1,0-0.1C62.4,8.8,63.8,7.3,65.7,7.1C65.6,7.1,65.6,7.1,65.7,7.1L65.7,7.1z M70,6.6v7.9h0.9v-3.7
				h4.3v3.7h0.9V6.7h-0.9v3.4h-4.3V6.6C70.9,6.6,70,6.6,70,6.6z M79.8,6.4l-0.9,0.2v7.8h0.8V7.8l4.6,7l1-0.3V6.6h-0.8v6.7L79.8,6.4
				L79.8,6.4z M88.5,6.6v7.9h0.9V6.7L88.5,6.6z M93.9,14.1c-0.6,0-1.2-0.2-1.7-0.6l-0.3,0.6c0.6,0.4,1.3,0.6,2.1,0.6
				c1.2,0.1,2.3-0.7,2.5-2c0-0.1,0-0.2,0-0.3c0-1.2-0.9-1.7-1.7-2.1L94,10c-0.6-0.3-1.2-0.7-1.2-1.4c0-0.8,0.7-1.5,1.5-1.5
				c0,0,0,0,0.1,0c0.6,0,1.2,0.2,1.7,0.6l0.3-0.6c-0.6-0.3-1.3-0.6-2-0.6c-1.2-0.1-2.2,0.7-2.3,1.8c0,0,0,0.1,0,0.2
				c0,1.7,1.2,2,2.3,2.5c0.7,0.3,1.2,0.7,1.2,1.5c0,0.8-0.7,1.5-1.5,1.5C94,14.1,93.9,14.1,93.9,14.1z M102.5,7.2
				c0.7,0,1.4,0.2,2,0.6l0.3-0.6c-0.7-0.4-1.6-0.6-2.4-0.6c-2.2-0.1-4.1,1.7-4.2,3.8c0,0.1,0,0.2,0,0.2c-0.1,2.2,1.6,4,3.7,4.1
				c0.1,0,0.3,0,0.4,0c0.8,0,1.7-0.3,2.4-0.7l-0.3-0.6c-0.6,0.3-1.3,0.6-2,0.6c-1.8,0-3.3-1.5-3.3-3.3c0,0,0-0.1,0-0.1
				C99.2,8.8,100.6,7.2,102.5,7.2C102.5,7.2,102.5,7.2,102.5,7.2L102.5,7.2z M107.1,6.7v7.8h0.9v-3.7h4.3v3.7h0.9V6.7h-0.9v3.4H108
				V6.7L107.1,6.7z M116,6.7v7.8h4.3v-0.7h-3.4v-3h3.1v-0.7h-3.1V7.4h3.4V6.6L116,6.7z M55.3,24.9v-5.2h-0.9v5
				c0,1.8-0.9,2.3-2.2,2.3s-2.1-0.8-2.1-2.3v-5h-0.9v5.3c0,1.8,1,2.8,3,2.8C53.7,27.7,55.3,27.2,55.3,24.9L55.3,24.9z M58.7,19.5
				l-0.9,0.2v7.8h0.8v-6.8l4.7,7l1-0.3v-7.8h-0.8v6.7L58.7,19.5L58.7,19.5z M67,19.7v7.9h0.9v-7.9L67,19.7z M70.4,19.6l-0.9,0.3
				l3,7.7h0.9l3-7.7l-0.9-0.2L73,26.7L70.4,19.6z M78.2,19.7v7.9h4.3v-0.7h-3.4v-3h3.1v-0.7h-3.1v-2.7h3.4v-0.7L78.2,19.7z
				 M86.5,23.5h-1v-3.2h1.3c1.3,0,1.8,0.7,1.8,1.6C88.5,23.2,87.5,23.5,86.5,23.5L86.5,23.5z M86.9,19.7h-2.4v7.9h0.9v-3.4h0.7
				c0.5,0,1,0.2,1.2,0.6l0.3,0.4l1.9,2.5l0.8-0.5l-1.6-2c-0.3-0.4-0.7-1.1-1.2-1.2v-0.2c1,0,1.8-0.9,1.7-1.9c0,0,0-0.1,0-0.1
				c0-1.1-0.9-2.1-2-2.1C87.1,19.7,87,19.7,86.9,19.7L86.9,19.7z M93.5,27.1c-0.6,0-1.2-0.2-1.7-0.6l-0.3,0.6
				c0.6,0.4,1.3,0.6,2.1,0.6c1.2,0.2,2.3-0.7,2.5-1.9c0-0.1,0-0.2,0-0.3c0-1.2-0.9-1.7-1.7-2.1L93.6,23c-0.6-0.3-1.2-0.7-1.2-1.4
				c0-0.8,0.7-1.5,1.5-1.5c0,0,0,0,0.1,0c0.6,0,1.2,0.2,1.7,0.6l0.3-0.6c-0.6-0.3-1.3-0.6-2-0.6c-1.2-0.1-2.2,0.7-2.3,1.9
				c0,0,0,0.1,0,0.2c0,1.7,1.2,2,2.3,2.5c0.7,0.3,1.2,0.7,1.2,1.5c0,0.8-0.7,1.5-1.5,1.5C93.6,27.1,93.5,27.1,93.5,27.1L93.5,27.1z
				 M98.4,19.7v7.9h0.9v-7.9H98.4z M100.9,19.7v0.7h2.3v7.1h0.9v-7.1h2.3v-0.7H100.9z M110.5,20.4l1.4,3.9h-3L110.5,20.4L110.5,20.4
				z M114.1,27.4l-3.1-7.8H110l-3.2,7.8l0.9,0.3l1.1-2.7h3.4l1,2.8L114.1,27.4L114.1,27.4z M112.8,19.1H112v1h0.8V19.1L112.8,19.1z
				 M109,20.2v-1h-0.8v1L109,20.2z M114.9,19.6v0.7h2.3v7.1h0.9v-7.1h2.3v-0.7L114.9,19.6z M51.3,39.9h-1.2v-6.5h1.3
				c2.2,0,3.6,1.1,3.6,3.2S53.6,39.9,51.3,39.9L51.3,39.9z M51.7,32.7h-2.5v7.9h2.1c2.7,0,4.5-1.4,4.5-4
				C55.9,34.5,54.8,32.7,51.7,32.7L51.7,32.7z M60.9,33.4l1.4,3.9h-3L60.9,33.4L60.9,33.4z M64.4,40.4l-3.1-7.8h-1l-3.2,7.8l0.9,0.3
				l1-2.8h3.4l1,2.8l0.9-0.3H64.4z M68.5,36.5h-1.1v-3.2h1.3c1.3,0,1.8,0.7,1.8,1.6C70.4,36.2,69.4,36.5,68.5,36.5L68.5,36.5z
				 M68.9,32.7h-2.4v7.9h0.9v-3.4h0.7c0.5,0,1,0.2,1.2,0.6l0.3,0.4l1.9,2.5l0.8-0.5l-1.6-2c-0.3-0.4-0.7-1.1-1.2-1.2v-0.2
				c1,0,1.8-0.9,1.7-1.9c0,0,0-0.1,0-0.2c0-1.1-0.9-2.1-2-2.1C69.1,32.7,69,32.7,68.9,32.7L68.9,32.7z M77.2,32.7h-1l-2.2,7.8
				l0.8,0.2l1.9-6.9l2,6.7h1l2-6.7l1.8,6.9l0.8-0.2l-2.2-7.8h-1l-2,6.9l-2-6.9H77.2z M88.1,40.1c-0.6,0-1.2-0.2-1.7-0.6l-0.3,0.6
				c0.6,0.4,1.3,0.6,2.1,0.6c1.2,0.1,2.3-0.7,2.5-2c0-0.1,0-0.2,0-0.3c0-1.2-0.9-1.7-1.7-2.1l-0.7-0.3c-0.6-0.3-1.2-0.7-1.2-1.4
				c0-0.8,0.7-1.5,1.5-1.5c0,0,0,0,0.1,0c0.6,0,1.2,0.2,1.7,0.6l0.3-0.6c-0.6-0.3-1.3-0.6-2-0.6c-1.2-0.1-2.2,0.7-2.3,1.8
				c0,0,0,0.1,0,0.2c0,1.7,1.2,2,2.3,2.5c0.7,0.3,1.2,0.7,1.2,1.5c0,0.8-0.7,1.5-1.5,1.5C88.2,40.1,88.2,40.1,88.1,40.1z M92.2,32.7
				v0.7h2.3v7.1h0.9v-7.1h2.3v-0.7C97.7,32.7,92.2,32.7,92.2,32.7z M101.8,33.5l1.4,3.9h-3L101.8,33.5L101.8,33.5z M105.4,40.5
				l-3.1-7.8h-0.9l-3.2,7.8l0.9,0.3l1-2.7h3.4l1,2.8L105.4,40.5L105.4,40.5z M109.2,39.9h-1.1v-6.5h1.3c2.2,0,3.6,1.1,3.6,3.2
				S111.6,39.9,109.2,39.9z M109.6,32.7h-2.4v7.9h2.1c2.7,0,4.5-1.4,4.5-4C113.9,34.6,112.7,32.7,109.6,32.7L109.6,32.7z
				 M114.9,32.7v0.7h2.3v7.1h0.9v-7.1h2.3v-0.7L114.9,32.7z"/>
			<g id="HIGHEST_00000157999531383822005220000008147614023836403341_">
				<g>
					<rect x="27.2" y="59.5" class="st0" width="4.9" height="20"/>
					<polygon class="st0" points="85.9,75.4 78.2,75.4 78.2,71.5 84.6,71.5 84.6,67.3 78.2,67.3 78.2,63.8 85.9,63.8 85.9,59.5 
						73.4,59.5 73.4,79.6 85.9,79.6 					"/>
					<polygon class="st0" points="106.2,63.8 110.7,63.8 110.7,79.6 115.6,79.6 115.6,63.8 120.1,63.8 120.1,63.8 120.4,63.8 
						120.4,59.5 120.1,59.5 106.2,59.5 105.9,59.5 105.9,63.8 					"/>
					<path class="st0" d="M51.2,69h-7.4v3.6h2.6v2.6c-0.6,0.3-1.4,0.5-2.3,0.5h-0.3c-2.7,0-3-2.2-3-5.7v-1c0-3.5,0.3-5.7,2.9-5.7
						h0.3c1.9,0,2.3,0.7,2.4,2.7h4.9c-0.1-5-2.7-6.8-7.6-6.8c-5.4,0-7.9,2.9-7.9,9.8v1c0,6.9,2.5,9.9,8.1,9.9c3.6,0,5.7-1.1,7.3-2.3
						L51.2,69L51.2,69z"/>
					<polygon class="st0" points="18.5,79.6 23.4,79.6 23.4,59.5 18.5,59.5 18.5,67.3 13.6,67.3 13.6,59.5 8.8,59.5 8.8,79.6 
						13.6,79.6 13.6,71.5 18.5,71.5 					"/>
					<path class="st0" d="M97,67.5c-2.7-0.3-3.1-1-3.1-2.2v-0.1c0-1,0.7-1.8,2.1-1.8h0.3c1.6,0,2.3,0.9,2.4,2.7h4.9
						c0-4.7-2.3-6.8-7.3-6.8c-4.8,0-7.3,2.4-7.3,6.1v0.3c0,3.9,2.2,5.3,6.6,5.9c2.7,0.3,3.2,1,3.2,2.2v0.1c0,1-0.7,1.9-2.3,1.9h-0.3
						c-1.5,0-2.3-0.7-2.4-2.4h-4.9c0.2,4.7,2.7,6.6,7.4,6.6c4.9,0,7.4-2.3,7.4-6.2v-0.3C103.7,69.5,101.4,68.1,97,67.5z"/>
					<polygon class="st0" points="59.8,71.5 64.6,71.5 64.6,79.6 69.5,79.6 69.5,59.5 64.6,59.5 64.6,67.3 59.8,67.3 59.8,59.5 
						54.9,59.5 54.9,79.6 59.8,79.6 					"/>
				</g>
			</g>
		</g>
	</g>
</g>
</svg>
