<?xml version="1.0" encoding="utf-8"?>
<!-- Generator: Adobe Illustrator 30.1.0, SVG Export Plug-In . SVG Version: 9.03 Build 0)  -->
<svg version="1.0" id="Ebene_1" xmlns="http://www.w3.org/2000/svg" xmlns:xlink="http://www.w3.org/1999/xlink" x="0px" y="0px"
	 viewBox="0 0 128.3 85.5" style="enable-background:new 0 0 128.3 85.5;" xml:space="preserve">
<style type="text/css">
	.st0{fill:#231F20;}
	.st1{fill:none;stroke:#231F20;stroke-width:0.2406;stroke-miterlimit:10;}
	.st2{fill:#E52629;}
	.st3{fill:#BDBCBC;}
</style>
<g>
	<path class="st0" d="M25.8,61h4v0.9h-3v2.1h2.7v0.9h-2.7v2.4h3v0.9h-4V61 M32.6,65.4l-1.7-2.5h1.2l1.1,1.9l1.2-1.9h1.1l-1.7,2.5
		l1.8,2.7h-1.2l-1.3-2l-1.3,2h-1.1L32.6,65.4 M36.6,62.9h1v5.2h-1V62.9z M37.7,61.7h-1.1v-1.1h1.1V61.7 M39,67.1
		c0.4,0.2,0.9,0.4,1.2,0.4c0.4,0,1-0.2,1-0.7c0-1-2.3-0.9-2.3-2.3c0-1.1,0.8-1.6,1.8-1.6c0.5,0,0.8,0.1,1.2,0.2l-0.1,0.8
		c-0.2-0.1-0.8-0.3-1-0.3c-0.5,0-0.9,0.2-0.9,0.6c0,1.1,2.3,0.8,2.3,2.4c0,1.1-0.9,1.6-1.8,1.6c-0.5,0-1-0.1-1.4-0.3L39,67.1
		 M46.1,63.7h-1.4v2.9c0,0.6,0.4,0.9,0.8,0.9c0.3,0,0.5-0.1,0.7-0.2v0.8c-0.2,0.1-0.5,0.1-0.8,0.1c-1,0-1.6-0.5-1.6-1.5v-3.1h-1.2
		v-0.8h1.2v-1.2l1-0.3v1.5h1.4L46.1,63.7 M50.7,65c0-0.8-0.5-1.5-1.3-1.5c-0.9,0-1.3,0.8-1.4,1.5H50.7z M51.3,67.9
		c-0.4,0.1-0.8,0.3-1.6,0.3c-1.9,0-2.7-1.1-2.7-2.8c0-1.5,1-2.6,2.4-2.6c1.7,0,2.3,1.3,2.3,3H48c0,1,0.8,1.7,1.7,1.7
		c0.6,0,1.4-0.3,1.6-0.5V67.9 M53,62.9H54v0.8h0c0.3-0.6,1-1,1.7-1c1.4,0,2,0.8,2,2.2v3.1h-1v-2.7c0-1.2-0.3-1.8-1.1-1.9
		c-1.1,0-1.6,0.9-1.6,2.2v2.4h-1L53,62.9 M58.9,67.3l3-3.6h-2.9v-0.8h4v0.8l-3,3.6h3.1v0.8h-4.2V67.3 M68.1,65.6c0-1.1-0.5-2-1.5-2
		c-1,0-1.5,1.1-1.5,1.9c0,1,0.6,1.8,1.5,1.8C67.5,67.3,68.1,66.5,68.1,65.6z M69,67.9c0,1.6-0.8,2.5-2.7,2.5c-0.6,0-1-0.1-1.9-0.4
		l0.1-0.9c0.7,0.3,1.2,0.5,1.9,0.5c1,0,1.6-0.7,1.6-1.8v-0.5h0c-0.4,0.5-1.1,0.8-1.8,0.8c-1.5,0-2.2-1.2-2.2-2.6
		c0-1.3,0.8-2.8,2.3-2.8c0.9,0,1.4,0.3,1.7,0.9h0v-0.8H69L69,67.9 M70.7,62.9h0.9v0.8h0c0.3-0.5,0.8-0.9,1.4-0.9
		c0.3,0,0.4,0,0.6,0.1v0.9c-0.2-0.1-0.4-0.1-0.5-0.1c-0.9,0-1.4,0.8-1.4,2.1v2.4h-1L70.7,62.9 M77.3,61.1h1v1h-1V61.1z M75.7,61.1h1
		v1h-1V61.1z M79.3,68.1h-0.9v-0.8h0c-0.3,0.6-1,1-1.7,1c-1.4,0-2-0.8-2-2.2v-3.1h1v2.7c0,1.2,0.3,1.8,1.1,1.9
		c1.1,0,1.6-0.9,1.6-2.2v-2.4h1L79.3,68.1 M80.9,62.9h0.9v0.8h0c0.3-0.6,1-1,1.7-1c1.4,0,2,0.8,2,2.2v3.1h-1v-2.7
		c0-1.2-0.3-1.8-1.1-1.9c-1.1,0-1.6,0.9-1.6,2.2v2.4h-1L80.9,62.9 M89.3,67.5c1.1,0,1.5-1.1,1.5-1.9c0-1-0.5-2-1.5-2
		c-1,0-1.5,1-1.4,1.9C87.8,66.3,88.3,67.5,89.3,67.5L89.3,67.5z M90.9,67.4L90.9,67.4c-0.3,0.4-0.9,0.9-1.8,0.9
		c-1.6,0-2.2-1.4-2.2-2.8c0-1.4,0.7-2.6,2.3-2.6c0.9,0,1.4,0.4,1.7,0.8h0v-3.2h1v7.7h-0.9V67.4 M98.1,68.1h-0.9v-0.8h0
		c-0.3,0.6-1,1-1.7,1c-1.4,0-2-0.8-2-2.2v-3.1h1v2.7c0,1.2,0.3,1.8,1.1,1.9c1.1,0,1.6-0.9,1.6-2.2v-2.4h1L98.1,68.1 M99.7,62.9h0.9
		v0.8h0c0.3-0.6,1-1,1.7-1c1.4,0,2,0.8,2,2.2v3.1h-1v-2.7c0-1.2-0.3-1.8-1.1-1.9c-1.1,0-1.6,0.9-1.6,2.2v2.4h-1L99.7,62.9
		 M109.6,65.6c0-1.1-0.5-2-1.5-2c-1,0-1.5,1.1-1.5,1.9c0,1,0.6,1.8,1.5,1.8C109,67.3,109.6,66.5,109.6,65.6z M110.6,67.9
		c0,1.6-0.8,2.5-2.7,2.5c-0.6,0-1-0.1-1.9-0.4l0.1-0.9c0.7,0.3,1.2,0.5,1.9,0.5c1,0,1.6-0.7,1.6-1.8v-0.5h0
		c-0.4,0.5-1.1,0.8-1.8,0.8c-1.5,0-2.2-1.2-2.2-2.6c0-1.3,0.8-2.8,2.3-2.8c0.9,0,1.4,0.3,1.7,0.9h0v-0.8h0.9L110.6,67.9 M115.6,65
		c0-0.8-0.5-1.5-1.3-1.5c-0.9,0-1.3,0.8-1.4,1.5H115.6z M116.2,67.9c-0.4,0.1-0.8,0.3-1.7,0.3c-1.9,0-2.7-1.1-2.7-2.8
		c0-1.5,1-2.6,2.4-2.6c1.7,0,2.3,1.3,2.3,3h-3.7c0,1,0.8,1.7,1.7,1.7c0.6,0,1.4-0.3,1.6-0.5L116.2,67.9 M117.9,62.9h0.9v0.8h0
		c0.3-0.6,1-1,1.7-1c1.4,0,2,0.8,2,2.2v3.1h-1v-2.7c0-1.2-0.3-1.8-1.1-1.9c-1.1,0-1.6,0.9-1.6,2.2v2.4h-1L117.9,62.9 M28.8,76.6
		c-0.2,0-0.4,0-0.6,0c-0.5,0-1.8,0.1-1.8,1c0,0.6,0.5,0.9,1,0.9c1,0,1.5-0.6,1.5-1.4L28.8,76.6z M25.9,74.2c0.5-0.3,1.1-0.5,1.7-0.5
		c1.5,0,2.1,0.7,2.1,2.2v2.2c0,0.6,0,0.9,0,1h-0.9v-0.7h0c-0.2,0.3-0.7,0.8-1.6,0.8c-1.1,0-1.9-0.5-1.9-1.6c0-1.3,1.4-1.7,2.4-1.7
		c0.4,0,0.6,0,1,0c0-0.9-0.3-1.4-1.3-1.4c-0.5,0-1.1,0.2-1.5,0.5L25.9,74.2 M36,79.1h-0.9v-0.8h0c-0.3,0.6-1,1-1.7,1
		c-1.4,0-2-0.8-2-2.2v-3.1h1v2.7c0,1.2,0.3,1.8,1.1,1.9c1.1,0,1.6-0.9,1.6-2.2v-2.4h1L36,79.1 M37.3,78.1c0.4,0.2,0.9,0.4,1.2,0.4
		c0.4,0,1-0.2,1-0.7c0-1-2.3-0.9-2.3-2.3c0-1.1,0.8-1.6,1.8-1.6c0.5,0,0.8,0.1,1.2,0.2l-0.1,0.8c-0.2-0.1-0.8-0.3-1-0.3
		c-0.5,0-0.9,0.2-0.9,0.6c0,1.1,2.3,0.8,2.3,2.4c0,1.1-0.9,1.6-1.8,1.6c-0.5,0-1-0.1-1.4-0.3L37.3,78.1 M46.6,78.4
		c1.1,0,1.5-1.1,1.5-1.9c0-1-0.5-2-1.5-2c-1,0-1.5,1-1.4,1.9C45.1,77.3,45.6,78.4,46.6,78.4L46.6,78.4z M48.2,78.3L48.2,78.3
		c-0.3,0.4-0.9,0.9-1.8,0.9c-1.6,0-2.2-1.4-2.2-2.8c0-1.4,0.7-2.6,2.3-2.6c0.9,0,1.4,0.4,1.7,0.8h0v-3.2h1v7.7h-0.9V78.3 M54.1,76
		c0-0.8-0.5-1.5-1.3-1.5c-0.9,0-1.3,0.8-1.4,1.5H54.1z M54.8,78.9c-0.4,0.1-0.8,0.3-1.7,0.3c-1.9,0-2.7-1.1-2.7-2.8
		c0-1.5,1-2.6,2.4-2.6c1.7,0,2.3,1.3,2.3,3h-3.7c0,1,0.8,1.7,1.7,1.7c0.6,0,1.4-0.3,1.6-0.5V78.9 M56.4,73.9h0.9v0.8h0
		c0.3-0.5,0.8-0.9,1.4-0.9c0.3,0,0.4,0,0.6,0.1v0.9c-0.2-0.1-0.4-0.1-0.5-0.1c-0.9,0-1.4,0.8-1.4,2.1v2.4h-1L56.4,73.9 M62.5,71.9
		h1.1l1.7,6.1h0l1.5-6.1h1.5l1.5,6.1h0l1.7-6.1h1.1l-2.2,7.2h-1.3l-1.6-6.3h0L66,79.1h-1.4L62.5,71.9 M73.7,73.9h1v5.2h-1V73.9z
		 M74.7,72.7h-1.1v-1.1h1.1V72.7 M76,78.1c0.4,0.2,0.9,0.4,1.2,0.4c0.4,0,1-0.2,1-0.7c0-1-2.3-0.9-2.3-2.3c0-1.1,0.8-1.6,1.8-1.6
		c0.5,0,0.8,0.1,1.2,0.2l-0.1,0.8c-0.2-0.1-0.8-0.3-1-0.3c-0.5,0-0.9,0.2-0.9,0.6c0,1.1,2.3,0.8,2.3,2.4c0,1.1-0.9,1.6-1.8,1.6
		c-0.5,0-1-0.1-1.4-0.3L76,78.1 M80,78.1c0.4,0.2,0.9,0.4,1.2,0.4c0.4,0,1-0.2,1-0.7c0-1-2.3-0.9-2.3-2.3c0-1.1,0.8-1.6,1.8-1.6
		c0.5,0,0.8,0.1,1.2,0.2l-0.1,0.8c-0.2-0.1-0.8-0.3-1-0.3c-0.5,0-0.9,0.2-0.9,0.6c0,1.1,2.3,0.8,2.3,2.4c0,1.1-0.9,1.6-1.8,1.6
		c-0.5,0-1-0.1-1.4-0.3L80,78.1 M87.7,76c0-0.8-0.5-1.5-1.3-1.5c-0.9,0-1.3,0.8-1.4,1.5H87.7z M88.4,78.9c-0.4,0.1-0.8,0.3-1.7,0.3
		c-1.9,0-2.7-1.1-2.7-2.8c0-1.5,1-2.6,2.5-2.6c1.7,0,2.3,1.3,2.3,3H85c0,1,0.8,1.7,1.7,1.7c0.6,0,1.4-0.3,1.6-0.5L88.4,78.9
		 M90.1,73.9H91v0.8h0c0.3-0.6,1-1,1.7-1c1.4,0,2,0.8,2,2.2v3.1h-1v-2.7c0-1.2-0.3-1.8-1.1-1.9c-1.1,0-1.6,0.9-1.6,2.2v2.4h-1
		L90.1,73.9 M95.9,78.1c0.4,0.2,0.9,0.4,1.2,0.4c0.4,0,1-0.2,1-0.7c0-1-2.3-0.9-2.3-2.3c0-1.1,0.8-1.6,1.8-1.6
		c0.5,0,0.8,0.1,1.2,0.2l-0.1,0.8c-0.2-0.1-0.8-0.3-1-0.3c-0.5,0-0.9,0.2-0.9,0.6c0,1.1,2.3,0.8,2.3,2.4c0,1.1-0.9,1.6-1.8,1.6
		c-0.5,0-1-0.1-1.4-0.3L95.9,78.1 M103.6,74.7c-0.4-0.2-0.7-0.2-1-0.2c-1.1,0-1.7,1-1.7,2c0,0.9,0.5,2,1.7,2c0.3,0,0.7-0.1,1-0.3
		l0.1,0.9c-0.4,0.2-0.9,0.2-1.2,0.2c-1.6,0-2.7-1.2-2.7-2.7c0-1.6,1.1-2.7,2.7-2.7c0.4,0,0.9,0.1,1.2,0.2L103.6,74.7 M104.9,71.4h1
		v3.2h0c0.3-0.6,1-0.9,1.7-0.9c1.4,0,2,0.8,2,2.2v3.1h-1v-2.7c0-1.2-0.3-1.8-1.1-1.9c-1.1,0-1.6,0.9-1.6,2.2v2.4h-1L104.9,71.4
		 M114.2,76.6c-0.2,0-0.4,0-0.6,0c-0.5,0-1.8,0.1-1.8,1c0,0.6,0.5,0.9,1,0.9c1,0,1.5-0.6,1.5-1.4V76.6z M111.4,74.2
		c0.5-0.3,1.1-0.5,1.7-0.5c1.5,0,2.1,0.7,2.1,2.2v2.2c0,0.6,0,0.9,0,1h-0.9v-0.7h0c-0.2,0.3-0.7,0.8-1.6,0.8c-1.1,0-1.9-0.5-1.9-1.6
		c0-1.3,1.4-1.7,2.4-1.7c0.4,0,0.6,0,1,0c0-0.9-0.3-1.4-1.3-1.4c-0.5,0-1.1,0.2-1.5,0.5L111.4,74.2 M117.4,74.6h-1.2v-0.8h1.2v-0.5
		c0-1.3,0.3-2.1,1.8-2.1c0.2,0,0.5,0,0.6,0.1l0,0.8c-0.1,0-0.3-0.1-0.5-0.1c-0.8,0-0.9,0.5-0.9,1.2v0.6h1.4v0.8h-1.4v4.4h-1
		L117.4,74.6 M123.6,74.6h-1.4v2.9c0,0.6,0.4,0.9,0.8,0.9c0.3,0,0.5-0.1,0.7-0.2v0.8c-0.2,0.1-0.5,0.1-0.8,0.1c-1,0-1.6-0.5-1.6-1.5
		v-3.1H120v-0.8h1.2v-1.2l1-0.3v1.5h1.4L123.6,74.6 M24.1,31.3c0.1-0.8,0.2-1.5,0.2-2.1c0-3.3-2-5.7-5.9-5.7c-4.2,0-7.5,3.7-8.6,7.8
		L24.1,31.3z M24.7,47.4c-2.7,0.7-5.5,1.2-8.3,1.2C9.6,48.6,3.5,45.8,3.5,36c0-7.7,5.4-16.7,15.3-16.7c6.7,0,10.5,4.1,10.5,10.7
		c0,1.9-0.2,3.5-0.5,5.1H9.2C9.1,35.7,9,36.2,9,36.8c0,5.9,3.6,7.6,8.6,7.6c2.6,0,5.4-0.7,7.9-1.7L24.7,47.4 M73.6,19.7h4.1l-6,28.1
		h-4.1L73.6,19.7"/>
	<path class="st1" d="M73.6,19.7h4.1l-6,28.1h-4.1L73.6,19.7z"/>
	<path class="st0" d="M96.9,24.1c-1.3-0.8-3-1.4-5.1-1.4c-2.7,0-5.5,1-5.5,4.4c0,4.7,9.6,4.7,9.6,12.1c0,4.2-2.9,9-9.7,9
		c-3.3,0-5.6-0.7-7.8-1.6l1.3-3.7c1.6,1,3.9,1.8,5.9,1.8c4.3,0,6.1-2.7,6.1-5C91.5,34,82,35,82,27.2c0-5.1,4.7-8,9.3-8
		c2.3,0,4.6,0.4,6.8,1.3L96.9,24.1"/>
	<path class="st1" d="M96.9,24.1c-1.3-0.8-3-1.4-5.1-1.4c-2.7,0-5.5,1-5.5,4.4c0,4.7,9.6,4.7,9.6,12.1c0,4.2-2.9,9-9.7,9
		c-3.3,0-5.6-0.7-7.8-1.6l1.3-3.7c1.6,1,3.9,1.8,5.9,1.8c4.3,0,6.1-2.7,6.1-5C91.5,34,82,35,82,27.2c0-5.1,4.7-8,9.3-8
		c2.3,0,4.6,0.4,6.8,1.3L96.9,24.1z"/>
	<path class="st0" d="M123.3,23.2h-8.7l-5.3,24.5h-4.1l5.3-24.5h-8.7l0.8-3.5H124L123.3,23.2"/>
	<path class="st1" d="M123.3,23.2h-8.7l-5.3,24.5h-4.1l5.3-24.5h-8.7l0.8-3.5H124L123.3,23.2z"/>
	<path class="st2" d="M52.7,33.8l9.5,18.8h-9.5l-6.3-13.6L32.2,54.7l-6.5-4.2l17-17.7l-9.2-18.5h9.2l6.2,13.5l13.9-15.6l6.4,4.1
		L52.7,33.8"/>
	<path class="st3" d="M56.9,7.9c0,2.9-2.3,5.2-5.2,5.2c-2.9,0-5.2-2.3-5.2-5.2c0-2.9,2.3-5.2,5.2-5.2C54.5,2.7,56.9,5,56.9,7.9"/>
</g>
</svg>
